<?xml version="1.0" encoding="utf-8" standalone="no"?>
<!DOCTYPE svg PUBLIC "-//W3C//DTD SVG 1.1//EN"
  "http://www.w3.org/Graphics/SVG/1.1/DTD/svg11.dtd">
<!-- Created with matplotlib (http://matplotlib.org/) -->
<svg height="90pt" version="1.1" viewBox="0 0 130.32 90" width="130.32pt" xmlns="http://www.w3.org/2000/svg" xmlns:xlink="http://www.w3.org/1999/xlink">
 <defs>
  <style type="text/css">
*{stroke-linecap:butt;stroke-linejoin:round;}
  </style>
 </defs>
 <g id="figure_1">
  <g id="patch_1">
   <path d="M 0 90 
L 130.32 90 
L 130.32 0 
L 0 0 
z
" style="fill:#ffffff;"/>
  </g>
  <g id="axes_1">
   <g id="patch_2">
    <path d="M 49.4228 71.5872 
L 128.7072 71.5872 
L 128.7072 1.6128 
L 49.4228 1.6128 
z
" style="fill:#ffffff;"/>
   </g>
   <g id="matplotlib.axis_1">
    <g id="xtick_1">
     <g id="line2d_1">
      <path clip-path="url(#p955fe4ab30)" d="M 59.33335 71.5872 
L 59.33335 1.6128 
" style="fill:none;stroke:#cccccc;stroke-linecap:round;stroke-width:0.8;"/>
     </g>
     <g id="line2d_2"/>
     <g id="text_1">
      <!-- −20 -->
      <defs>
       <path d="M 52.828125 31.203125 
L 5.5625 31.203125 
L 5.5625 39.40625 
L 52.828125 39.40625 
z
" id="ArialMT-2212"/>
       <path d="M 50.34375 8.453125 
L 50.34375 0 
L 3.03125 0 
Q 2.9375 3.171875 4.046875 6.109375 
Q 5.859375 10.9375 9.828125 15.625 
Q 13.8125 20.3125 21.34375 26.46875 
Q 33.015625 36.03125 37.109375 41.625 
Q 41.21875 47.21875 41.21875 52.203125 
Q 41.21875 57.421875 37.46875 61 
Q 33.734375 64.59375 27.734375 64.59375 
Q 21.390625 64.59375 17.578125 60.78125 
Q 13.765625 56.984375 13.71875 50.25 
L 4.6875 51.171875 
Q 5.609375 61.28125 11.65625 66.578125 
Q 17.71875 71.875 27.9375 71.875 
Q 38.234375 71.875 44.234375 66.15625 
Q 50.25 60.453125 50.25 52 
Q 50.25 47.703125 48.484375 43.546875 
Q 46.734375 39.40625 42.65625 34.8125 
Q 38.578125 30.21875 29.109375 22.21875 
Q 21.1875 15.578125 18.9375 13.203125 
Q 16.703125 10.84375 15.234375 8.453125 
z
" id="ArialMT-32"/>
       <path d="M 4.15625 35.296875 
Q 4.15625 48 6.765625 55.734375 
Q 9.375 63.484375 14.515625 67.671875 
Q 19.671875 71.875 27.484375 71.875 
Q 33.25 71.875 37.59375 69.546875 
Q 41.9375 67.234375 44.765625 62.859375 
Q 47.609375 58.5 49.21875 52.21875 
Q 50.828125 45.953125 50.828125 35.296875 
Q 50.828125 22.703125 48.234375 14.96875 
Q 45.65625 7.234375 40.5 3 
Q 35.359375 -1.21875 27.484375 -1.21875 
Q 17.140625 -1.21875 11.234375 6.203125 
Q 4.15625 15.140625 4.15625 35.296875 
z
M 13.1875 35.296875 
Q 13.1875 17.671875 17.3125 11.828125 
Q 21.4375 6 27.484375 6 
Q 33.546875 6 37.671875 11.859375 
Q 41.796875 17.71875 41.796875 35.296875 
Q 41.796875 52.984375 37.671875 58.78125 
Q 33.546875 64.59375 27.390625 64.59375 
Q 21.34375 64.59375 17.71875 59.46875 
Q 13.1875 52.9375 13.1875 35.296875 
z
" id="ArialMT-30"/>
      </defs>
      <g style="fill:#262626;" transform="translate(54.58385 77.595575)scale(0.056 -0.056)">
       <use xlink:href="#ArialMT-2212"/>
       <use x="58.398438" xlink:href="#ArialMT-32"/>
       <use x="114.013672" xlink:href="#ArialMT-30"/>
      </g>
     </g>
    </g>
    <g id="xtick_2">
     <g id="line2d_3">
      <path clip-path="url(#p955fe4ab30)" d="M 79.15445 71.5872 
L 79.15445 1.6128 
" style="fill:none;stroke:#cccccc;stroke-linecap:round;stroke-width:0.8;"/>
     </g>
     <g id="line2d_4"/>
     <g id="text_2">
      <!-- 0 -->
      <g style="fill:#262626;" transform="translate(77.597387 77.595575)scale(0.056 -0.056)">
       <use xlink:href="#ArialMT-30"/>
      </g>
     </g>
    </g>
    <g id="xtick_3">
     <g id="line2d_5">
      <path clip-path="url(#p955fe4ab30)" d="M 98.97555 71.5872 
L 98.97555 1.6128 
" style="fill:none;stroke:#cccccc;stroke-linecap:round;stroke-width:0.8;"/>
     </g>
     <g id="line2d_6"/>
     <g id="text_3">
      <!-- 20 -->
      <g style="fill:#262626;" transform="translate(95.861425 77.595575)scale(0.056 -0.056)">
       <use xlink:href="#ArialMT-32"/>
       <use x="55.615234" xlink:href="#ArialMT-30"/>
      </g>
     </g>
    </g>
    <g id="xtick_4">
     <g id="line2d_7">
      <path clip-path="url(#p955fe4ab30)" d="M 118.79665 71.5872 
L 118.79665 1.6128 
" style="fill:none;stroke:#cccccc;stroke-linecap:round;stroke-width:0.8;"/>
     </g>
     <g id="line2d_8"/>
     <g id="text_4">
      <!-- 40 -->
      <defs>
       <path d="M 32.328125 0 
L 32.328125 17.140625 
L 1.265625 17.140625 
L 1.265625 25.203125 
L 33.9375 71.578125 
L 41.109375 71.578125 
L 41.109375 25.203125 
L 50.78125 25.203125 
L 50.78125 17.140625 
L 41.109375 17.140625 
L 41.109375 0 
z
M 32.328125 25.203125 
L 32.328125 57.46875 
L 9.90625 25.203125 
z
" id="ArialMT-34"/>
      </defs>
      <g style="fill:#262626;" transform="translate(115.682525 77.595575)scale(0.056 -0.056)">
       <use xlink:href="#ArialMT-34"/>
       <use x="55.615234" xlink:href="#ArialMT-30"/>
      </g>
     </g>
    </g>
    <g id="text_5">
     <!-- ME [kcal/mol] -->
     <defs>
      <path d="M 7.421875 0 
L 7.421875 71.578125 
L 21.6875 71.578125 
L 38.625 20.90625 
Q 40.96875 13.8125 42.046875 10.296875 
Q 43.265625 14.203125 45.84375 21.78125 
L 62.984375 71.578125 
L 75.734375 71.578125 
L 75.734375 0 
L 66.609375 0 
L 66.609375 59.90625 
L 45.796875 0 
L 37.25 0 
L 16.546875 60.9375 
L 16.546875 0 
z
" id="ArialMT-4d"/>
      <path d="M 7.90625 0 
L 7.90625 71.578125 
L 59.671875 71.578125 
L 59.671875 63.140625 
L 17.390625 63.140625 
L 17.390625 41.21875 
L 56.984375 41.21875 
L 56.984375 32.8125 
L 17.390625 32.8125 
L 17.390625 8.453125 
L 61.328125 8.453125 
L 61.328125 0 
z
" id="ArialMT-45"/>
      <path id="ArialMT-20"/>
      <path d="M 6.78125 -19.875 
L 6.78125 71.578125 
L 26.171875 71.578125 
L 26.171875 64.3125 
L 15.578125 64.3125 
L 15.578125 -12.59375 
L 26.171875 -12.59375 
L 26.171875 -19.875 
z
" id="ArialMT-5b"/>
      <path d="M 6.640625 0 
L 6.640625 71.578125 
L 15.4375 71.578125 
L 15.4375 30.765625 
L 36.234375 51.859375 
L 47.609375 51.859375 
L 27.78125 32.625 
L 49.609375 0 
L 38.765625 0 
L 21.625 26.515625 
L 15.4375 20.5625 
L 15.4375 0 
z
" id="ArialMT-6b"/>
      <path d="M 40.4375 19 
L 49.078125 17.875 
Q 47.65625 8.9375 41.8125 3.875 
Q 35.984375 -1.171875 27.484375 -1.171875 
Q 16.84375 -1.171875 10.375 5.78125 
Q 3.90625 12.75 3.90625 25.734375 
Q 3.90625 34.125 6.6875 40.421875 
Q 9.46875 46.734375 15.15625 49.875 
Q 20.84375 53.03125 27.546875 53.03125 
Q 35.984375 53.03125 41.359375 48.75 
Q 46.734375 44.484375 48.25 36.625 
L 39.703125 35.296875 
Q 38.484375 40.53125 35.375 43.15625 
Q 32.28125 45.796875 27.875 45.796875 
Q 21.234375 45.796875 17.078125 41.03125 
Q 12.9375 36.28125 12.9375 25.984375 
Q 12.9375 15.53125 16.9375 10.796875 
Q 20.953125 6.0625 27.390625 6.0625 
Q 32.5625 6.0625 36.03125 9.234375 
Q 39.5 12.40625 40.4375 19 
z
" id="ArialMT-63"/>
      <path d="M 40.4375 6.390625 
Q 35.546875 2.25 31.03125 0.53125 
Q 26.515625 -1.171875 21.34375 -1.171875 
Q 12.796875 -1.171875 8.203125 3 
Q 3.609375 7.171875 3.609375 13.671875 
Q 3.609375 17.484375 5.34375 20.625 
Q 7.078125 23.78125 9.890625 25.6875 
Q 12.703125 27.59375 16.21875 28.5625 
Q 18.796875 29.25 24.03125 29.890625 
Q 34.671875 31.15625 39.703125 32.90625 
Q 39.75 34.71875 39.75 35.203125 
Q 39.75 40.578125 37.25 42.78125 
Q 33.890625 45.75 27.25 45.75 
Q 21.046875 45.75 18.09375 43.578125 
Q 15.140625 41.40625 13.71875 35.890625 
L 5.125 37.0625 
Q 6.296875 42.578125 8.984375 45.96875 
Q 11.671875 49.359375 16.75 51.1875 
Q 21.828125 53.03125 28.515625 53.03125 
Q 35.15625 53.03125 39.296875 51.46875 
Q 43.453125 49.90625 45.40625 47.53125 
Q 47.359375 45.171875 48.140625 41.546875 
Q 48.578125 39.3125 48.578125 33.453125 
L 48.578125 21.734375 
Q 48.578125 9.46875 49.140625 6.21875 
Q 49.703125 2.984375 51.375 0 
L 42.1875 0 
Q 40.828125 2.734375 40.4375 6.390625 
z
M 39.703125 26.03125 
Q 34.90625 24.078125 25.34375 22.703125 
Q 19.921875 21.921875 17.671875 20.9375 
Q 15.4375 19.96875 14.203125 18.09375 
Q 12.984375 16.21875 12.984375 13.921875 
Q 12.984375 10.40625 15.640625 8.0625 
Q 18.3125 5.71875 23.4375 5.71875 
Q 28.515625 5.71875 32.46875 7.9375 
Q 36.421875 10.15625 38.28125 14.015625 
Q 39.703125 17 39.703125 22.796875 
z
" id="ArialMT-61"/>
      <path d="M 6.390625 0 
L 6.390625 71.578125 
L 15.1875 71.578125 
L 15.1875 0 
z
" id="ArialMT-6c"/>
      <path d="M 0 -1.21875 
L 20.75 72.796875 
L 27.78125 72.796875 
L 7.078125 -1.21875 
z
" id="ArialMT-2f"/>
      <path d="M 6.59375 0 
L 6.59375 51.859375 
L 14.453125 51.859375 
L 14.453125 44.578125 
Q 16.890625 48.390625 20.9375 50.703125 
Q 25 53.03125 30.171875 53.03125 
Q 35.9375 53.03125 39.625 50.640625 
Q 43.3125 48.25 44.828125 43.953125 
Q 50.984375 53.03125 60.84375 53.03125 
Q 68.5625 53.03125 72.703125 48.75 
Q 76.859375 44.484375 76.859375 35.59375 
L 76.859375 0 
L 68.109375 0 
L 68.109375 32.671875 
Q 68.109375 37.9375 67.25 40.25 
Q 66.40625 42.578125 64.15625 43.984375 
Q 61.921875 45.40625 58.890625 45.40625 
Q 53.421875 45.40625 49.796875 41.765625 
Q 46.1875 38.140625 46.1875 30.125 
L 46.1875 0 
L 37.40625 0 
L 37.40625 33.6875 
Q 37.40625 39.546875 35.25 42.46875 
Q 33.109375 45.40625 28.21875 45.40625 
Q 24.515625 45.40625 21.359375 43.453125 
Q 18.21875 41.5 16.796875 37.734375 
Q 15.375 33.984375 15.375 26.90625 
L 15.375 0 
z
" id="ArialMT-6d"/>
      <path d="M 3.328125 25.921875 
Q 3.328125 40.328125 11.328125 47.265625 
Q 18.015625 53.03125 27.640625 53.03125 
Q 38.328125 53.03125 45.109375 46.015625 
Q 51.90625 39.015625 51.90625 26.65625 
Q 51.90625 16.65625 48.90625 10.90625 
Q 45.90625 5.171875 40.15625 2 
Q 34.421875 -1.171875 27.640625 -1.171875 
Q 16.75 -1.171875 10.03125 5.8125 
Q 3.328125 12.796875 3.328125 25.921875 
z
M 12.359375 25.921875 
Q 12.359375 15.96875 16.703125 11.015625 
Q 21.046875 6.0625 27.640625 6.0625 
Q 34.1875 6.0625 38.53125 11.03125 
Q 42.875 16.015625 42.875 26.21875 
Q 42.875 35.84375 38.5 40.796875 
Q 34.125 45.75 27.640625 45.75 
Q 21.046875 45.75 16.703125 40.8125 
Q 12.359375 35.890625 12.359375 25.921875 
z
" id="ArialMT-6f"/>
      <path d="M 21.296875 -19.875 
L 1.90625 -19.875 
L 1.90625 -12.59375 
L 12.5 -12.59375 
L 12.5 64.3125 
L 1.90625 64.3125 
L 1.90625 71.578125 
L 21.296875 71.578125 
z
" id="ArialMT-5d"/>
     </defs>
     <g style="fill:#262626;" transform="translate(70.582594 87.192863)scale(0.0616 -0.0616)">
      <use xlink:href="#ArialMT-4d"/>
      <use x="83.300781" xlink:href="#ArialMT-45"/>
      <use x="150" xlink:href="#ArialMT-20"/>
      <use x="177.783203" xlink:href="#ArialMT-5b"/>
      <use x="205.566406" xlink:href="#ArialMT-6b"/>
      <use x="255.566406" xlink:href="#ArialMT-63"/>
      <use x="305.566406" xlink:href="#ArialMT-61"/>
      <use x="361.181641" xlink:href="#ArialMT-6c"/>
      <use x="383.398438" xlink:href="#ArialMT-2f"/>
      <use x="411.181641" xlink:href="#ArialMT-6d"/>
      <use x="494.482422" xlink:href="#ArialMT-6f"/>
      <use x="550.097656" xlink:href="#ArialMT-6c"/>
      <use x="572.314453" xlink:href="#ArialMT-5d"/>
     </g>
    </g>
   </g>
   <g id="matplotlib.axis_2">
    <g id="ytick_1">
     <g id="line2d_9"/>
     <g id="text_6">
      <!-- DFT(B3PW91) -->
      <defs>
       <path d="M 7.71875 0 
L 7.71875 71.578125 
L 32.375 71.578125 
Q 40.71875 71.578125 45.125 70.5625 
Q 51.265625 69.140625 55.609375 65.4375 
Q 61.28125 60.640625 64.078125 53.1875 
Q 66.890625 45.75 66.890625 36.1875 
Q 66.890625 28.03125 64.984375 21.734375 
Q 63.09375 15.4375 60.109375 11.296875 
Q 57.125 7.171875 53.578125 4.796875 
Q 50.046875 2.4375 45.046875 1.21875 
Q 40.046875 0 33.546875 0 
z
M 17.1875 8.453125 
L 32.46875 8.453125 
Q 39.546875 8.453125 43.578125 9.765625 
Q 47.609375 11.078125 50 13.484375 
Q 53.375 16.84375 55.25 22.53125 
Q 57.125 28.21875 57.125 36.328125 
Q 57.125 47.5625 53.4375 53.59375 
Q 49.75 59.625 44.484375 61.671875 
Q 40.671875 63.140625 32.234375 63.140625 
L 17.1875 63.140625 
z
" id="ArialMT-44"/>
       <path d="M 8.203125 0 
L 8.203125 71.578125 
L 56.5 71.578125 
L 56.5 63.140625 
L 17.671875 63.140625 
L 17.671875 40.96875 
L 51.265625 40.96875 
L 51.265625 32.515625 
L 17.671875 32.515625 
L 17.671875 0 
z
" id="ArialMT-46"/>
       <path d="M 25.921875 0 
L 25.921875 63.140625 
L 2.34375 63.140625 
L 2.34375 71.578125 
L 59.078125 71.578125 
L 59.078125 63.140625 
L 35.40625 63.140625 
L 35.40625 0 
z
" id="ArialMT-54"/>
       <path d="M 23.390625 -21.046875 
Q 16.109375 -11.859375 11.078125 0.4375 
Q 6.0625 12.75 6.0625 25.921875 
Q 6.0625 37.546875 9.8125 48.1875 
Q 14.203125 60.546875 23.390625 72.796875 
L 29.6875 72.796875 
Q 23.78125 62.640625 21.875 58.296875 
Q 18.890625 51.5625 17.1875 44.234375 
Q 15.09375 35.109375 15.09375 25.875 
Q 15.09375 2.390625 29.6875 -21.046875 
z
" id="ArialMT-28"/>
       <path d="M 7.328125 0 
L 7.328125 71.578125 
L 34.1875 71.578125 
Q 42.390625 71.578125 47.34375 69.40625 
Q 52.296875 67.234375 55.09375 62.71875 
Q 57.90625 58.203125 57.90625 53.265625 
Q 57.90625 48.6875 55.421875 44.625 
Q 52.9375 40.578125 47.90625 38.09375 
Q 54.390625 36.1875 57.875 31.59375 
Q 61.375 27 61.375 20.75 
Q 61.375 15.71875 59.25 11.390625 
Q 57.125 7.078125 54 4.734375 
Q 50.875 2.390625 46.15625 1.1875 
Q 41.453125 0 34.625 0 
z
M 16.796875 41.5 
L 32.28125 41.5 
Q 38.578125 41.5 41.3125 42.328125 
Q 44.921875 43.40625 46.75 45.890625 
Q 48.578125 48.390625 48.578125 52.15625 
Q 48.578125 55.71875 46.875 58.421875 
Q 45.171875 61.140625 41.984375 62.140625 
Q 38.8125 63.140625 31.109375 63.140625 
L 16.796875 63.140625 
z
M 16.796875 8.453125 
L 34.625 8.453125 
Q 39.203125 8.453125 41.0625 8.796875 
Q 44.34375 9.375 46.53125 10.734375 
Q 48.734375 12.109375 50.140625 14.71875 
Q 51.5625 17.328125 51.5625 20.75 
Q 51.5625 24.75 49.515625 27.703125 
Q 47.46875 30.671875 43.828125 31.859375 
Q 40.1875 33.0625 33.34375 33.0625 
L 16.796875 33.0625 
z
" id="ArialMT-42"/>
       <path d="M 4.203125 18.890625 
L 12.984375 20.0625 
Q 14.5 12.59375 18.140625 9.296875 
Q 21.78125 6 27 6 
Q 33.203125 6 37.46875 10.296875 
Q 41.75 14.59375 41.75 20.953125 
Q 41.75 27 37.796875 30.921875 
Q 33.84375 34.859375 27.734375 34.859375 
Q 25.25 34.859375 21.53125 33.890625 
L 22.515625 41.609375 
Q 23.390625 41.5 23.921875 41.5 
Q 29.546875 41.5 34.03125 44.421875 
Q 38.53125 47.359375 38.53125 53.46875 
Q 38.53125 58.296875 35.25 61.46875 
Q 31.984375 64.65625 26.8125 64.65625 
Q 21.6875 64.65625 18.265625 61.421875 
Q 14.84375 58.203125 13.875 51.765625 
L 5.078125 53.328125 
Q 6.6875 62.15625 12.390625 67.015625 
Q 18.109375 71.875 26.609375 71.875 
Q 32.46875 71.875 37.390625 69.359375 
Q 42.328125 66.84375 44.9375 62.5 
Q 47.5625 58.15625 47.5625 53.265625 
Q 47.5625 48.640625 45.0625 44.828125 
Q 42.578125 41.015625 37.703125 38.765625 
Q 44.046875 37.3125 47.5625 32.6875 
Q 51.078125 28.078125 51.078125 21.140625 
Q 51.078125 11.765625 44.234375 5.25 
Q 37.40625 -1.265625 26.953125 -1.265625 
Q 17.53125 -1.265625 11.296875 4.34375 
Q 5.078125 9.96875 4.203125 18.890625 
z
" id="ArialMT-33"/>
       <path d="M 7.71875 0 
L 7.71875 71.578125 
L 34.71875 71.578125 
Q 41.84375 71.578125 45.609375 70.90625 
Q 50.875 70.015625 54.4375 67.546875 
Q 58.015625 65.09375 60.1875 60.640625 
Q 62.359375 56.203125 62.359375 50.875 
Q 62.359375 41.75 56.546875 35.421875 
Q 50.734375 29.109375 35.546875 29.109375 
L 17.1875 29.109375 
L 17.1875 0 
z
M 17.1875 37.546875 
L 35.6875 37.546875 
Q 44.875 37.546875 48.734375 40.96875 
Q 52.59375 44.390625 52.59375 50.59375 
Q 52.59375 55.078125 50.3125 58.265625 
Q 48.046875 61.46875 44.34375 62.5 
Q 41.9375 63.140625 35.5 63.140625 
L 17.1875 63.140625 
z
" id="ArialMT-50"/>
       <path d="M 20.21875 0 
L 1.21875 71.578125 
L 10.9375 71.578125 
L 21.828125 24.65625 
Q 23.578125 17.28125 24.859375 10.015625 
Q 27.59375 21.484375 28.078125 23.25 
L 41.703125 71.578125 
L 53.125 71.578125 
L 63.375 35.359375 
Q 67.234375 21.875 68.953125 10.015625 
Q 70.3125 16.796875 72.515625 25.59375 
L 83.734375 71.578125 
L 93.265625 71.578125 
L 73.640625 0 
L 64.5 0 
L 49.421875 54.546875 
Q 47.515625 61.375 47.171875 62.9375 
Q 46.046875 58.015625 45.0625 54.546875 
L 29.890625 0 
z
" id="ArialMT-57"/>
       <path d="M 5.46875 16.546875 
L 13.921875 17.328125 
Q 14.984375 11.375 18.015625 8.6875 
Q 21.046875 6 25.78125 6 
Q 29.828125 6 32.875 7.859375 
Q 35.9375 9.71875 37.890625 12.8125 
Q 39.84375 15.921875 41.15625 21.1875 
Q 42.484375 26.46875 42.484375 31.9375 
Q 42.484375 32.515625 42.4375 33.6875 
Q 39.796875 29.5 35.234375 26.875 
Q 30.671875 24.265625 25.34375 24.265625 
Q 16.453125 24.265625 10.296875 30.703125 
Q 4.15625 37.15625 4.15625 47.703125 
Q 4.15625 58.59375 10.578125 65.234375 
Q 17 71.875 26.65625 71.875 
Q 33.640625 71.875 39.421875 68.109375 
Q 45.21875 64.359375 48.21875 57.390625 
Q 51.21875 50.4375 51.21875 37.25 
Q 51.21875 23.53125 48.234375 15.40625 
Q 45.265625 7.28125 39.375 3.03125 
Q 33.5 -1.21875 25.59375 -1.21875 
Q 17.1875 -1.21875 11.859375 3.4375 
Q 6.546875 8.109375 5.46875 16.546875 
z
M 41.453125 48.140625 
Q 41.453125 55.71875 37.421875 60.15625 
Q 33.40625 64.59375 27.734375 64.59375 
Q 21.875 64.59375 17.53125 59.8125 
Q 13.1875 55.03125 13.1875 47.40625 
Q 13.1875 40.578125 17.3125 36.296875 
Q 21.4375 32.03125 27.484375 32.03125 
Q 33.59375 32.03125 37.515625 36.296875 
Q 41.453125 40.578125 41.453125 48.140625 
z
" id="ArialMT-39"/>
       <path d="M 37.25 0 
L 28.46875 0 
L 28.46875 56 
Q 25.296875 52.984375 20.140625 49.953125 
Q 14.984375 46.921875 10.890625 45.40625 
L 10.890625 53.90625 
Q 18.265625 57.375 23.78125 62.296875 
Q 29.296875 67.234375 31.59375 71.875 
L 37.25 71.875 
z
" id="ArialMT-31"/>
       <path d="M 12.359375 -21.046875 
L 6.0625 -21.046875 
Q 20.65625 2.390625 20.65625 25.875 
Q 20.65625 35.0625 18.5625 44.09375 
Q 16.890625 51.421875 13.921875 58.15625 
Q 12.015625 62.546875 6.0625 72.796875 
L 12.359375 72.796875 
Q 21.53125 60.546875 25.921875 48.1875 
Q 29.6875 37.546875 29.6875 25.921875 
Q 29.6875 12.75 24.625 0.4375 
Q 19.578125 -11.859375 12.359375 -21.046875 
z
" id="ArialMT-29"/>
      </defs>
      <g style="fill:#262626;" transform="translate(10.70955 12.397913)scale(0.056 -0.056)">
       <use xlink:href="#ArialMT-44"/>
       <use x="72.216797" xlink:href="#ArialMT-46"/>
       <use x="133.300781" xlink:href="#ArialMT-54"/>
       <use x="194.384766" xlink:href="#ArialMT-28"/>
       <use x="227.685547" xlink:href="#ArialMT-42"/>
       <use x="294.384766" xlink:href="#ArialMT-33"/>
       <use x="350" xlink:href="#ArialMT-50"/>
       <use x="416.699219" xlink:href="#ArialMT-57"/>
       <use x="511.083984" xlink:href="#ArialMT-39"/>
       <use x="566.699219" xlink:href="#ArialMT-31"/>
       <use x="622.314453" xlink:href="#ArialMT-29"/>
      </g>
     </g>
    </g>
    <g id="ytick_2">
     <g id="line2d_10"/>
     <g id="text_7">
      <!-- MMPBSA-GAFF -->
      <defs>
       <path d="M 4.5 23 
L 13.421875 23.78125 
Q 14.0625 18.40625 16.375 14.96875 
Q 18.703125 11.53125 23.578125 9.40625 
Q 28.46875 7.28125 34.578125 7.28125 
Q 39.984375 7.28125 44.140625 8.890625 
Q 48.296875 10.5 50.3125 13.296875 
Q 52.34375 16.109375 52.34375 19.4375 
Q 52.34375 22.796875 50.390625 25.3125 
Q 48.4375 27.828125 43.953125 29.546875 
Q 41.0625 30.671875 31.203125 33.03125 
Q 21.34375 35.40625 17.390625 37.5 
Q 12.25 40.1875 9.734375 44.15625 
Q 7.234375 48.140625 7.234375 53.078125 
Q 7.234375 58.5 10.296875 63.203125 
Q 13.375 67.921875 19.28125 70.359375 
Q 25.203125 72.796875 32.421875 72.796875 
Q 40.375 72.796875 46.453125 70.234375 
Q 52.546875 67.671875 55.8125 62.6875 
Q 59.078125 57.71875 59.328125 51.421875 
L 50.25 50.734375 
Q 49.515625 57.515625 45.28125 60.984375 
Q 41.0625 64.453125 32.8125 64.453125 
Q 24.21875 64.453125 20.28125 61.296875 
Q 16.359375 58.15625 16.359375 53.71875 
Q 16.359375 49.859375 19.140625 47.359375 
Q 21.875 44.875 33.421875 42.265625 
Q 44.96875 39.65625 49.265625 37.703125 
Q 55.515625 34.8125 58.484375 30.390625 
Q 61.46875 25.984375 61.46875 20.21875 
Q 61.46875 14.5 58.203125 9.4375 
Q 54.9375 4.390625 48.796875 1.578125 
Q 42.671875 -1.21875 35.015625 -1.21875 
Q 25.296875 -1.21875 18.71875 1.609375 
Q 12.15625 4.4375 8.421875 10.125 
Q 4.6875 15.828125 4.5 23 
z
" id="ArialMT-53"/>
       <path d="M -0.140625 0 
L 27.34375 71.578125 
L 37.546875 71.578125 
L 66.84375 0 
L 56.0625 0 
L 47.703125 21.6875 
L 17.78125 21.6875 
L 9.90625 0 
z
M 20.515625 29.390625 
L 44.78125 29.390625 
L 37.3125 49.21875 
Q 33.890625 58.25 32.234375 64.0625 
Q 30.859375 57.171875 28.375 50.390625 
z
" id="ArialMT-41"/>
       <path d="M 3.171875 21.484375 
L 3.171875 30.328125 
L 30.171875 30.328125 
L 30.171875 21.484375 
z
" id="ArialMT-2d"/>
       <path d="M 41.21875 28.078125 
L 41.21875 36.46875 
L 71.53125 36.53125 
L 71.53125 9.96875 
Q 64.546875 4.390625 57.125 1.578125 
Q 49.703125 -1.21875 41.890625 -1.21875 
Q 31.34375 -1.21875 22.71875 3.296875 
Q 14.109375 7.8125 9.71875 16.359375 
Q 5.328125 24.90625 5.328125 35.453125 
Q 5.328125 45.90625 9.6875 54.953125 
Q 14.0625 64.015625 22.265625 68.40625 
Q 30.46875 72.796875 41.15625 72.796875 
Q 48.921875 72.796875 55.1875 70.28125 
Q 61.46875 67.78125 65.03125 63.28125 
Q 68.609375 58.796875 70.453125 51.5625 
L 61.921875 49.21875 
Q 60.296875 54.6875 57.90625 57.8125 
Q 55.515625 60.9375 51.0625 62.8125 
Q 46.625 64.703125 41.21875 64.703125 
Q 34.71875 64.703125 29.984375 62.71875 
Q 25.25 60.75 22.34375 57.515625 
Q 19.4375 54.296875 17.828125 50.4375 
Q 15.09375 43.796875 15.09375 36.03125 
Q 15.09375 26.46875 18.390625 20.015625 
Q 21.6875 13.578125 27.984375 10.453125 
Q 34.28125 7.328125 41.359375 7.328125 
Q 47.515625 7.328125 53.375 9.6875 
Q 59.234375 12.0625 62.25 14.75 
L 62.25 28.078125 
z
" id="ArialMT-47"/>
      </defs>
      <g style="fill:#262626;" transform="translate(6.35555 29.857388)scale(0.056 -0.056)">
       <use xlink:href="#ArialMT-4d"/>
       <use x="83.300781" xlink:href="#ArialMT-4d"/>
       <use x="166.601562" xlink:href="#ArialMT-50"/>
       <use x="233.300781" xlink:href="#ArialMT-42"/>
       <use x="300" xlink:href="#ArialMT-53"/>
       <use x="366.699219" xlink:href="#ArialMT-41"/>
       <use x="433.398438" xlink:href="#ArialMT-2d"/>
       <use x="466.699219" xlink:href="#ArialMT-47"/>
       <use x="544.482422" xlink:href="#ArialMT-41"/>
       <use x="611.181641" xlink:href="#ArialMT-46"/>
       <use x="672.265625" xlink:href="#ArialMT-46"/>
      </g>
     </g>
    </g>
    <g id="ytick_3">
     <g id="line2d_11"/>
     <g id="text_8">
      <!-- NULL -->
      <defs>
       <path d="M 7.625 0 
L 7.625 71.578125 
L 17.328125 71.578125 
L 54.9375 15.375 
L 54.9375 71.578125 
L 64.015625 71.578125 
L 64.015625 0 
L 54.296875 0 
L 16.703125 56.25 
L 16.703125 0 
z
" id="ArialMT-4e"/>
       <path d="M 54.6875 71.578125 
L 64.15625 71.578125 
L 64.15625 30.21875 
Q 64.15625 19.4375 61.71875 13.078125 
Q 59.28125 6.734375 52.90625 2.75 
Q 46.53125 -1.21875 36.1875 -1.21875 
Q 26.125 -1.21875 19.71875 2.25 
Q 13.328125 5.71875 10.59375 12.28125 
Q 7.859375 18.84375 7.859375 30.21875 
L 7.859375 71.578125 
L 17.328125 71.578125 
L 17.328125 30.28125 
Q 17.328125 20.953125 19.0625 16.53125 
Q 20.796875 12.109375 25.015625 9.71875 
Q 29.25 7.328125 35.359375 7.328125 
Q 45.796875 7.328125 50.234375 12.0625 
Q 54.6875 16.796875 54.6875 30.28125 
z
" id="ArialMT-55"/>
       <path d="M 7.328125 0 
L 7.328125 71.578125 
L 16.796875 71.578125 
L 16.796875 8.453125 
L 52.046875 8.453125 
L 52.046875 0 
z
" id="ArialMT-4c"/>
      </defs>
      <g style="fill:#262626;" transform="translate(33.10605 47.350988)scale(0.056 -0.056)">
       <use xlink:href="#ArialMT-4e"/>
       <use x="72.216797" xlink:href="#ArialMT-55"/>
       <use x="144.433594" xlink:href="#ArialMT-4c"/>
       <use x="200.048828" xlink:href="#ArialMT-4c"/>
      </g>
     </g>
    </g>
    <g id="ytick_4">
     <g id="line2d_12"/>
     <g id="text_9">
      <!-- DFT(B3PW91)-D3 -->
      <g style="fill:#262626;" transform="translate(1.68655 64.878713)scale(0.056 -0.056)">
       <use xlink:href="#ArialMT-44"/>
       <use x="72.216797" xlink:href="#ArialMT-46"/>
       <use x="133.300781" xlink:href="#ArialMT-54"/>
       <use x="194.384766" xlink:href="#ArialMT-28"/>
       <use x="227.685547" xlink:href="#ArialMT-42"/>
       <use x="294.384766" xlink:href="#ArialMT-33"/>
       <use x="350" xlink:href="#ArialMT-50"/>
       <use x="416.699219" xlink:href="#ArialMT-57"/>
       <use x="511.083984" xlink:href="#ArialMT-39"/>
       <use x="566.699219" xlink:href="#ArialMT-31"/>
       <use x="622.314453" xlink:href="#ArialMT-29"/>
       <use x="655.615234" xlink:href="#ArialMT-2d"/>
       <use x="688.916016" xlink:href="#ArialMT-44"/>
       <use x="761.132812" xlink:href="#ArialMT-33"/>
      </g>
     </g>
    </g>
   </g>
   <g id="PolyCollection_1">
    <defs>
     <path d="M 60.293726 -79.6404 
L 60.293726 -79.640951 
L 60.624999 -79.64096 
L 60.956272 -79.640969 
L 61.287545 -79.640893 
L 61.618818 -79.640645 
L 61.950092 -79.640461 
L 62.281365 -79.640415 
L 62.612638 -79.640477 
L 62.943911 -79.640813 
L 63.275185 -79.641647 
L 63.606458 -79.642569 
L 63.937731 -79.64279 
L 64.269004 -79.642889 
L 64.600277 -79.643917 
L 64.931551 -79.644797 
L 65.262824 -79.644483 
L 65.594097 -79.643922 
L 65.92537 -79.644104 
L 66.256643 -79.645053 
L 66.587917 -79.646127 
L 66.91919 -79.647448 
L 67.250463 -79.650347 
L 67.581736 -79.655449 
L 67.913009 -79.661958 
L 68.244283 -79.669405 
L 68.575556 -79.675509 
L 68.906829 -79.678099 
L 69.238102 -79.678874 
L 69.569376 -79.677256 
L 69.900649 -79.671757 
L 70.231922 -79.668268 
L 70.563195 -79.67343 
L 70.894468 -79.686858 
L 71.225742 -79.707675 
L 71.557015 -79.738346 
L 71.888288 -79.779254 
L 72.219561 -79.823467 
L 72.550834 -79.858964 
L 72.882108 -79.872512 
L 73.213381 -79.863465 
L 73.544654 -79.846336 
L 73.875927 -79.83127 
L 74.2072 -79.828341 
L 74.538474 -79.854948 
L 74.869747 -79.923793 
L 75.20102 -80.039739 
L 75.532293 -80.192009 
L 75.863567 -80.358634 
L 76.19484 -80.523355 
L 76.526113 -80.653407 
L 76.857386 -80.707712 
L 77.188659 -80.682093 
L 77.519933 -80.605403 
L 77.851206 -80.522594 
L 78.182479 -80.493999 
L 78.513752 -80.584216 
L 78.845025 -80.825238 
L 79.176299 -81.195181 
L 79.507572 -81.652517 
L 79.838845 -82.161907 
L 80.170118 -82.626556 
L 80.501391 -82.895337 
L 80.832665 -82.894393 
L 81.163938 -82.672458 
L 81.495211 -82.345025 
L 81.826484 -82.05317 
L 82.157758 -81.93925 
L 82.489031 -82.092922 
L 82.820304 -82.554713 
L 83.151577 -83.299337 
L 83.48285 -84.172307 
L 83.814124 -84.961058 
L 84.145397 -85.51807 
L 84.47667 -85.76316 
L 84.807943 -85.648754 
L 85.139216 -85.181443 
L 85.47049 -84.482047 
L 85.801763 -83.786782 
L 86.133036 -83.309817 
L 86.464309 -83.14352 
L 86.795582 -83.311398 
L 87.126856 -83.769972 
L 87.458129 -84.357152 
L 87.789402 -84.871826 
L 88.120675 -85.173255 
L 88.451949 -85.186413 
L 88.783222 -84.90952 
L 89.114495 -84.370552 
L 89.445768 -83.598556 
L 89.777041 -82.695115 
L 90.108315 -81.825377 
L 90.439588 -81.108011 
L 90.770861 -80.567629 
L 91.102134 -80.183908 
L 91.433407 -79.933841 
L 91.764681 -79.789655 
L 92.095954 -79.713432 
L 92.427227 -79.673042 
L 92.7585 -79.653016 
L 93.089773 -79.644863 
L 93.089773 -79.6404 
L 93.089773 -79.6404 
L 92.7585 -79.6404 
L 92.427227 -79.6404 
L 92.095954 -79.6404 
L 91.764681 -79.6404 
L 91.433407 -79.6404 
L 91.102134 -79.6404 
L 90.770861 -79.6404 
L 90.439588 -79.6404 
L 90.108315 -79.6404 
L 89.777041 -79.6404 
L 89.445768 -79.6404 
L 89.114495 -79.6404 
L 88.783222 -79.6404 
L 88.451949 -79.6404 
L 88.120675 -79.6404 
L 87.789402 -79.6404 
L 87.458129 -79.6404 
L 87.126856 -79.6404 
L 86.795582 -79.6404 
L 86.464309 -79.6404 
L 86.133036 -79.6404 
L 85.801763 -79.6404 
L 85.47049 -79.6404 
L 85.139216 -79.6404 
L 84.807943 -79.6404 
L 84.47667 -79.6404 
L 84.145397 -79.6404 
L 83.814124 -79.6404 
L 83.48285 -79.6404 
L 83.151577 -79.6404 
L 82.820304 -79.6404 
L 82.489031 -79.6404 
L 82.157758 -79.6404 
L 81.826484 -79.6404 
L 81.495211 -79.6404 
L 81.163938 -79.6404 
L 80.832665 -79.6404 
L 80.501391 -79.6404 
L 80.170118 -79.6404 
L 79.838845 -79.6404 
L 79.507572 -79.6404 
L 79.176299 -79.6404 
L 78.845025 -79.6404 
L 78.513752 -79.6404 
L 78.182479 -79.6404 
L 77.851206 -79.6404 
L 77.519933 -79.6404 
L 77.188659 -79.6404 
L 76.857386 -79.6404 
L 76.526113 -79.6404 
L 76.19484 -79.6404 
L 75.863567 -79.6404 
L 75.532293 -79.6404 
L 75.20102 -79.6404 
L 74.869747 -79.6404 
L 74.538474 -79.6404 
L 74.2072 -79.6404 
L 73.875927 -79.6404 
L 73.544654 -79.6404 
L 73.213381 -79.6404 
L 72.882108 -79.6404 
L 72.550834 -79.6404 
L 72.219561 -79.6404 
L 71.888288 -79.6404 
L 71.557015 -79.6404 
L 71.225742 -79.6404 
L 70.894468 -79.6404 
L 70.563195 -79.6404 
L 70.231922 -79.6404 
L 69.900649 -79.6404 
L 69.569376 -79.6404 
L 69.238102 -79.6404 
L 68.906829 -79.6404 
L 68.575556 -79.6404 
L 68.244283 -79.6404 
L 67.913009 -79.6404 
L 67.581736 -79.6404 
L 67.250463 -79.6404 
L 66.91919 -79.6404 
L 66.587917 -79.6404 
L 66.256643 -79.6404 
L 65.92537 -79.6404 
L 65.594097 -79.6404 
L 65.262824 -79.6404 
L 64.931551 -79.6404 
L 64.600277 -79.6404 
L 64.269004 -79.6404 
L 63.937731 -79.6404 
L 63.606458 -79.6404 
L 63.275185 -79.6404 
L 62.943911 -79.6404 
L 62.612638 -79.6404 
L 62.281365 -79.6404 
L 61.950092 -79.6404 
L 61.618818 -79.6404 
L 61.287545 -79.6404 
L 60.956272 -79.6404 
L 60.624999 -79.6404 
L 60.293726 -79.6404 
z
" id="m1134a60a32" style="stroke:#3f3f3f;stroke-width:0.8;"/>
    </defs>
    <g clip-path="url(#p955fe4ab30)">
     <use style="fill:#e1b02a;stroke:#3f3f3f;stroke-width:0.8;" x="0" xlink:href="#m1134a60a32" y="90"/>
    </g>
   </g>
   <g id="PolyCollection_2">
    <defs>
     <path d="M 52.476502 -79.638623 
L 52.476502 -79.6404 
L 52.716905 -79.6404 
L 52.957308 -79.6404 
L 53.19771 -79.6404 
L 53.438113 -79.6404 
L 53.678516 -79.6404 
L 53.918919 -79.6404 
L 54.159322 -79.6404 
L 54.399725 -79.6404 
L 54.640128 -79.6404 
L 54.880531 -79.6404 
L 55.120934 -79.6404 
L 55.361337 -79.6404 
L 55.60174 -79.6404 
L 55.842143 -79.6404 
L 56.082545 -79.6404 
L 56.322948 -79.6404 
L 56.563351 -79.6404 
L 56.803754 -79.6404 
L 57.044157 -79.6404 
L 57.28456 -79.6404 
L 57.524963 -79.6404 
L 57.765366 -79.6404 
L 58.005769 -79.6404 
L 58.246172 -79.6404 
L 58.486575 -79.6404 
L 58.726978 -79.6404 
L 58.96738 -79.6404 
L 59.207783 -79.6404 
L 59.448186 -79.6404 
L 59.688589 -79.6404 
L 59.928992 -79.6404 
L 60.169395 -79.6404 
L 60.409798 -79.6404 
L 60.650201 -79.6404 
L 60.890604 -79.6404 
L 61.131007 -79.6404 
L 61.37141 -79.6404 
L 61.611812 -79.6404 
L 61.852215 -79.6404 
L 62.092618 -79.6404 
L 62.333021 -79.6404 
L 62.573424 -79.6404 
L 62.813827 -79.6404 
L 63.05423 -79.6404 
L 63.294633 -79.6404 
L 63.535036 -79.6404 
L 63.775439 -79.6404 
L 64.015842 -79.6404 
L 64.256245 -79.6404 
L 64.496647 -79.6404 
L 64.73705 -79.6404 
L 64.977453 -79.6404 
L 65.217856 -79.6404 
L 65.458259 -79.6404 
L 65.698662 -79.6404 
L 65.939065 -79.6404 
L 66.179468 -79.6404 
L 66.419871 -79.6404 
L 66.660274 -79.6404 
L 66.900677 -79.6404 
L 67.14108 -79.6404 
L 67.381482 -79.6404 
L 67.621885 -79.6404 
L 67.862288 -79.6404 
L 68.102691 -79.6404 
L 68.343094 -79.6404 
L 68.583497 -79.6404 
L 68.8239 -79.6404 
L 69.064303 -79.6404 
L 69.304706 -79.6404 
L 69.545109 -79.6404 
L 69.785512 -79.6404 
L 70.025914 -79.6404 
L 70.266317 -79.6404 
L 70.50672 -79.6404 
L 70.747123 -79.6404 
L 70.987526 -79.6404 
L 71.227929 -79.6404 
L 71.468332 -79.6404 
L 71.708735 -79.6404 
L 71.949138 -79.6404 
L 72.189541 -79.6404 
L 72.429944 -79.6404 
L 72.670347 -79.6404 
L 72.910749 -79.6404 
L 73.151152 -79.6404 
L 73.391555 -79.6404 
L 73.631958 -79.6404 
L 73.872361 -79.6404 
L 74.112764 -79.6404 
L 74.353167 -79.6404 
L 74.59357 -79.6404 
L 74.833973 -79.6404 
L 75.074376 -79.6404 
L 75.314779 -79.6404 
L 75.555181 -79.6404 
L 75.795584 -79.6404 
L 76.035987 -79.6404 
L 76.27639 -79.6404 
L 76.27639 -79.638291 
L 76.27639 -79.638291 
L 76.035987 -79.637438 
L 75.795584 -79.637676 
L 75.555181 -79.637966 
L 75.314779 -79.63739 
L 75.074376 -79.636201 
L 74.833973 -79.633567 
L 74.59357 -79.628444 
L 74.353167 -79.622681 
L 74.112764 -79.618115 
L 73.872361 -79.613971 
L 73.631958 -79.608193 
L 73.391555 -79.597266 
L 73.151152 -79.580724 
L 72.910749 -79.560631 
L 72.670347 -79.534623 
L 72.429944 -79.500133 
L 72.189541 -79.46192 
L 71.949138 -79.42417 
L 71.708735 -79.379593 
L 71.468332 -79.319847 
L 71.227929 -79.244565 
L 70.987526 -79.153006 
L 70.747123 -79.041398 
L 70.50672 -78.909668 
L 70.266317 -78.762894 
L 70.025914 -78.60086 
L 69.785512 -78.423865 
L 69.545109 -78.245358 
L 69.304706 -78.058801 
L 69.064303 -77.833554 
L 68.8239 -77.563507 
L 68.583497 -77.276914 
L 68.343094 -76.991404 
L 68.102691 -76.702903 
L 67.862288 -76.408694 
L 67.621885 -76.103016 
L 67.381482 -75.783062 
L 67.14108 -75.450196 
L 66.900677 -75.11876 
L 66.660274 -74.827594 
L 66.419871 -74.574316 
L 66.179468 -74.329937 
L 65.939065 -74.094983 
L 65.698662 -73.862281 
L 65.458259 -73.65098 
L 65.217856 -73.534473 
L 64.977453 -73.51764 
L 64.73705 -73.527053 
L 64.496647 -73.540448 
L 64.256245 -73.575154 
L 64.015842 -73.620401 
L 63.775439 -73.688693 
L 63.535036 -73.804281 
L 63.294633 -73.973133 
L 63.05423 -74.19924 
L 62.813827 -74.458943 
L 62.573424 -74.72888 
L 62.333021 -75.010057 
L 62.092618 -75.298293 
L 61.852215 -75.580039 
L 61.611812 -75.861303 
L 61.37141 -76.161487 
L 61.131007 -76.471332 
L 60.890604 -76.762851 
L 60.650201 -77.02337 
L 60.409798 -77.27212 
L 60.169395 -77.524128 
L 59.928992 -77.763262 
L 59.688589 -77.980272 
L 59.448186 -78.18019 
L 59.207783 -78.363475 
L 58.96738 -78.530568 
L 58.726978 -78.692415 
L 58.486575 -78.855946 
L 58.246172 -79.003102 
L 58.005769 -79.111217 
L 57.765366 -79.187952 
L 57.524963 -79.259824 
L 57.28456 -79.334496 
L 57.044157 -79.398129 
L 56.803754 -79.444086 
L 56.563351 -79.481231 
L 56.322948 -79.513438 
L 56.082545 -79.534576 
L 55.842143 -79.548089 
L 55.60174 -79.563606 
L 55.361337 -79.579122 
L 55.120934 -79.59165 
L 54.880531 -79.60396 
L 54.640128 -79.614509 
L 54.399725 -79.621081 
L 54.159322 -79.625373 
L 53.918919 -79.629151 
L 53.678516 -79.63265 
L 53.438113 -79.635453 
L 53.19771 -79.637535 
L 52.957308 -79.638559 
L 52.716905 -79.638514 
L 52.476502 -79.638623 
z
" id="m20e4445b75" style="stroke:#3f3f3f;stroke-width:0.8;"/>
    </defs>
    <g clip-path="url(#p955fe4ab30)">
     <use style="fill:#3274a1;stroke:#3f3f3f;stroke-width:0.8;" x="0" xlink:href="#m20e4445b75" y="90"/>
    </g>
   </g>
   <g id="PolyCollection_3">
    <defs>
     <path d="M 82.691095 -62.1468 
L 82.691095 -62.148552 
L 82.75267 -62.149656 
L 82.814245 -62.150908 
L 82.875819 -62.151972 
L 82.937394 -62.153639 
L 82.998969 -62.156976 
L 83.060544 -62.162833 
L 83.122119 -62.171837 
L 83.183694 -62.183083 
L 83.245268 -62.196938 
L 83.306843 -62.214833 
L 83.368418 -62.235467 
L 83.429993 -62.259159 
L 83.491568 -62.290772 
L 83.553143 -62.330269 
L 83.614717 -62.375595 
L 83.676292 -62.433598 
L 83.737867 -62.513138 
L 83.799442 -62.611981 
L 83.861017 -62.721503 
L 83.922592 -62.842335 
L 83.984166 -62.987276 
L 84.045741 -63.16517 
L 84.107316 -63.361554 
L 84.168891 -63.567406 
L 84.230466 -63.796937 
L 84.292041 -64.058848 
L 84.353615 -64.342826 
L 84.41519 -64.635775 
L 84.476765 -64.931978 
L 84.53834 -65.222937 
L 84.599915 -65.500556 
L 84.66149 -65.777667 
L 84.723064 -66.089568 
L 84.784639 -66.424762 
L 84.846214 -66.724058 
L 84.907789 -66.992247 
L 84.969364 -67.272488 
L 85.030939 -67.552176 
L 85.092513 -67.78261 
L 85.154088 -67.951745 
L 85.215663 -68.081608 
L 85.277238 -68.175674 
L 85.338813 -68.243021 
L 85.400388 -68.26956 
L 85.461962 -68.224623 
L 85.523537 -68.140931 
L 85.585112 -68.048316 
L 85.646687 -67.918903 
L 85.708262 -67.751539 
L 85.769837 -67.560082 
L 85.831411 -67.347581 
L 85.892986 -67.123029 
L 85.954561 -66.867248 
L 86.016136 -66.574743 
L 86.077711 -66.272408 
L 86.139286 -65.977864 
L 86.20086 -65.712017 
L 86.262435 -65.463555 
L 86.32401 -65.193235 
L 86.385585 -64.919475 
L 86.44716 -64.667644 
L 86.508735 -64.413242 
L 86.570309 -64.162146 
L 86.631884 -63.949611 
L 86.693459 -63.765311 
L 86.755034 -63.586859 
L 86.816609 -63.408193 
L 86.878184 -63.232564 
L 86.939758 -63.071349 
L 87.001333 -62.933291 
L 87.062908 -62.816139 
L 87.124483 -62.711675 
L 87.186058 -62.624623 
L 87.247632 -62.558428 
L 87.309207 -62.499857 
L 87.370782 -62.441674 
L 87.432357 -62.386096 
L 87.493932 -62.336107 
L 87.555507 -62.295046 
L 87.617081 -62.265353 
L 87.678656 -62.243363 
L 87.740231 -62.222054 
L 87.801806 -62.204054 
L 87.863381 -62.194275 
L 87.924956 -62.189521 
L 87.98653 -62.186116 
L 88.048105 -62.181716 
L 88.10968 -62.173831 
L 88.171255 -62.164818 
L 88.23283 -62.15801 
L 88.294405 -62.153898 
L 88.355979 -62.15168 
L 88.417554 -62.150683 
L 88.479129 -62.150145 
L 88.540704 -62.149438 
L 88.602279 -62.148477 
L 88.663854 -62.147892 
L 88.725428 -62.147957 
L 88.787003 -62.147918 
L 88.787003 -62.1468 
L 88.787003 -62.1468 
L 88.725428 -62.1468 
L 88.663854 -62.1468 
L 88.602279 -62.1468 
L 88.540704 -62.1468 
L 88.479129 -62.1468 
L 88.417554 -62.1468 
L 88.355979 -62.1468 
L 88.294405 -62.1468 
L 88.23283 -62.1468 
L 88.171255 -62.1468 
L 88.10968 -62.1468 
L 88.048105 -62.1468 
L 87.98653 -62.1468 
L 87.924956 -62.1468 
L 87.863381 -62.1468 
L 87.801806 -62.1468 
L 87.740231 -62.1468 
L 87.678656 -62.1468 
L 87.617081 -62.1468 
L 87.555507 -62.1468 
L 87.493932 -62.1468 
L 87.432357 -62.1468 
L 87.370782 -62.1468 
L 87.309207 -62.1468 
L 87.247632 -62.1468 
L 87.186058 -62.1468 
L 87.124483 -62.1468 
L 87.062908 -62.1468 
L 87.001333 -62.1468 
L 86.939758 -62.1468 
L 86.878184 -62.1468 
L 86.816609 -62.1468 
L 86.755034 -62.1468 
L 86.693459 -62.1468 
L 86.631884 -62.1468 
L 86.570309 -62.1468 
L 86.508735 -62.1468 
L 86.44716 -62.1468 
L 86.385585 -62.1468 
L 86.32401 -62.1468 
L 86.262435 -62.1468 
L 86.20086 -62.1468 
L 86.139286 -62.1468 
L 86.077711 -62.1468 
L 86.016136 -62.1468 
L 85.954561 -62.1468 
L 85.892986 -62.1468 
L 85.831411 -62.1468 
L 85.769837 -62.1468 
L 85.708262 -62.1468 
L 85.646687 -62.1468 
L 85.585112 -62.1468 
L 85.523537 -62.1468 
L 85.461962 -62.1468 
L 85.400388 -62.1468 
L 85.338813 -62.1468 
L 85.277238 -62.1468 
L 85.215663 -62.1468 
L 85.154088 -62.1468 
L 85.092513 -62.1468 
L 85.030939 -62.1468 
L 84.969364 -62.1468 
L 84.907789 -62.1468 
L 84.846214 -62.1468 
L 84.784639 -62.1468 
L 84.723064 -62.1468 
L 84.66149 -62.1468 
L 84.599915 -62.1468 
L 84.53834 -62.1468 
L 84.476765 -62.1468 
L 84.41519 -62.1468 
L 84.353615 -62.1468 
L 84.292041 -62.1468 
L 84.230466 -62.1468 
L 84.168891 -62.1468 
L 84.107316 -62.1468 
L 84.045741 -62.1468 
L 83.984166 -62.1468 
L 83.922592 -62.1468 
L 83.861017 -62.1468 
L 83.799442 -62.1468 
L 83.737867 -62.1468 
L 83.676292 -62.1468 
L 83.614717 -62.1468 
L 83.553143 -62.1468 
L 83.491568 -62.1468 
L 83.429993 -62.1468 
L 83.368418 -62.1468 
L 83.306843 -62.1468 
L 83.245268 -62.1468 
L 83.183694 -62.1468 
L 83.122119 -62.1468 
L 83.060544 -62.1468 
L 82.998969 -62.1468 
L 82.937394 -62.1468 
L 82.875819 -62.1468 
L 82.814245 -62.1468 
L 82.75267 -62.1468 
L 82.691095 -62.1468 
z
" id="mf9f337c2c9" style="stroke:#3f3f3f;stroke-width:0.8;"/>
    </defs>
    <g clip-path="url(#p955fe4ab30)">
     <use style="fill:#e1b02a;stroke:#3f3f3f;stroke-width:0.8;" x="0" xlink:href="#mf9f337c2c9" y="90"/>
    </g>
   </g>
   <g id="PolyCollection_4">
    <defs>
     <path d="M 88.576721 -62.144755 
L 88.576721 -62.1468 
L 88.729275 -62.1468 
L 88.881829 -62.1468 
L 89.034383 -62.1468 
L 89.186937 -62.1468 
L 89.33949 -62.1468 
L 89.492044 -62.1468 
L 89.644598 -62.1468 
L 89.797152 -62.1468 
L 89.949705 -62.1468 
L 90.102259 -62.1468 
L 90.254813 -62.1468 
L 90.407367 -62.1468 
L 90.55992 -62.1468 
L 90.712474 -62.1468 
L 90.865028 -62.1468 
L 91.017582 -62.1468 
L 91.170136 -62.1468 
L 91.322689 -62.1468 
L 91.475243 -62.1468 
L 91.627797 -62.1468 
L 91.780351 -62.1468 
L 91.932904 -62.1468 
L 92.085458 -62.1468 
L 92.238012 -62.1468 
L 92.390566 -62.1468 
L 92.543119 -62.1468 
L 92.695673 -62.1468 
L 92.848227 -62.1468 
L 93.000781 -62.1468 
L 93.153335 -62.1468 
L 93.305888 -62.1468 
L 93.458442 -62.1468 
L 93.610996 -62.1468 
L 93.76355 -62.1468 
L 93.916103 -62.1468 
L 94.068657 -62.1468 
L 94.221211 -62.1468 
L 94.373765 -62.1468 
L 94.526319 -62.1468 
L 94.678872 -62.1468 
L 94.831426 -62.1468 
L 94.98398 -62.1468 
L 95.136534 -62.1468 
L 95.289087 -62.1468 
L 95.441641 -62.1468 
L 95.594195 -62.1468 
L 95.746749 -62.1468 
L 95.899302 -62.1468 
L 96.051856 -62.1468 
L 96.20441 -62.1468 
L 96.356964 -62.1468 
L 96.509518 -62.1468 
L 96.662071 -62.1468 
L 96.814625 -62.1468 
L 96.967179 -62.1468 
L 97.119733 -62.1468 
L 97.272286 -62.1468 
L 97.42484 -62.1468 
L 97.577394 -62.1468 
L 97.729948 -62.1468 
L 97.882501 -62.1468 
L 98.035055 -62.1468 
L 98.187609 -62.1468 
L 98.340163 -62.1468 
L 98.492717 -62.1468 
L 98.64527 -62.1468 
L 98.797824 -62.1468 
L 98.950378 -62.1468 
L 99.102932 -62.1468 
L 99.255485 -62.1468 
L 99.408039 -62.1468 
L 99.560593 -62.1468 
L 99.713147 -62.1468 
L 99.865701 -62.1468 
L 100.018254 -62.1468 
L 100.170808 -62.1468 
L 100.323362 -62.1468 
L 100.475916 -62.1468 
L 100.628469 -62.1468 
L 100.781023 -62.1468 
L 100.933577 -62.1468 
L 101.086131 -62.1468 
L 101.238684 -62.1468 
L 101.391238 -62.1468 
L 101.543792 -62.1468 
L 101.696346 -62.1468 
L 101.8489 -62.1468 
L 102.001453 -62.1468 
L 102.154007 -62.1468 
L 102.306561 -62.1468 
L 102.459115 -62.1468 
L 102.611668 -62.1468 
L 102.764222 -62.1468 
L 102.916776 -62.1468 
L 103.06933 -62.1468 
L 103.221883 -62.1468 
L 103.374437 -62.1468 
L 103.526991 -62.1468 
L 103.679545 -62.1468 
L 103.679545 -62.145573 
L 103.679545 -62.145573 
L 103.526991 -62.145041 
L 103.374437 -62.144461 
L 103.221883 -62.143546 
L 103.06933 -62.142202 
L 102.916776 -62.140208 
L 102.764222 -62.137668 
L 102.611668 -62.135097 
L 102.459115 -62.132614 
L 102.306561 -62.130067 
L 102.154007 -62.126147 
L 102.001453 -62.118472 
L 101.8489 -62.106391 
L 101.696346 -62.091285 
L 101.543792 -62.072629 
L 101.391238 -62.04759 
L 101.238684 -62.016895 
L 101.086131 -61.984083 
L 100.933577 -61.94782 
L 100.781023 -61.9053 
L 100.628469 -61.853507 
L 100.475916 -61.790659 
L 100.323362 -61.721453 
L 100.170808 -61.644124 
L 100.018254 -61.55014 
L 99.865701 -61.444692 
L 99.713147 -61.335901 
L 99.560593 -61.211408 
L 99.408039 -61.060558 
L 99.255485 -60.88995 
L 99.102932 -60.705538 
L 98.950378 -60.510615 
L 98.797824 -60.308298 
L 98.64527 -60.091491 
L 98.492717 -59.844877 
L 98.340163 -59.577574 
L 98.187609 -59.325539 
L 98.035055 -59.084 
L 97.882501 -58.809406 
L 97.729948 -58.510543 
L 97.577394 -58.246527 
L 97.42484 -58.017755 
L 97.272286 -57.768449 
L 97.119733 -57.495828 
L 96.967179 -57.214375 
L 96.814625 -56.937152 
L 96.662071 -56.719114 
L 96.509518 -56.555811 
L 96.356964 -56.395417 
L 96.20441 -56.253255 
L 96.051856 -56.151814 
L 95.899302 -56.079568 
L 95.746749 -56.034387 
L 95.594195 -56.02404 
L 95.441641 -56.063067 
L 95.289087 -56.158327 
L 95.136534 -56.284468 
L 94.98398 -56.413924 
L 94.831426 -56.54864 
L 94.678872 -56.711769 
L 94.526319 -56.924792 
L 94.373765 -57.178509 
L 94.221211 -57.441801 
L 94.068657 -57.705024 
L 93.916103 -57.990323 
L 93.76355 -58.30201 
L 93.610996 -58.614899 
L 93.458442 -58.914195 
L 93.305888 -59.199519 
L 93.153335 -59.486006 
L 93.000781 -59.771009 
L 92.848227 -60.02935 
L 92.695673 -60.265444 
L 92.543119 -60.490281 
L 92.390566 -60.692418 
L 92.238012 -60.87012 
L 92.085458 -61.037064 
L 91.932904 -61.198552 
L 91.780351 -61.349715 
L 91.627797 -61.488408 
L 91.475243 -61.611825 
L 91.322689 -61.710392 
L 91.170136 -61.784343 
L 91.017582 -61.848452 
L 90.865028 -61.910604 
L 90.712474 -61.964309 
L 90.55992 -62.006128 
L 90.407367 -62.038056 
L 90.254813 -62.062134 
L 90.102259 -62.08103 
L 89.949705 -62.09705 
L 89.797152 -62.111349 
L 89.644598 -62.123407 
L 89.492044 -62.132114 
L 89.33949 -62.137038 
L 89.186937 -62.139338 
L 89.034383 -62.14093 
L 88.881829 -62.142349 
L 88.729275 -62.143535 
L 88.576721 -62.144755 
z
" id="m5060f7190a" style="stroke:#3f3f3f;stroke-width:0.8;"/>
    </defs>
    <g clip-path="url(#p955fe4ab30)">
     <use style="fill:#3274a1;stroke:#3f3f3f;stroke-width:0.8;" x="0" xlink:href="#m5060f7190a" y="90"/>
    </g>
   </g>
   <g id="PolyCollection_5">
    <defs>
     <path d="M 99.121556 -44.6532 
L 99.121556 -44.656851 
L 99.239615 -44.659138 
L 99.357673 -44.660204 
L 99.475731 -44.66072 
L 99.59379 -44.663112 
L 99.711848 -44.668094 
L 99.829906 -44.674678 
L 99.947965 -44.682686 
L 100.066023 -44.692348 
L 100.184081 -44.704343 
L 100.30214 -44.721821 
L 100.420198 -44.747427 
L 100.538256 -44.778673 
L 100.656315 -44.815002 
L 100.774373 -44.860529 
L 100.892431 -44.914216 
L 101.01049 -44.97004 
L 101.128548 -45.030493 
L 101.246606 -45.10965 
L 101.364664 -45.213313 
L 101.482723 -45.335918 
L 101.600781 -45.472019 
L 101.718839 -45.618187 
L 101.836898 -45.777047 
L 101.954956 -45.950394 
L 102.073014 -46.140336 
L 102.191073 -46.361272 
L 102.309131 -46.625338 
L 102.427189 -46.91593 
L 102.545248 -47.207729 
L 102.663306 -47.507554 
L 102.781364 -47.826304 
L 102.899423 -48.145181 
L 103.017481 -48.444429 
L 103.135539 -48.724999 
L 103.253598 -48.995985 
L 103.371656 -49.279065 
L 103.489714 -49.59047 
L 103.607773 -49.887997 
L 103.725831 -50.118716 
L 103.843889 -50.292131 
L 103.961948 -50.438164 
L 104.080006 -50.567882 
L 104.198064 -50.673618 
L 104.316123 -50.731195 
L 104.434181 -50.751244 
L 104.552239 -50.771894 
L 104.670298 -50.77596 
L 104.788356 -50.720857 
L 104.906414 -50.587253 
L 105.024472 -50.382777 
L 105.142531 -50.16063 
L 105.260589 -49.954589 
L 105.378647 -49.740838 
L 105.496706 -49.491836 
L 105.614764 -49.218 
L 105.732822 -48.945511 
L 105.850881 -48.681303 
L 105.968939 -48.401227 
L 106.086997 -48.081262 
L 106.205056 -47.755397 
L 106.323114 -47.475665 
L 106.441172 -47.235129 
L 106.559231 -46.99507 
L 106.677289 -46.754191 
L 106.795347 -46.531734 
L 106.913406 -46.326414 
L 107.031464 -46.122976 
L 107.149522 -45.920756 
L 107.267581 -45.740503 
L 107.385639 -45.59481 
L 107.503697 -45.472383 
L 107.621756 -45.357846 
L 107.739814 -45.254301 
L 107.857872 -45.169108 
L 107.975931 -45.098821 
L 108.093989 -45.036151 
L 108.212047 -44.973784 
L 108.330105 -44.913122 
L 108.448164 -44.863525 
L 108.566222 -44.825334 
L 108.68428 -44.792079 
L 108.802339 -44.762952 
L 108.920397 -44.739427 
L 109.038455 -44.721234 
L 109.156514 -44.706958 
L 109.274572 -44.694818 
L 109.39263 -44.684669 
L 109.510689 -44.678853 
L 109.628747 -44.676613 
L 109.746805 -44.673474 
L 109.864864 -44.668564 
L 109.982922 -44.663962 
L 110.10098 -44.660655 
L 110.219039 -44.65854 
L 110.337097 -44.657022 
L 110.455155 -44.655545 
L 110.573214 -44.654553 
L 110.691272 -44.654428 
L 110.80933 -44.654372 
L 110.80933 -44.6532 
L 110.80933 -44.6532 
L 110.691272 -44.6532 
L 110.573214 -44.6532 
L 110.455155 -44.6532 
L 110.337097 -44.6532 
L 110.219039 -44.6532 
L 110.10098 -44.6532 
L 109.982922 -44.6532 
L 109.864864 -44.6532 
L 109.746805 -44.6532 
L 109.628747 -44.6532 
L 109.510689 -44.6532 
L 109.39263 -44.6532 
L 109.274572 -44.6532 
L 109.156514 -44.6532 
L 109.038455 -44.6532 
L 108.920397 -44.6532 
L 108.802339 -44.6532 
L 108.68428 -44.6532 
L 108.566222 -44.6532 
L 108.448164 -44.6532 
L 108.330105 -44.6532 
L 108.212047 -44.6532 
L 108.093989 -44.6532 
L 107.975931 -44.6532 
L 107.857872 -44.6532 
L 107.739814 -44.6532 
L 107.621756 -44.6532 
L 107.503697 -44.6532 
L 107.385639 -44.6532 
L 107.267581 -44.6532 
L 107.149522 -44.6532 
L 107.031464 -44.6532 
L 106.913406 -44.6532 
L 106.795347 -44.6532 
L 106.677289 -44.6532 
L 106.559231 -44.6532 
L 106.441172 -44.6532 
L 106.323114 -44.6532 
L 106.205056 -44.6532 
L 106.086997 -44.6532 
L 105.968939 -44.6532 
L 105.850881 -44.6532 
L 105.732822 -44.6532 
L 105.614764 -44.6532 
L 105.496706 -44.6532 
L 105.378647 -44.6532 
L 105.260589 -44.6532 
L 105.142531 -44.6532 
L 105.024472 -44.6532 
L 104.906414 -44.6532 
L 104.788356 -44.6532 
L 104.670298 -44.6532 
L 104.552239 -44.6532 
L 104.434181 -44.6532 
L 104.316123 -44.6532 
L 104.198064 -44.6532 
L 104.080006 -44.6532 
L 103.961948 -44.6532 
L 103.843889 -44.6532 
L 103.725831 -44.6532 
L 103.607773 -44.6532 
L 103.489714 -44.6532 
L 103.371656 -44.6532 
L 103.253598 -44.6532 
L 103.135539 -44.6532 
L 103.017481 -44.6532 
L 102.899423 -44.6532 
L 102.781364 -44.6532 
L 102.663306 -44.6532 
L 102.545248 -44.6532 
L 102.427189 -44.6532 
L 102.309131 -44.6532 
L 102.191073 -44.6532 
L 102.073014 -44.6532 
L 101.954956 -44.6532 
L 101.836898 -44.6532 
L 101.718839 -44.6532 
L 101.600781 -44.6532 
L 101.482723 -44.6532 
L 101.364664 -44.6532 
L 101.246606 -44.6532 
L 101.128548 -44.6532 
L 101.01049 -44.6532 
L 100.892431 -44.6532 
L 100.774373 -44.6532 
L 100.656315 -44.6532 
L 100.538256 -44.6532 
L 100.420198 -44.6532 
L 100.30214 -44.6532 
L 100.184081 -44.6532 
L 100.066023 -44.6532 
L 99.947965 -44.6532 
L 99.829906 -44.6532 
L 99.711848 -44.6532 
L 99.59379 -44.6532 
L 99.475731 -44.6532 
L 99.357673 -44.6532 
L 99.239615 -44.6532 
L 99.121556 -44.6532 
z
" id="me0d5b4e74f" style="stroke:#3f3f3f;stroke-width:0.8;"/>
    </defs>
    <g clip-path="url(#p955fe4ab30)">
     <use style="fill:#e1b02a;stroke:#3f3f3f;stroke-width:0.8;" x="0" xlink:href="#me0d5b4e74f" y="90"/>
    </g>
   </g>
   <g id="PolyCollection_6">
    <defs>
     <path d="M 78.640589 -44.652595 
L 78.640589 -44.6532 
L 78.895048 -44.6532 
L 79.149506 -44.6532 
L 79.403964 -44.6532 
L 79.658423 -44.6532 
L 79.912881 -44.6532 
L 80.16734 -44.6532 
L 80.421798 -44.6532 
L 80.676257 -44.6532 
L 80.930715 -44.6532 
L 81.185173 -44.6532 
L 81.439632 -44.6532 
L 81.69409 -44.6532 
L 81.948549 -44.6532 
L 82.203007 -44.6532 
L 82.457466 -44.6532 
L 82.711924 -44.6532 
L 82.966383 -44.6532 
L 83.220841 -44.6532 
L 83.475299 -44.6532 
L 83.729758 -44.6532 
L 83.984216 -44.6532 
L 84.238675 -44.6532 
L 84.493133 -44.6532 
L 84.747592 -44.6532 
L 85.00205 -44.6532 
L 85.256508 -44.6532 
L 85.510967 -44.6532 
L 85.765425 -44.6532 
L 86.019884 -44.6532 
L 86.274342 -44.6532 
L 86.528801 -44.6532 
L 86.783259 -44.6532 
L 87.037718 -44.6532 
L 87.292176 -44.6532 
L 87.546634 -44.6532 
L 87.801093 -44.6532 
L 88.055551 -44.6532 
L 88.31001 -44.6532 
L 88.564468 -44.6532 
L 88.818927 -44.6532 
L 89.073385 -44.6532 
L 89.327844 -44.6532 
L 89.582302 -44.6532 
L 89.83676 -44.6532 
L 90.091219 -44.6532 
L 90.345677 -44.6532 
L 90.600136 -44.6532 
L 90.854594 -44.6532 
L 91.109053 -44.6532 
L 91.363511 -44.6532 
L 91.617969 -44.6532 
L 91.872428 -44.6532 
L 92.126886 -44.6532 
L 92.381345 -44.6532 
L 92.635803 -44.6532 
L 92.890262 -44.6532 
L 93.14472 -44.6532 
L 93.399179 -44.6532 
L 93.653637 -44.6532 
L 93.908095 -44.6532 
L 94.162554 -44.6532 
L 94.417012 -44.6532 
L 94.671471 -44.6532 
L 94.925929 -44.6532 
L 95.180388 -44.6532 
L 95.434846 -44.6532 
L 95.689305 -44.6532 
L 95.943763 -44.6532 
L 96.198221 -44.6532 
L 96.45268 -44.6532 
L 96.707138 -44.6532 
L 96.961597 -44.6532 
L 97.216055 -44.6532 
L 97.470514 -44.6532 
L 97.724972 -44.6532 
L 97.97943 -44.6532 
L 98.233889 -44.6532 
L 98.488347 -44.6532 
L 98.742806 -44.6532 
L 98.997264 -44.6532 
L 99.251723 -44.6532 
L 99.506181 -44.6532 
L 99.76064 -44.6532 
L 100.015098 -44.6532 
L 100.269556 -44.6532 
L 100.524015 -44.6532 
L 100.778473 -44.6532 
L 101.032932 -44.6532 
L 101.28739 -44.6532 
L 101.541849 -44.6532 
L 101.796307 -44.6532 
L 102.050765 -44.6532 
L 102.305224 -44.6532 
L 102.559682 -44.6532 
L 102.814141 -44.6532 
L 103.068599 -44.6532 
L 103.323058 -44.6532 
L 103.577516 -44.6532 
L 103.831975 -44.6532 
L 103.831975 -44.651212 
L 103.831975 -44.651212 
L 103.577516 -44.650427 
L 103.323058 -44.64985 
L 103.068599 -44.649104 
L 102.814141 -44.648499 
L 102.559682 -44.646724 
L 102.305224 -44.642623 
L 102.050765 -44.635325 
L 101.796307 -44.622484 
L 101.541849 -44.605316 
L 101.28739 -44.583989 
L 101.032932 -44.552321 
L 100.778473 -44.511211 
L 100.524015 -44.463028 
L 100.269556 -44.395905 
L 100.015098 -44.292381 
L 99.76064 -44.158683 
L 99.506181 -44.010612 
L 99.251723 -43.830786 
L 98.997264 -43.591293 
L 98.742806 -43.304107 
L 98.488347 -43.027283 
L 98.233889 -42.772216 
L 97.97943 -42.435856 
L 97.724972 -41.961762 
L 97.470514 -41.483458 
L 97.216055 -41.109536 
L 96.961597 -40.753491 
L 96.707138 -40.315477 
L 96.45268 -39.811922 
L 96.198221 -39.399164 
L 95.943763 -39.196775 
L 95.689305 -39.072485 
L 95.434846 -38.833212 
L 95.180388 -38.567835 
L 94.925929 -38.53044 
L 94.671471 -38.660934 
L 94.417012 -38.6964 
L 94.162554 -38.630847 
L 93.908095 -38.670065 
L 93.653637 -38.896523 
L 93.399179 -39.169685 
L 93.14472 -39.322211 
L 92.890262 -39.41849 
L 92.635803 -39.630906 
L 92.381345 -39.983378 
L 92.126886 -40.341093 
L 91.872428 -40.608595 
L 91.617969 -40.855178 
L 91.363511 -41.143275 
L 91.109053 -41.465577 
L 90.854594 -41.762482 
L 90.600136 -41.968032 
L 90.345677 -42.159688 
L 90.091219 -42.430316 
L 89.83676 -42.703442 
L 89.582302 -42.881547 
L 89.327844 -43.016239 
L 89.073385 -43.202856 
L 88.818927 -43.441476 
L 88.564468 -43.637435 
L 88.31001 -43.758436 
L 88.055551 -43.85741 
L 87.801093 -43.956264 
L 87.546634 -44.038654 
L 87.292176 -44.093455 
L 87.037718 -44.140953 
L 86.783259 -44.21327 
L 86.528801 -44.307757 
L 86.274342 -44.38475 
L 86.019884 -44.426956 
L 85.765425 -44.456494 
L 85.510967 -44.487986 
L 85.256508 -44.513712 
L 85.00205 -44.530207 
L 84.747592 -44.544894 
L 84.493133 -44.567848 
L 84.238675 -44.595256 
L 83.984216 -44.614981 
L 83.729758 -44.623318 
L 83.475299 -44.62501 
L 83.220841 -44.628086 
L 82.966383 -44.633805 
L 82.711924 -44.636582 
L 82.457466 -44.636199 
L 82.203007 -44.63819 
L 81.948549 -44.643191 
L 81.69409 -44.647385 
L 81.439632 -44.649038 
L 81.185173 -44.649667 
L 80.930715 -44.650321 
L 80.676257 -44.6509 
L 80.421798 -44.651284 
L 80.16734 -44.651321 
L 79.912881 -44.6514 
L 79.658423 -44.651788 
L 79.403964 -44.652404 
L 79.149506 -44.652833 
L 78.895048 -44.652758 
L 78.640589 -44.652595 
z
" id="mba64b04b23" style="stroke:#3f3f3f;stroke-width:0.8;"/>
    </defs>
    <g clip-path="url(#p955fe4ab30)">
     <use style="fill:#3274a1;stroke:#3f3f3f;stroke-width:0.8;" x="0" xlink:href="#mba64b04b23" y="90"/>
    </g>
   </g>
   <g id="PolyCollection_7">
    <defs>
     <path d="M 93.462032 -27.1596 
L 93.462032 -27.160172 
L 93.737858 -27.160249 
L 94.013683 -27.160168 
L 94.289509 -27.159936 
L 94.565334 -27.159712 
L 94.841159 -27.159619 
L 95.116985 -27.159602 
L 95.39281 -27.1596 
L 95.668636 -27.159605 
L 95.944461 -27.159652 
L 96.220287 -27.159872 
L 96.496112 -27.160479 
L 96.771938 -27.161577 
L 97.047763 -27.162911 
L 97.323588 -27.163749 
L 97.599414 -27.163722 
L 97.875239 -27.163376 
L 98.151065 -27.16313 
L 98.42689 -27.162766 
L 98.702716 -27.162473 
L 98.978541 -27.163396 
L 99.254366 -27.166466 
L 99.530192 -27.171845 
L 99.806017 -27.179162 
L 100.081843 -27.186703 
L 100.357668 -27.193093 
L 100.633494 -27.198048 
L 100.909319 -27.198977 
L 101.185144 -27.193758 
L 101.46097 -27.185782 
L 101.736795 -27.179487 
L 102.012621 -27.17668 
L 102.288446 -27.180312 
L 102.564272 -27.194777 
L 102.840097 -27.224142 
L 103.115923 -27.267382 
L 103.391748 -27.314541 
L 103.667573 -27.353845 
L 103.943399 -27.376024 
L 104.219224 -27.376196 
L 104.49505 -27.358052 
L 104.770875 -27.328912 
L 105.046701 -27.300112 
L 105.322526 -27.287668 
L 105.598351 -27.309217 
L 105.874177 -27.380642 
L 106.150002 -27.506227 
L 106.425828 -27.675325 
L 106.701653 -27.865171 
L 106.977479 -28.043532 
L 107.253304 -28.166512 
L 107.529129 -28.18659 
L 107.804955 -28.106126 
L 108.08078 -27.975633 
L 108.356606 -27.841761 
L 108.632431 -27.748566 
L 108.908257 -27.757924 
L 109.184082 -27.932733 
L 109.459908 -28.293517 
L 109.735733 -28.795237 
L 110.011558 -29.351582 
L 110.287384 -29.862251 
L 110.563209 -30.2113 
L 110.839035 -30.303327 
L 111.11486 -30.124581 
L 111.390686 -29.749382 
L 111.666511 -29.308024 
L 111.942336 -28.955742 
L 112.218162 -28.837494 
L 112.493987 -29.056636 
L 112.769813 -29.65052 
L 113.045638 -30.543308 
L 113.321464 -31.562177 
L 113.597289 -32.495145 
L 113.873114 -33.119575 
L 114.14894 -33.28236 
L 114.424765 -32.960703 
L 114.700591 -32.253212 
L 114.976416 -31.358894 
L 115.252242 -30.514161 
L 115.528067 -29.916529 
L 115.803893 -29.700628 
L 116.079718 -29.931983 
L 116.355543 -30.542006 
L 116.631369 -31.329505 
L 116.907194 -32.079504 
L 117.18302 -32.612451 
L 117.458845 -32.784634 
L 117.734671 -32.527546 
L 118.010496 -31.880712 
L 118.286321 -30.96688 
L 118.562147 -29.959385 
L 118.837972 -29.045271 
L 119.113798 -28.333272 
L 119.389623 -27.834159 
L 119.665449 -27.514138 
L 119.941274 -27.32913 
L 120.217099 -27.233152 
L 120.492925 -27.187716 
L 120.76875 -27.168551 
L 120.76875 -27.1596 
L 120.76875 -27.1596 
L 120.492925 -27.1596 
L 120.217099 -27.1596 
L 119.941274 -27.1596 
L 119.665449 -27.1596 
L 119.389623 -27.1596 
L 119.113798 -27.1596 
L 118.837972 -27.1596 
L 118.562147 -27.1596 
L 118.286321 -27.1596 
L 118.010496 -27.1596 
L 117.734671 -27.1596 
L 117.458845 -27.1596 
L 117.18302 -27.1596 
L 116.907194 -27.1596 
L 116.631369 -27.1596 
L 116.355543 -27.1596 
L 116.079718 -27.1596 
L 115.803893 -27.1596 
L 115.528067 -27.1596 
L 115.252242 -27.1596 
L 114.976416 -27.1596 
L 114.700591 -27.1596 
L 114.424765 -27.1596 
L 114.14894 -27.1596 
L 113.873114 -27.1596 
L 113.597289 -27.1596 
L 113.321464 -27.1596 
L 113.045638 -27.1596 
L 112.769813 -27.1596 
L 112.493987 -27.1596 
L 112.218162 -27.1596 
L 111.942336 -27.1596 
L 111.666511 -27.1596 
L 111.390686 -27.1596 
L 111.11486 -27.1596 
L 110.839035 -27.1596 
L 110.563209 -27.1596 
L 110.287384 -27.1596 
L 110.011558 -27.1596 
L 109.735733 -27.1596 
L 109.459908 -27.1596 
L 109.184082 -27.1596 
L 108.908257 -27.1596 
L 108.632431 -27.1596 
L 108.356606 -27.1596 
L 108.08078 -27.1596 
L 107.804955 -27.1596 
L 107.529129 -27.1596 
L 107.253304 -27.1596 
L 106.977479 -27.1596 
L 106.701653 -27.1596 
L 106.425828 -27.1596 
L 106.150002 -27.1596 
L 105.874177 -27.1596 
L 105.598351 -27.1596 
L 105.322526 -27.1596 
L 105.046701 -27.1596 
L 104.770875 -27.1596 
L 104.49505 -27.1596 
L 104.219224 -27.1596 
L 103.943399 -27.1596 
L 103.667573 -27.1596 
L 103.391748 -27.1596 
L 103.115923 -27.1596 
L 102.840097 -27.1596 
L 102.564272 -27.1596 
L 102.288446 -27.1596 
L 102.012621 -27.1596 
L 101.736795 -27.1596 
L 101.46097 -27.1596 
L 101.185144 -27.1596 
L 100.909319 -27.1596 
L 100.633494 -27.1596 
L 100.357668 -27.1596 
L 100.081843 -27.1596 
L 99.806017 -27.1596 
L 99.530192 -27.1596 
L 99.254366 -27.1596 
L 98.978541 -27.1596 
L 98.702716 -27.1596 
L 98.42689 -27.1596 
L 98.151065 -27.1596 
L 97.875239 -27.1596 
L 97.599414 -27.1596 
L 97.323588 -27.1596 
L 97.047763 -27.1596 
L 96.771938 -27.1596 
L 96.496112 -27.1596 
L 96.220287 -27.1596 
L 95.944461 -27.1596 
L 95.668636 -27.1596 
L 95.39281 -27.1596 
L 95.116985 -27.1596 
L 94.841159 -27.1596 
L 94.565334 -27.1596 
L 94.289509 -27.1596 
L 94.013683 -27.1596 
L 93.737858 -27.1596 
L 93.462032 -27.1596 
z
" id="m220ddfd3f2" style="stroke:#3f3f3f;stroke-width:0.8;"/>
    </defs>
    <g clip-path="url(#p955fe4ab30)">
     <use style="fill:#e1b02a;stroke:#3f3f3f;stroke-width:0.8;" x="0" xlink:href="#m220ddfd3f2" y="90"/>
    </g>
   </g>
   <g id="PolyCollection_8">
    <defs>
     <path d="M 95.991105 -27.158446 
L 95.991105 -27.1596 
L 96.326609 -27.1596 
L 96.662113 -27.1596 
L 96.997618 -27.1596 
L 97.333122 -27.1596 
L 97.668626 -27.1596 
L 98.00413 -27.1596 
L 98.339635 -27.1596 
L 98.675139 -27.1596 
L 99.010643 -27.1596 
L 99.346147 -27.1596 
L 99.681652 -27.1596 
L 100.017156 -27.1596 
L 100.35266 -27.1596 
L 100.688164 -27.1596 
L 101.023669 -27.1596 
L 101.359173 -27.1596 
L 101.694677 -27.1596 
L 102.030181 -27.1596 
L 102.365686 -27.1596 
L 102.70119 -27.1596 
L 103.036694 -27.1596 
L 103.372198 -27.1596 
L 103.707703 -27.1596 
L 104.043207 -27.1596 
L 104.378711 -27.1596 
L 104.714215 -27.1596 
L 105.04972 -27.1596 
L 105.385224 -27.1596 
L 105.720728 -27.1596 
L 106.056232 -27.1596 
L 106.391737 -27.1596 
L 106.727241 -27.1596 
L 107.062745 -27.1596 
L 107.398249 -27.1596 
L 107.733753 -27.1596 
L 108.069258 -27.1596 
L 108.404762 -27.1596 
L 108.740266 -27.1596 
L 109.07577 -27.1596 
L 109.411275 -27.1596 
L 109.746779 -27.1596 
L 110.082283 -27.1596 
L 110.417787 -27.1596 
L 110.753292 -27.1596 
L 111.088796 -27.1596 
L 111.4243 -27.1596 
L 111.759804 -27.1596 
L 112.095309 -27.1596 
L 112.430813 -27.1596 
L 112.766317 -27.1596 
L 113.101821 -27.1596 
L 113.437326 -27.1596 
L 113.77283 -27.1596 
L 114.108334 -27.1596 
L 114.443838 -27.1596 
L 114.779343 -27.1596 
L 115.114847 -27.1596 
L 115.450351 -27.1596 
L 115.785855 -27.1596 
L 116.12136 -27.1596 
L 116.456864 -27.1596 
L 116.792368 -27.1596 
L 117.127872 -27.1596 
L 117.463377 -27.1596 
L 117.798881 -27.1596 
L 118.134385 -27.1596 
L 118.469889 -27.1596 
L 118.805393 -27.1596 
L 119.140898 -27.1596 
L 119.476402 -27.1596 
L 119.811906 -27.1596 
L 120.14741 -27.1596 
L 120.482915 -27.1596 
L 120.818419 -27.1596 
L 121.153923 -27.1596 
L 121.489427 -27.1596 
L 121.824932 -27.1596 
L 122.160436 -27.1596 
L 122.49594 -27.1596 
L 122.831444 -27.1596 
L 123.166949 -27.1596 
L 123.502453 -27.1596 
L 123.837957 -27.1596 
L 124.173461 -27.1596 
L 124.508966 -27.1596 
L 124.84447 -27.1596 
L 125.179974 -27.1596 
L 125.515478 -27.1596 
L 125.850983 -27.1596 
L 126.186487 -27.1596 
L 126.521991 -27.1596 
L 126.857495 -27.1596 
L 127.193 -27.1596 
L 127.528504 -27.1596 
L 127.864008 -27.1596 
L 128.199512 -27.1596 
L 128.535017 -27.1596 
L 128.870521 -27.1596 
L 129.206025 -27.1596 
L 129.206025 -27.158321 
L 129.206025 -27.158321 
L 128.870521 -27.157661 
L 128.535017 -27.157189 
L 128.199512 -27.156404 
L 127.864008 -27.154359 
L 127.528504 -27.150953 
L 127.193 -27.147427 
L 126.857495 -27.144449 
L 126.521991 -27.140707 
L 126.186487 -27.134866 
L 125.850983 -27.125653 
L 125.515478 -27.112028 
L 125.179974 -27.095001 
L 124.84447 -27.077113 
L 124.508966 -27.057411 
L 124.173461 -27.029631 
L 123.837957 -26.991025 
L 123.502453 -26.946175 
L 123.166949 -26.891646 
L 122.831444 -26.820134 
L 122.49594 -26.743479 
L 122.160436 -26.676757 
L 121.824932 -26.60854 
L 121.489427 -26.514196 
L 121.153923 -26.386681 
L 120.818419 -26.240494 
L 120.482915 -26.092772 
L 120.14741 -25.942164 
L 119.811906 -25.768832 
L 119.476402 -25.552869 
L 119.140898 -25.291657 
L 118.805393 -25.000254 
L 118.469889 -24.711748 
L 118.134385 -24.44976 
L 117.798881 -24.187789 
L 117.463377 -23.907773 
L 117.127872 -23.623765 
L 116.792368 -23.340987 
L 116.456864 -23.067142 
L 116.12136 -22.784396 
L 115.785855 -22.462875 
L 115.450351 -22.1055 
L 115.114847 -21.768272 
L 114.779343 -21.529928 
L 114.443838 -21.393537 
L 114.108334 -21.285803 
L 113.77283 -21.174428 
L 113.437326 -21.087821 
L 113.101821 -21.038901 
L 112.766317 -21.03684 
L 112.430813 -21.075972 
L 112.095309 -21.109279 
L 111.759804 -21.151925 
L 111.4243 -21.260201 
L 111.088796 -21.438864 
L 110.753292 -21.674967 
L 110.417787 -21.958427 
L 110.082283 -22.241874 
L 109.746779 -22.494171 
L 109.411275 -22.750859 
L 109.07577 -23.032116 
L 108.740266 -23.316537 
L 108.404762 -23.589305 
L 108.069258 -23.870522 
L 107.733753 -24.184345 
L 107.398249 -24.501137 
L 107.062745 -24.779933 
L 106.727241 -25.032466 
L 106.391737 -25.28556 
L 106.056232 -25.527189 
L 105.720728 -25.729935 
L 105.385224 -25.899668 
L 105.04972 -26.063775 
L 104.714215 -26.2243 
L 104.378711 -26.366198 
L 104.043207 -26.485241 
L 103.707703 -26.59023 
L 103.372198 -26.688861 
L 103.036694 -26.773741 
L 102.70119 -26.839272 
L 102.365686 -26.889938 
L 102.030181 -26.933613 
L 101.694677 -26.973463 
L 101.359173 -27.006625 
L 101.023669 -27.035969 
L 100.688164 -27.065409 
L 100.35266 -27.091322 
L 100.017156 -27.109684 
L 99.681652 -27.120173 
L 99.346147 -27.123649 
L 99.010643 -27.125045 
L 98.675139 -27.130135 
L 98.339635 -27.138682 
L 98.00413 -27.146901 
L 97.668626 -27.152049 
L 97.333122 -27.154038 
L 96.997618 -27.154522 
L 96.662113 -27.15557 
L 96.326609 -27.157269 
L 95.991105 -27.158446 
z
" id="m9dd891a9d1" style="stroke:#3f3f3f;stroke-width:0.8;"/>
    </defs>
    <g clip-path="url(#p955fe4ab30)">
     <use style="fill:#3274a1;stroke:#3f3f3f;stroke-width:0.8;" x="0" xlink:href="#m9dd891a9d1" y="90"/>
    </g>
   </g>
   <g id="patch_3">
    <path clip-path="url(#p955fe4ab30)" d="M 79.15445 10.3596 
L 79.15445 10.3596 
L 79.15445 10.3596 
L 79.15445 10.3596 
z
" style="fill:#e1b02a;stroke:#3f3f3f;stroke-linejoin:miter;stroke-width:0.4;"/>
   </g>
   <g id="patch_4">
    <path clip-path="url(#p955fe4ab30)" d="M 79.15445 10.3596 
L 79.15445 10.3596 
L 79.15445 10.3596 
L 79.15445 10.3596 
z
" style="fill:#3274a1;stroke:#3f3f3f;stroke-linejoin:miter;stroke-width:0.4;"/>
   </g>
   <g id="line2d_13">
    <path clip-path="url(#p955fe4ab30)" d="M 52.476502 10.3596 
L 93.089773 10.3596 
" style="fill:none;stroke:#3f3f3f;stroke-linecap:round;stroke-width:0.8;"/>
   </g>
   <g id="line2d_14">
    <path clip-path="url(#p955fe4ab30)" d="M 64.513601 10.3596 
L 84.879127 10.3596 
" style="fill:none;stroke:#3f3f3f;stroke-linecap:round;stroke-width:2.4;"/>
   </g>
   <g id="line2d_15">
    <path clip-path="url(#p955fe4ab30)" d="M 82.691095 27.8532 
L 103.679545 27.8532 
" style="fill:none;stroke:#3f3f3f;stroke-linecap:round;stroke-width:0.8;"/>
   </g>
   <g id="line2d_16">
    <path clip-path="url(#p955fe4ab30)" d="M 85.43953 27.8532 
L 95.711957 27.8532 
" style="fill:none;stroke:#3f3f3f;stroke-linecap:round;stroke-width:2.4;"/>
   </g>
   <g id="line2d_17">
    <path clip-path="url(#p955fe4ab30)" d="M 78.640589 45.3468 
L 110.80933 45.3468 
" style="fill:none;stroke:#3f3f3f;stroke-linecap:round;stroke-width:0.8;"/>
   </g>
   <g id="line2d_18">
    <path clip-path="url(#p955fe4ab30)" d="M 94.116668 45.3468 
L 104.512683 45.3468 
" style="fill:none;stroke:#3f3f3f;stroke-linecap:round;stroke-width:2.4;"/>
   </g>
   <g id="line2d_19">
    <path clip-path="url(#p955fe4ab30)" d="M 102.584981 62.8404 
L 124.718258 62.8404 
" style="fill:none;stroke:#3f3f3f;stroke-linecap:round;stroke-width:0.8;"/>
   </g>
   <g id="line2d_20">
    <path clip-path="url(#p955fe4ab30)" d="M 110.884733 62.8404 
L 116.418195 62.8404 
" style="fill:none;stroke:#3f3f3f;stroke-linecap:round;stroke-width:2.4;"/>
   </g>
   <g id="line2d_21">
    <path clip-path="url(#p955fe4ab30)" d="M 84.536287 8.1729 
L 84.536287 8.128273 
L 84.536287 8.083647 
L 84.536287 8.03902 
L 84.536287 7.994394 
L 84.536287 7.949767 
L 84.536287 7.905141 
L 84.536287 7.860514 
L 84.536287 7.815888 
L 84.536287 7.771261 
L 84.536287 7.726635 
L 84.536287 7.682008 
L 84.536287 7.637382 
L 84.536287 7.592755 
L 84.536287 7.548129 
L 84.536287 7.503502 
L 84.536287 7.458876 
L 84.536287 7.414249 
L 84.536287 7.369622 
L 84.536287 7.324996 
L 84.536287 7.280369 
L 84.536287 7.235743 
L 84.536287 7.191116 
L 84.536287 7.14649 
L 84.536287 7.101863 
L 84.536287 7.057237 
L 84.536287 7.01261 
L 84.536287 6.967984 
L 84.536287 6.923357 
L 84.536287 6.878731 
L 84.536287 6.834104 
L 84.536287 6.789478 
L 84.536287 6.744851 
L 84.536287 6.700224 
L 84.536287 6.655598 
L 84.536287 6.610971 
L 84.536287 6.566345 
L 84.536287 6.521718 
L 84.536287 6.477092 
L 84.536287 6.432465 
L 84.536287 6.387839 
L 84.536287 6.343212 
L 84.536287 6.298586 
L 84.536287 6.253959 
L 84.536287 6.209333 
L 84.536287 6.164706 
L 84.536287 6.12008 
L 84.536287 6.075453 
L 84.536287 6.030827 
L 84.536287 5.9862 
" style="fill:none;stroke:#ffffff;stroke-linecap:round;stroke-width:2;"/>
   </g>
   <g id="line2d_22">
    <path clip-path="url(#p955fe4ab30)" d="M 84.536287 8.1729 
L 84.536287 8.128273 
L 84.536287 8.083647 
L 84.536287 8.03902 
L 84.536287 7.994394 
L 84.536287 7.949767 
L 84.536287 7.905141 
L 84.536287 7.860514 
L 84.536287 7.815888 
L 84.536287 7.771261 
L 84.536287 7.726635 
L 84.536287 7.682008 
L 84.536287 7.637382 
L 84.536287 7.592755 
L 84.536287 7.548129 
L 84.536287 7.503502 
L 84.536287 7.458876 
L 84.536287 7.414249 
L 84.536287 7.369622 
L 84.536287 7.324996 
L 84.536287 7.280369 
L 84.536287 7.235743 
L 84.536287 7.191116 
L 84.536287 7.14649 
L 84.536287 7.101863 
L 84.536287 7.057237 
L 84.536287 7.01261 
L 84.536287 6.967984 
L 84.536287 6.923357 
L 84.536287 6.878731 
L 84.536287 6.834104 
L 84.536287 6.789478 
L 84.536287 6.744851 
L 84.536287 6.700224 
L 84.536287 6.655598 
L 84.536287 6.610971 
L 84.536287 6.566345 
L 84.536287 6.521718 
L 84.536287 6.477092 
L 84.536287 6.432465 
L 84.536287 6.387839 
L 84.536287 6.343212 
L 84.536287 6.298586 
L 84.536287 6.253959 
L 84.536287 6.209333 
L 84.536287 6.164706 
L 84.536287 6.12008 
L 84.536287 6.075453 
L 84.536287 6.030827 
L 84.536287 5.9862 
" style="fill:none;opacity:0.85;stroke:#000000;stroke-linecap:round;stroke-width:1.8;"/>
   </g>
   <g id="line2d_23">
    <path clip-path="url(#p955fe4ab30)" d="M 64.482674 12.5463 
L 64.482674 12.590927 
L 64.482674 12.635553 
L 64.482674 12.68018 
L 64.482674 12.724806 
L 64.482674 12.769433 
L 64.482674 12.814059 
L 64.482674 12.858686 
L 64.482674 12.903312 
L 64.482674 12.947939 
L 64.482674 12.992565 
L 64.482674 13.037192 
L 64.482674 13.081818 
L 64.482674 13.126445 
L 64.482674 13.171071 
L 64.482674 13.215698 
L 64.482674 13.260324 
L 64.482674 13.304951 
L 64.482674 13.349578 
L 64.482674 13.394204 
L 64.482674 13.438831 
L 64.482674 13.483457 
L 64.482674 13.528084 
L 64.482674 13.57271 
L 64.482674 13.617337 
L 64.482674 13.661963 
L 64.482674 13.70659 
L 64.482674 13.751216 
L 64.482674 13.795843 
L 64.482674 13.840469 
L 64.482674 13.885096 
L 64.482674 13.929722 
L 64.482674 13.974349 
L 64.482674 14.018976 
L 64.482674 14.063602 
L 64.482674 14.108229 
L 64.482674 14.152855 
L 64.482674 14.197482 
L 64.482674 14.242108 
L 64.482674 14.286735 
L 64.482674 14.331361 
L 64.482674 14.375988 
L 64.482674 14.420614 
L 64.482674 14.465241 
L 64.482674 14.509867 
L 64.482674 14.554494 
L 64.482674 14.59912 
L 64.482674 14.643747 
L 64.482674 14.688373 
L 64.482674 14.733 
" style="fill:none;stroke:#ffffff;stroke-linecap:round;stroke-width:2;"/>
   </g>
   <g id="line2d_24">
    <path clip-path="url(#p955fe4ab30)" d="M 64.482674 12.5463 
L 64.482674 12.590927 
L 64.482674 12.635553 
L 64.482674 12.68018 
L 64.482674 12.724806 
L 64.482674 12.769433 
L 64.482674 12.814059 
L 64.482674 12.858686 
L 64.482674 12.903312 
L 64.482674 12.947939 
L 64.482674 12.992565 
L 64.482674 13.037192 
L 64.482674 13.081818 
L 64.482674 13.126445 
L 64.482674 13.171071 
L 64.482674 13.215698 
L 64.482674 13.260324 
L 64.482674 13.304951 
L 64.482674 13.349578 
L 64.482674 13.394204 
L 64.482674 13.438831 
L 64.482674 13.483457 
L 64.482674 13.528084 
L 64.482674 13.57271 
L 64.482674 13.617337 
L 64.482674 13.661963 
L 64.482674 13.70659 
L 64.482674 13.751216 
L 64.482674 13.795843 
L 64.482674 13.840469 
L 64.482674 13.885096 
L 64.482674 13.929722 
L 64.482674 13.974349 
L 64.482674 14.018976 
L 64.482674 14.063602 
L 64.482674 14.108229 
L 64.482674 14.152855 
L 64.482674 14.197482 
L 64.482674 14.242108 
L 64.482674 14.286735 
L 64.482674 14.331361 
L 64.482674 14.375988 
L 64.482674 14.420614 
L 64.482674 14.465241 
L 64.482674 14.509867 
L 64.482674 14.554494 
L 64.482674 14.59912 
L 64.482674 14.643747 
L 64.482674 14.688373 
L 64.482674 14.733 
" style="fill:none;opacity:0.85;stroke:#000000;stroke-linecap:round;stroke-width:1.8;"/>
   </g>
   <g id="line2d_25">
    <path clip-path="url(#p955fe4ab30)" d="M 85.459715 25.6665 
L 85.459715 25.621873 
L 85.459715 25.577247 
L 85.459715 25.53262 
L 85.459715 25.487994 
L 85.459715 25.443367 
L 85.459715 25.398741 
L 85.459715 25.354114 
L 85.459715 25.309488 
L 85.459715 25.264861 
L 85.459715 25.220235 
L 85.459715 25.175608 
L 85.459715 25.130982 
L 85.459715 25.086355 
L 85.459715 25.041729 
L 85.459715 24.997102 
L 85.459715 24.952476 
L 85.459715 24.907849 
L 85.459715 24.863222 
L 85.459715 24.818596 
L 85.459715 24.773969 
L 85.459715 24.729343 
L 85.459715 24.684716 
L 85.459715 24.64009 
L 85.459715 24.595463 
L 85.459715 24.550837 
L 85.459715 24.50621 
L 85.459715 24.461584 
L 85.459715 24.416957 
L 85.459715 24.372331 
L 85.459715 24.327704 
L 85.459715 24.283078 
L 85.459715 24.238451 
L 85.459715 24.193824 
L 85.459715 24.149198 
L 85.459715 24.104571 
L 85.459715 24.059945 
L 85.459715 24.015318 
L 85.459715 23.970692 
L 85.459715 23.926065 
L 85.459715 23.881439 
L 85.459715 23.836812 
L 85.459715 23.792186 
L 85.459715 23.747559 
L 85.459715 23.702933 
L 85.459715 23.658306 
L 85.459715 23.61368 
L 85.459715 23.569053 
L 85.459715 23.524427 
L 85.459715 23.4798 
" style="fill:none;stroke:#ffffff;stroke-linecap:round;stroke-width:2;"/>
   </g>
   <g id="line2d_26">
    <path clip-path="url(#p955fe4ab30)" d="M 85.459715 25.6665 
L 85.459715 25.621873 
L 85.459715 25.577247 
L 85.459715 25.53262 
L 85.459715 25.487994 
L 85.459715 25.443367 
L 85.459715 25.398741 
L 85.459715 25.354114 
L 85.459715 25.309488 
L 85.459715 25.264861 
L 85.459715 25.220235 
L 85.459715 25.175608 
L 85.459715 25.130982 
L 85.459715 25.086355 
L 85.459715 25.041729 
L 85.459715 24.997102 
L 85.459715 24.952476 
L 85.459715 24.907849 
L 85.459715 24.863222 
L 85.459715 24.818596 
L 85.459715 24.773969 
L 85.459715 24.729343 
L 85.459715 24.684716 
L 85.459715 24.64009 
L 85.459715 24.595463 
L 85.459715 24.550837 
L 85.459715 24.50621 
L 85.459715 24.461584 
L 85.459715 24.416957 
L 85.459715 24.372331 
L 85.459715 24.327704 
L 85.459715 24.283078 
L 85.459715 24.238451 
L 85.459715 24.193824 
L 85.459715 24.149198 
L 85.459715 24.104571 
L 85.459715 24.059945 
L 85.459715 24.015318 
L 85.459715 23.970692 
L 85.459715 23.926065 
L 85.459715 23.881439 
L 85.459715 23.836812 
L 85.459715 23.792186 
L 85.459715 23.747559 
L 85.459715 23.702933 
L 85.459715 23.658306 
L 85.459715 23.61368 
L 85.459715 23.569053 
L 85.459715 23.524427 
L 85.459715 23.4798 
" style="fill:none;opacity:0.85;stroke:#000000;stroke-linecap:round;stroke-width:1.8;"/>
   </g>
   <g id="line2d_27">
    <path clip-path="url(#p955fe4ab30)" d="M 95.738017 30.0399 
L 95.738017 30.084527 
L 95.738017 30.129153 
L 95.738017 30.17378 
L 95.738017 30.218406 
L 95.738017 30.263033 
L 95.738017 30.307659 
L 95.738017 30.352286 
L 95.738017 30.396912 
L 95.738017 30.441539 
L 95.738017 30.486165 
L 95.738017 30.530792 
L 95.738017 30.575418 
L 95.738017 30.620045 
L 95.738017 30.664671 
L 95.738017 30.709298 
L 95.738017 30.753924 
L 95.738017 30.798551 
L 95.738017 30.843178 
L 95.738017 30.887804 
L 95.738017 30.932431 
L 95.738017 30.977057 
L 95.738017 31.021684 
L 95.738017 31.06631 
L 95.738017 31.110937 
L 95.738017 31.155563 
L 95.738017 31.20019 
L 95.738017 31.244816 
L 95.738017 31.289443 
L 95.738017 31.334069 
L 95.738017 31.378696 
L 95.738017 31.423322 
L 95.738017 31.467949 
L 95.738017 31.512576 
L 95.738017 31.557202 
L 95.738017 31.601829 
L 95.738017 31.646455 
L 95.738017 31.691082 
L 95.738017 31.735708 
L 95.738017 31.780335 
L 95.738017 31.824961 
L 95.738017 31.869588 
L 95.738017 31.914214 
L 95.738017 31.958841 
L 95.738017 32.003467 
L 95.738017 32.048094 
L 95.738017 32.09272 
L 95.738017 32.137347 
L 95.738017 32.181973 
L 95.738017 32.2266 
" style="fill:none;stroke:#ffffff;stroke-linecap:round;stroke-width:2;"/>
   </g>
   <g id="line2d_28">
    <path clip-path="url(#p955fe4ab30)" d="M 95.738017 30.0399 
L 95.738017 30.084527 
L 95.738017 30.129153 
L 95.738017 30.17378 
L 95.738017 30.218406 
L 95.738017 30.263033 
L 95.738017 30.307659 
L 95.738017 30.352286 
L 95.738017 30.396912 
L 95.738017 30.441539 
L 95.738017 30.486165 
L 95.738017 30.530792 
L 95.738017 30.575418 
L 95.738017 30.620045 
L 95.738017 30.664671 
L 95.738017 30.709298 
L 95.738017 30.753924 
L 95.738017 30.798551 
L 95.738017 30.843178 
L 95.738017 30.887804 
L 95.738017 30.932431 
L 95.738017 30.977057 
L 95.738017 31.021684 
L 95.738017 31.06631 
L 95.738017 31.110937 
L 95.738017 31.155563 
L 95.738017 31.20019 
L 95.738017 31.244816 
L 95.738017 31.289443 
L 95.738017 31.334069 
L 95.738017 31.378696 
L 95.738017 31.423322 
L 95.738017 31.467949 
L 95.738017 31.512576 
L 95.738017 31.557202 
L 95.738017 31.601829 
L 95.738017 31.646455 
L 95.738017 31.691082 
L 95.738017 31.735708 
L 95.738017 31.780335 
L 95.738017 31.824961 
L 95.738017 31.869588 
L 95.738017 31.914214 
L 95.738017 31.958841 
L 95.738017 32.003467 
L 95.738017 32.048094 
L 95.738017 32.09272 
L 95.738017 32.137347 
L 95.738017 32.181973 
L 95.738017 32.2266 
" style="fill:none;opacity:0.85;stroke:#000000;stroke-linecap:round;stroke-width:1.8;"/>
   </g>
   <g id="line2d_29">
    <path clip-path="url(#p955fe4ab30)" d="M 104.538543 43.1601 
L 104.538543 43.115473 
L 104.538543 43.070847 
L 104.538543 43.02622 
L 104.538543 42.981594 
L 104.538543 42.936967 
L 104.538543 42.892341 
L 104.538543 42.847714 
L 104.538543 42.803088 
L 104.538543 42.758461 
L 104.538543 42.713835 
L 104.538543 42.669208 
L 104.538543 42.624582 
L 104.538543 42.579955 
L 104.538543 42.535329 
L 104.538543 42.490702 
L 104.538543 42.446076 
L 104.538543 42.401449 
L 104.538543 42.356822 
L 104.538543 42.312196 
L 104.538543 42.267569 
L 104.538543 42.222943 
L 104.538543 42.178316 
L 104.538543 42.13369 
L 104.538543 42.089063 
L 104.538543 42.044437 
L 104.538543 41.99981 
L 104.538543 41.955184 
L 104.538543 41.910557 
L 104.538543 41.865931 
L 104.538543 41.821304 
L 104.538543 41.776678 
L 104.538543 41.732051 
L 104.538543 41.687424 
L 104.538543 41.642798 
L 104.538543 41.598171 
L 104.538543 41.553545 
L 104.538543 41.508918 
L 104.538543 41.464292 
L 104.538543 41.419665 
L 104.538543 41.375039 
L 104.538543 41.330412 
L 104.538543 41.285786 
L 104.538543 41.241159 
L 104.538543 41.196533 
L 104.538543 41.151906 
L 104.538543 41.10728 
L 104.538543 41.062653 
L 104.538543 41.018027 
L 104.538543 40.9734 
" style="fill:none;stroke:#ffffff;stroke-linecap:round;stroke-width:2;"/>
   </g>
   <g id="line2d_30">
    <path clip-path="url(#p955fe4ab30)" d="M 104.538543 43.1601 
L 104.538543 43.115473 
L 104.538543 43.070847 
L 104.538543 43.02622 
L 104.538543 42.981594 
L 104.538543 42.936967 
L 104.538543 42.892341 
L 104.538543 42.847714 
L 104.538543 42.803088 
L 104.538543 42.758461 
L 104.538543 42.713835 
L 104.538543 42.669208 
L 104.538543 42.624582 
L 104.538543 42.579955 
L 104.538543 42.535329 
L 104.538543 42.490702 
L 104.538543 42.446076 
L 104.538543 42.401449 
L 104.538543 42.356822 
L 104.538543 42.312196 
L 104.538543 42.267569 
L 104.538543 42.222943 
L 104.538543 42.178316 
L 104.538543 42.13369 
L 104.538543 42.089063 
L 104.538543 42.044437 
L 104.538543 41.99981 
L 104.538543 41.955184 
L 104.538543 41.910557 
L 104.538543 41.865931 
L 104.538543 41.821304 
L 104.538543 41.776678 
L 104.538543 41.732051 
L 104.538543 41.687424 
L 104.538543 41.642798 
L 104.538543 41.598171 
L 104.538543 41.553545 
L 104.538543 41.508918 
L 104.538543 41.464292 
L 104.538543 41.419665 
L 104.538543 41.375039 
L 104.538543 41.330412 
L 104.538543 41.285786 
L 104.538543 41.241159 
L 104.538543 41.196533 
L 104.538543 41.151906 
L 104.538543 41.10728 
L 104.538543 41.062653 
L 104.538543 41.018027 
L 104.538543 40.9734 
" style="fill:none;opacity:0.85;stroke:#000000;stroke-linecap:round;stroke-width:1.8;"/>
   </g>
   <g id="line2d_31">
    <path clip-path="url(#p955fe4ab30)" d="M 93.89694 47.5335 
L 93.89694 47.578127 
L 93.89694 47.622753 
L 93.89694 47.66738 
L 93.89694 47.712006 
L 93.89694 47.756633 
L 93.89694 47.801259 
L 93.89694 47.845886 
L 93.89694 47.890512 
L 93.89694 47.935139 
L 93.89694 47.979765 
L 93.89694 48.024392 
L 93.89694 48.069018 
L 93.89694 48.113645 
L 93.89694 48.158271 
L 93.89694 48.202898 
L 93.89694 48.247524 
L 93.89694 48.292151 
L 93.89694 48.336778 
L 93.89694 48.381404 
L 93.89694 48.426031 
L 93.89694 48.470657 
L 93.89694 48.515284 
L 93.89694 48.55991 
L 93.89694 48.604537 
L 93.89694 48.649163 
L 93.89694 48.69379 
L 93.89694 48.738416 
L 93.89694 48.783043 
L 93.89694 48.827669 
L 93.89694 48.872296 
L 93.89694 48.916922 
L 93.89694 48.961549 
L 93.89694 49.006176 
L 93.89694 49.050802 
L 93.89694 49.095429 
L 93.89694 49.140055 
L 93.89694 49.184682 
L 93.89694 49.229308 
L 93.89694 49.273935 
L 93.89694 49.318561 
L 93.89694 49.363188 
L 93.89694 49.407814 
L 93.89694 49.452441 
L 93.89694 49.497067 
L 93.89694 49.541694 
L 93.89694 49.58632 
L 93.89694 49.630947 
L 93.89694 49.675573 
L 93.89694 49.7202 
" style="fill:none;stroke:#ffffff;stroke-linecap:round;stroke-width:2;"/>
   </g>
   <g id="line2d_32">
    <path clip-path="url(#p955fe4ab30)" d="M 93.89694 47.5335 
L 93.89694 47.578127 
L 93.89694 47.622753 
L 93.89694 47.66738 
L 93.89694 47.712006 
L 93.89694 47.756633 
L 93.89694 47.801259 
L 93.89694 47.845886 
L 93.89694 47.890512 
L 93.89694 47.935139 
L 93.89694 47.979765 
L 93.89694 48.024392 
L 93.89694 48.069018 
L 93.89694 48.113645 
L 93.89694 48.158271 
L 93.89694 48.202898 
L 93.89694 48.247524 
L 93.89694 48.292151 
L 93.89694 48.336778 
L 93.89694 48.381404 
L 93.89694 48.426031 
L 93.89694 48.470657 
L 93.89694 48.515284 
L 93.89694 48.55991 
L 93.89694 48.604537 
L 93.89694 48.649163 
L 93.89694 48.69379 
L 93.89694 48.738416 
L 93.89694 48.783043 
L 93.89694 48.827669 
L 93.89694 48.872296 
L 93.89694 48.916922 
L 93.89694 48.961549 
L 93.89694 49.006176 
L 93.89694 49.050802 
L 93.89694 49.095429 
L 93.89694 49.140055 
L 93.89694 49.184682 
L 93.89694 49.229308 
L 93.89694 49.273935 
L 93.89694 49.318561 
L 93.89694 49.363188 
L 93.89694 49.407814 
L 93.89694 49.452441 
L 93.89694 49.497067 
L 93.89694 49.541694 
L 93.89694 49.58632 
L 93.89694 49.630947 
L 93.89694 49.675573 
L 93.89694 49.7202 
" style="fill:none;opacity:0.85;stroke:#000000;stroke-linecap:round;stroke-width:1.8;"/>
   </g>
   <g id="line2d_33">
    <path clip-path="url(#p955fe4ab30)" d="M 114.11783 60.6537 
L 114.11783 60.609073 
L 114.11783 60.564447 
L 114.11783 60.51982 
L 114.11783 60.475194 
L 114.11783 60.430567 
L 114.11783 60.385941 
L 114.11783 60.341314 
L 114.11783 60.296688 
L 114.11783 60.252061 
L 114.11783 60.207435 
L 114.11783 60.162808 
L 114.11783 60.118182 
L 114.11783 60.073555 
L 114.11783 60.028929 
L 114.11783 59.984302 
L 114.11783 59.939676 
L 114.11783 59.895049 
L 114.11783 59.850422 
L 114.11783 59.805796 
L 114.11783 59.761169 
L 114.11783 59.716543 
L 114.11783 59.671916 
L 114.11783 59.62729 
L 114.11783 59.582663 
L 114.11783 59.538037 
L 114.11783 59.49341 
L 114.11783 59.448784 
L 114.11783 59.404157 
L 114.11783 59.359531 
L 114.11783 59.314904 
L 114.11783 59.270278 
L 114.11783 59.225651 
L 114.11783 59.181024 
L 114.11783 59.136398 
L 114.11783 59.091771 
L 114.11783 59.047145 
L 114.11783 59.002518 
L 114.11783 58.957892 
L 114.11783 58.913265 
L 114.11783 58.868639 
L 114.11783 58.824012 
L 114.11783 58.779386 
L 114.11783 58.734759 
L 114.11783 58.690133 
L 114.11783 58.645506 
L 114.11783 58.60088 
L 114.11783 58.556253 
L 114.11783 58.511627 
L 114.11783 58.467 
" style="fill:none;stroke:#ffffff;stroke-linecap:round;stroke-width:2;"/>
   </g>
   <g id="line2d_34">
    <path clip-path="url(#p955fe4ab30)" d="M 114.11783 60.6537 
L 114.11783 60.609073 
L 114.11783 60.564447 
L 114.11783 60.51982 
L 114.11783 60.475194 
L 114.11783 60.430567 
L 114.11783 60.385941 
L 114.11783 60.341314 
L 114.11783 60.296688 
L 114.11783 60.252061 
L 114.11783 60.207435 
L 114.11783 60.162808 
L 114.11783 60.118182 
L 114.11783 60.073555 
L 114.11783 60.028929 
L 114.11783 59.984302 
L 114.11783 59.939676 
L 114.11783 59.895049 
L 114.11783 59.850422 
L 114.11783 59.805796 
L 114.11783 59.761169 
L 114.11783 59.716543 
L 114.11783 59.671916 
L 114.11783 59.62729 
L 114.11783 59.582663 
L 114.11783 59.538037 
L 114.11783 59.49341 
L 114.11783 59.448784 
L 114.11783 59.404157 
L 114.11783 59.359531 
L 114.11783 59.314904 
L 114.11783 59.270278 
L 114.11783 59.225651 
L 114.11783 59.181024 
L 114.11783 59.136398 
L 114.11783 59.091771 
L 114.11783 59.047145 
L 114.11783 59.002518 
L 114.11783 58.957892 
L 114.11783 58.913265 
L 114.11783 58.868639 
L 114.11783 58.824012 
L 114.11783 58.779386 
L 114.11783 58.734759 
L 114.11783 58.690133 
L 114.11783 58.645506 
L 114.11783 58.60088 
L 114.11783 58.556253 
L 114.11783 58.511627 
L 114.11783 58.467 
" style="fill:none;opacity:0.85;stroke:#000000;stroke-linecap:round;stroke-width:1.8;"/>
   </g>
   <g id="line2d_35">
    <path clip-path="url(#p955fe4ab30)" d="M 112.750593 65.0271 
L 112.750593 65.071727 
L 112.750593 65.116353 
L 112.750593 65.16098 
L 112.750593 65.205606 
L 112.750593 65.250233 
L 112.750593 65.294859 
L 112.750593 65.339486 
L 112.750593 65.384112 
L 112.750593 65.428739 
L 112.750593 65.473365 
L 112.750593 65.517992 
L 112.750593 65.562618 
L 112.750593 65.607245 
L 112.750593 65.651871 
L 112.750593 65.696498 
L 112.750593 65.741124 
L 112.750593 65.785751 
L 112.750593 65.830378 
L 112.750593 65.875004 
L 112.750593 65.919631 
L 112.750593 65.964257 
L 112.750593 66.008884 
L 112.750593 66.05351 
L 112.750593 66.098137 
L 112.750593 66.142763 
L 112.750593 66.18739 
L 112.750593 66.232016 
L 112.750593 66.276643 
L 112.750593 66.321269 
L 112.750593 66.365896 
L 112.750593 66.410522 
L 112.750593 66.455149 
L 112.750593 66.499776 
L 112.750593 66.544402 
L 112.750593 66.589029 
L 112.750593 66.633655 
L 112.750593 66.678282 
L 112.750593 66.722908 
L 112.750593 66.767535 
L 112.750593 66.812161 
L 112.750593 66.856788 
L 112.750593 66.901414 
L 112.750593 66.946041 
L 112.750593 66.990667 
L 112.750593 67.035294 
L 112.750593 67.07992 
L 112.750593 67.124547 
L 112.750593 67.169173 
L 112.750593 67.2138 
" style="fill:none;stroke:#ffffff;stroke-linecap:round;stroke-width:2;"/>
   </g>
   <g id="line2d_36">
    <path clip-path="url(#p955fe4ab30)" d="M 112.750593 65.0271 
L 112.750593 65.071727 
L 112.750593 65.116353 
L 112.750593 65.16098 
L 112.750593 65.205606 
L 112.750593 65.250233 
L 112.750593 65.294859 
L 112.750593 65.339486 
L 112.750593 65.384112 
L 112.750593 65.428739 
L 112.750593 65.473365 
L 112.750593 65.517992 
L 112.750593 65.562618 
L 112.750593 65.607245 
L 112.750593 65.651871 
L 112.750593 65.696498 
L 112.750593 65.741124 
L 112.750593 65.785751 
L 112.750593 65.830378 
L 112.750593 65.875004 
L 112.750593 65.919631 
L 112.750593 65.964257 
L 112.750593 66.008884 
L 112.750593 66.05351 
L 112.750593 66.098137 
L 112.750593 66.142763 
L 112.750593 66.18739 
L 112.750593 66.232016 
L 112.750593 66.276643 
L 112.750593 66.321269 
L 112.750593 66.365896 
L 112.750593 66.410522 
L 112.750593 66.455149 
L 112.750593 66.499776 
L 112.750593 66.544402 
L 112.750593 66.589029 
L 112.750593 66.633655 
L 112.750593 66.678282 
L 112.750593 66.722908 
L 112.750593 66.767535 
L 112.750593 66.812161 
L 112.750593 66.856788 
L 112.750593 66.901414 
L 112.750593 66.946041 
L 112.750593 66.990667 
L 112.750593 67.035294 
L 112.750593 67.07992 
L 112.750593 67.124547 
L 112.750593 67.169173 
L 112.750593 67.2138 
" style="fill:none;opacity:0.85;stroke:#000000;stroke-linecap:round;stroke-width:1.8;"/>
   </g>
   <g id="patch_5">
    <path d="M 49.4228 71.5872 
L 49.4228 1.6128 
" style="fill:none;stroke:#cccccc;stroke-linecap:square;stroke-linejoin:miter;"/>
   </g>
   <g id="patch_6">
    <path d="M 128.7072 71.5872 
L 128.7072 1.6128 
" style="fill:none;stroke:#cccccc;stroke-linecap:square;stroke-linejoin:miter;"/>
   </g>
   <g id="patch_7">
    <path d="M 49.4228 71.5872 
L 128.7072 71.5872 
" style="fill:none;stroke:#cccccc;stroke-linecap:square;stroke-linejoin:miter;"/>
   </g>
   <g id="patch_8">
    <path d="M 49.4228 1.6128 
L 128.7072 1.6128 
" style="fill:none;stroke:#cccccc;stroke-linecap:square;stroke-linejoin:miter;"/>
   </g>
   <g id="PathCollection_1">
    <defs>
     <path d="M 0 0.8 
C 0.212162 0.8 0.415664 0.715707 0.565685 0.565685 
C 0.715707 0.415664 0.8 0.212162 0.8 0 
C 0.8 -0.212162 0.715707 -0.415664 0.565685 -0.565685 
C 0.415664 -0.715707 0.212162 -0.8 0 -0.8 
C -0.212162 -0.8 -0.415664 -0.715707 -0.565685 -0.565685 
C -0.715707 -0.415664 -0.8 -0.212162 -0.8 0 
C -0.8 0.212162 -0.715707 0.415664 -0.565685 0.565685 
C -0.415664 0.715707 -0.212162 0.8 0 0.8 
z
" id="mbabd7dc9fa" style="stroke:#3f3f3f;stroke-width:0.24;"/>
    </defs>
    <g clip-path="url(#p955fe4ab30)">
     <use style="fill:#ffffff;stroke:#3f3f3f;stroke-width:0.24;" x="71.957111" xlink:href="#mbabd7dc9fa" y="10.3596"/>
    </g>
   </g>
   <g id="PathCollection_2">
    <g clip-path="url(#p955fe4ab30)">
     <use style="fill:#ffffff;stroke:#3f3f3f;stroke-width:0.24;" x="88.7098" xlink:href="#mbabd7dc9fa" y="27.8532"/>
    </g>
   </g>
   <g id="PathCollection_3">
    <g clip-path="url(#p955fe4ab30)">
     <use style="fill:#ffffff;stroke:#3f3f3f;stroke-width:0.24;" x="100.624476" xlink:href="#mbabd7dc9fa" y="45.3468"/>
    </g>
   </g>
   <g id="PathCollection_4">
    <g clip-path="url(#p955fe4ab30)">
     <use style="fill:#ffffff;stroke:#3f3f3f;stroke-width:0.24;" x="113.810436" xlink:href="#mbabd7dc9fa" y="62.8404"/>
    </g>
   </g>
  </g>
 </g>
 <defs>
  <clipPath id="p955fe4ab30">
   <rect height="69.9744" width="79.2844" x="49.4228" y="1.6128"/>
  </clipPath>
 </defs>
</svg>
