<?xml version="1.0" encoding="utf-8" standalone="no"?>
<!DOCTYPE svg PUBLIC "-//W3C//DTD SVG 1.1//EN"
  "http://www.w3.org/Graphics/SVG/1.1/DTD/svg11.dtd">
<!-- Created with matplotlib (http://matplotlib.org/) -->
<svg height="90pt" version="1.1" viewBox="0 0 130.32 90" width="130.32pt" xmlns="http://www.w3.org/2000/svg" xmlns:xlink="http://www.w3.org/1999/xlink">
 <defs>
  <style type="text/css">
*{stroke-linecap:butt;stroke-linejoin:round;}
  </style>
 </defs>
 <g id="figure_1">
  <g id="patch_1">
   <path d="M 0 90 
L 130.32 90 
L 130.32 0 
L 0 0 
z
" style="fill:#ffffff;"/>
  </g>
  <g id="axes_1">
   <g id="patch_2">
    <path d="M 49.4228 71.5872 
L 125.6022 71.5872 
L 125.6022 1.6128 
L 49.4228 1.6128 
z
" style="fill:#ffffff;"/>
   </g>
   <g id="matplotlib.axis_1">
    <g id="xtick_1">
     <g id="line2d_1">
      <path clip-path="url(#p421045112e)" d="M 49.4228 71.5872 
L 49.4228 1.6128 
" style="fill:none;stroke:#cccccc;stroke-linecap:round;stroke-width:0.8;"/>
     </g>
     <g id="line2d_2"/>
     <g id="text_1">
      <!-- 0 -->
      <defs>
       <path d="M 4.15625 35.296875 
Q 4.15625 48 6.765625 55.734375 
Q 9.375 63.484375 14.515625 67.671875 
Q 19.671875 71.875 27.484375 71.875 
Q 33.25 71.875 37.59375 69.546875 
Q 41.9375 67.234375 44.765625 62.859375 
Q 47.609375 58.5 49.21875 52.21875 
Q 50.828125 45.953125 50.828125 35.296875 
Q 50.828125 22.703125 48.234375 14.96875 
Q 45.65625 7.234375 40.5 3 
Q 35.359375 -1.21875 27.484375 -1.21875 
Q 17.140625 -1.21875 11.234375 6.203125 
Q 4.15625 15.140625 4.15625 35.296875 
z
M 13.1875 35.296875 
Q 13.1875 17.671875 17.3125 11.828125 
Q 21.4375 6 27.484375 6 
Q 33.546875 6 37.671875 11.859375 
Q 41.796875 17.71875 41.796875 35.296875 
Q 41.796875 52.984375 37.671875 58.78125 
Q 33.546875 64.59375 27.390625 64.59375 
Q 21.34375 64.59375 17.71875 59.46875 
Q 13.1875 52.9375 13.1875 35.296875 
z
" id="ArialMT-30"/>
      </defs>
      <g style="fill:#262626;" transform="translate(47.865737 77.595575)scale(0.056 -0.056)">
       <use xlink:href="#ArialMT-30"/>
      </g>
     </g>
    </g>
    <g id="xtick_2">
     <g id="line2d_3">
      <path clip-path="url(#p421045112e)" d="M 64.65868 71.5872 
L 64.65868 1.6128 
" style="fill:none;stroke:#cccccc;stroke-linecap:round;stroke-width:0.8;"/>
     </g>
     <g id="line2d_4"/>
     <g id="text_2">
      <!-- 10 -->
      <defs>
       <path d="M 37.25 0 
L 28.46875 0 
L 28.46875 56 
Q 25.296875 52.984375 20.140625 49.953125 
Q 14.984375 46.921875 10.890625 45.40625 
L 10.890625 53.90625 
Q 18.265625 57.375 23.78125 62.296875 
Q 29.296875 67.234375 31.59375 71.875 
L 37.25 71.875 
z
" id="ArialMT-31"/>
      </defs>
      <g style="fill:#262626;" transform="translate(61.544555 77.595575)scale(0.056 -0.056)">
       <use xlink:href="#ArialMT-31"/>
       <use x="55.615234" xlink:href="#ArialMT-30"/>
      </g>
     </g>
    </g>
    <g id="xtick_3">
     <g id="line2d_5">
      <path clip-path="url(#p421045112e)" d="M 79.89456 71.5872 
L 79.89456 1.6128 
" style="fill:none;stroke:#cccccc;stroke-linecap:round;stroke-width:0.8;"/>
     </g>
     <g id="line2d_6"/>
     <g id="text_3">
      <!-- 20 -->
      <defs>
       <path d="M 50.34375 8.453125 
L 50.34375 0 
L 3.03125 0 
Q 2.9375 3.171875 4.046875 6.109375 
Q 5.859375 10.9375 9.828125 15.625 
Q 13.8125 20.3125 21.34375 26.46875 
Q 33.015625 36.03125 37.109375 41.625 
Q 41.21875 47.21875 41.21875 52.203125 
Q 41.21875 57.421875 37.46875 61 
Q 33.734375 64.59375 27.734375 64.59375 
Q 21.390625 64.59375 17.578125 60.78125 
Q 13.765625 56.984375 13.71875 50.25 
L 4.6875 51.171875 
Q 5.609375 61.28125 11.65625 66.578125 
Q 17.71875 71.875 27.9375 71.875 
Q 38.234375 71.875 44.234375 66.15625 
Q 50.25 60.453125 50.25 52 
Q 50.25 47.703125 48.484375 43.546875 
Q 46.734375 39.40625 42.65625 34.8125 
Q 38.578125 30.21875 29.109375 22.21875 
Q 21.1875 15.578125 18.9375 13.203125 
Q 16.703125 10.84375 15.234375 8.453125 
z
" id="ArialMT-32"/>
      </defs>
      <g style="fill:#262626;" transform="translate(76.780435 77.595575)scale(0.056 -0.056)">
       <use xlink:href="#ArialMT-32"/>
       <use x="55.615234" xlink:href="#ArialMT-30"/>
      </g>
     </g>
    </g>
    <g id="xtick_4">
     <g id="line2d_7">
      <path clip-path="url(#p421045112e)" d="M 95.13044 71.5872 
L 95.13044 1.6128 
" style="fill:none;stroke:#cccccc;stroke-linecap:round;stroke-width:0.8;"/>
     </g>
     <g id="line2d_8"/>
     <g id="text_4">
      <!-- 30 -->
      <defs>
       <path d="M 4.203125 18.890625 
L 12.984375 20.0625 
Q 14.5 12.59375 18.140625 9.296875 
Q 21.78125 6 27 6 
Q 33.203125 6 37.46875 10.296875 
Q 41.75 14.59375 41.75 20.953125 
Q 41.75 27 37.796875 30.921875 
Q 33.84375 34.859375 27.734375 34.859375 
Q 25.25 34.859375 21.53125 33.890625 
L 22.515625 41.609375 
Q 23.390625 41.5 23.921875 41.5 
Q 29.546875 41.5 34.03125 44.421875 
Q 38.53125 47.359375 38.53125 53.46875 
Q 38.53125 58.296875 35.25 61.46875 
Q 31.984375 64.65625 26.8125 64.65625 
Q 21.6875 64.65625 18.265625 61.421875 
Q 14.84375 58.203125 13.875 51.765625 
L 5.078125 53.328125 
Q 6.6875 62.15625 12.390625 67.015625 
Q 18.109375 71.875 26.609375 71.875 
Q 32.46875 71.875 37.390625 69.359375 
Q 42.328125 66.84375 44.9375 62.5 
Q 47.5625 58.15625 47.5625 53.265625 
Q 47.5625 48.640625 45.0625 44.828125 
Q 42.578125 41.015625 37.703125 38.765625 
Q 44.046875 37.3125 47.5625 32.6875 
Q 51.078125 28.078125 51.078125 21.140625 
Q 51.078125 11.765625 44.234375 5.25 
Q 37.40625 -1.265625 26.953125 -1.265625 
Q 17.53125 -1.265625 11.296875 4.34375 
Q 5.078125 9.96875 4.203125 18.890625 
z
" id="ArialMT-33"/>
      </defs>
      <g style="fill:#262626;" transform="translate(92.016315 77.595575)scale(0.056 -0.056)">
       <use xlink:href="#ArialMT-33"/>
       <use x="55.615234" xlink:href="#ArialMT-30"/>
      </g>
     </g>
    </g>
    <g id="xtick_5">
     <g id="line2d_9">
      <path clip-path="url(#p421045112e)" d="M 110.36632 71.5872 
L 110.36632 1.6128 
" style="fill:none;stroke:#cccccc;stroke-linecap:round;stroke-width:0.8;"/>
     </g>
     <g id="line2d_10"/>
     <g id="text_5">
      <!-- 40 -->
      <defs>
       <path d="M 32.328125 0 
L 32.328125 17.140625 
L 1.265625 17.140625 
L 1.265625 25.203125 
L 33.9375 71.578125 
L 41.109375 71.578125 
L 41.109375 25.203125 
L 50.78125 25.203125 
L 50.78125 17.140625 
L 41.109375 17.140625 
L 41.109375 0 
z
M 32.328125 25.203125 
L 32.328125 57.46875 
L 9.90625 25.203125 
z
" id="ArialMT-34"/>
      </defs>
      <g style="fill:#262626;" transform="translate(107.252195 77.595575)scale(0.056 -0.056)">
       <use xlink:href="#ArialMT-34"/>
       <use x="55.615234" xlink:href="#ArialMT-30"/>
      </g>
     </g>
    </g>
    <g id="xtick_6">
     <g id="line2d_11">
      <path clip-path="url(#p421045112e)" d="M 125.6022 71.5872 
L 125.6022 1.6128 
" style="fill:none;stroke:#cccccc;stroke-linecap:round;stroke-width:0.8;"/>
     </g>
     <g id="line2d_12"/>
     <g id="text_6">
      <!-- 50 -->
      <defs>
       <path d="M 4.15625 18.75 
L 13.375 19.53125 
Q 14.40625 12.796875 18.140625 9.390625 
Q 21.875 6 27.15625 6 
Q 33.5 6 37.890625 10.78125 
Q 42.28125 15.578125 42.28125 23.484375 
Q 42.28125 31 38.0625 35.34375 
Q 33.84375 39.703125 27 39.703125 
Q 22.75 39.703125 19.328125 37.765625 
Q 15.921875 35.84375 13.96875 32.765625 
L 5.71875 33.84375 
L 12.640625 70.609375 
L 48.25 70.609375 
L 48.25 62.203125 
L 19.671875 62.203125 
L 15.828125 42.96875 
Q 22.265625 47.46875 29.34375 47.46875 
Q 38.71875 47.46875 45.15625 40.96875 
Q 51.609375 34.46875 51.609375 24.265625 
Q 51.609375 14.546875 45.953125 7.46875 
Q 39.0625 -1.21875 27.15625 -1.21875 
Q 17.390625 -1.21875 11.203125 4.25 
Q 5.03125 9.71875 4.15625 18.75 
z
" id="ArialMT-35"/>
      </defs>
      <g style="fill:#262626;" transform="translate(122.488075 77.595575)scale(0.056 -0.056)">
       <use xlink:href="#ArialMT-35"/>
       <use x="55.615234" xlink:href="#ArialMT-30"/>
      </g>
     </g>
    </g>
    <g id="text_7">
     <!-- RMSE [kcal/mol] -->
     <defs>
      <path d="M 7.859375 0 
L 7.859375 71.578125 
L 39.59375 71.578125 
Q 49.171875 71.578125 54.140625 69.640625 
Q 59.125 67.71875 62.109375 62.828125 
Q 65.09375 57.953125 65.09375 52.046875 
Q 65.09375 44.4375 60.15625 39.203125 
Q 55.21875 33.984375 44.921875 32.5625 
Q 48.6875 30.765625 50.640625 29 
Q 54.78125 25.203125 58.5 19.484375 
L 70.953125 0 
L 59.03125 0 
L 49.5625 14.890625 
Q 45.40625 21.34375 42.71875 24.75 
Q 40.046875 28.171875 37.921875 29.53125 
Q 35.796875 30.90625 33.59375 31.453125 
Q 31.984375 31.78125 28.328125 31.78125 
L 17.328125 31.78125 
L 17.328125 0 
z
M 17.328125 39.984375 
L 37.703125 39.984375 
Q 44.1875 39.984375 47.84375 41.328125 
Q 51.515625 42.671875 53.421875 45.625 
Q 55.328125 48.578125 55.328125 52.046875 
Q 55.328125 57.125 51.640625 60.390625 
Q 47.953125 63.671875 39.984375 63.671875 
L 17.328125 63.671875 
z
" id="ArialMT-52"/>
      <path d="M 7.421875 0 
L 7.421875 71.578125 
L 21.6875 71.578125 
L 38.625 20.90625 
Q 40.96875 13.8125 42.046875 10.296875 
Q 43.265625 14.203125 45.84375 21.78125 
L 62.984375 71.578125 
L 75.734375 71.578125 
L 75.734375 0 
L 66.609375 0 
L 66.609375 59.90625 
L 45.796875 0 
L 37.25 0 
L 16.546875 60.9375 
L 16.546875 0 
z
" id="ArialMT-4d"/>
      <path d="M 4.5 23 
L 13.421875 23.78125 
Q 14.0625 18.40625 16.375 14.96875 
Q 18.703125 11.53125 23.578125 9.40625 
Q 28.46875 7.28125 34.578125 7.28125 
Q 39.984375 7.28125 44.140625 8.890625 
Q 48.296875 10.5 50.3125 13.296875 
Q 52.34375 16.109375 52.34375 19.4375 
Q 52.34375 22.796875 50.390625 25.3125 
Q 48.4375 27.828125 43.953125 29.546875 
Q 41.0625 30.671875 31.203125 33.03125 
Q 21.34375 35.40625 17.390625 37.5 
Q 12.25 40.1875 9.734375 44.15625 
Q 7.234375 48.140625 7.234375 53.078125 
Q 7.234375 58.5 10.296875 63.203125 
Q 13.375 67.921875 19.28125 70.359375 
Q 25.203125 72.796875 32.421875 72.796875 
Q 40.375 72.796875 46.453125 70.234375 
Q 52.546875 67.671875 55.8125 62.6875 
Q 59.078125 57.71875 59.328125 51.421875 
L 50.25 50.734375 
Q 49.515625 57.515625 45.28125 60.984375 
Q 41.0625 64.453125 32.8125 64.453125 
Q 24.21875 64.453125 20.28125 61.296875 
Q 16.359375 58.15625 16.359375 53.71875 
Q 16.359375 49.859375 19.140625 47.359375 
Q 21.875 44.875 33.421875 42.265625 
Q 44.96875 39.65625 49.265625 37.703125 
Q 55.515625 34.8125 58.484375 30.390625 
Q 61.46875 25.984375 61.46875 20.21875 
Q 61.46875 14.5 58.203125 9.4375 
Q 54.9375 4.390625 48.796875 1.578125 
Q 42.671875 -1.21875 35.015625 -1.21875 
Q 25.296875 -1.21875 18.71875 1.609375 
Q 12.15625 4.4375 8.421875 10.125 
Q 4.6875 15.828125 4.5 23 
z
" id="ArialMT-53"/>
      <path d="M 7.90625 0 
L 7.90625 71.578125 
L 59.671875 71.578125 
L 59.671875 63.140625 
L 17.390625 63.140625 
L 17.390625 41.21875 
L 56.984375 41.21875 
L 56.984375 32.8125 
L 17.390625 32.8125 
L 17.390625 8.453125 
L 61.328125 8.453125 
L 61.328125 0 
z
" id="ArialMT-45"/>
      <path id="ArialMT-20"/>
      <path d="M 6.78125 -19.875 
L 6.78125 71.578125 
L 26.171875 71.578125 
L 26.171875 64.3125 
L 15.578125 64.3125 
L 15.578125 -12.59375 
L 26.171875 -12.59375 
L 26.171875 -19.875 
z
" id="ArialMT-5b"/>
      <path d="M 6.640625 0 
L 6.640625 71.578125 
L 15.4375 71.578125 
L 15.4375 30.765625 
L 36.234375 51.859375 
L 47.609375 51.859375 
L 27.78125 32.625 
L 49.609375 0 
L 38.765625 0 
L 21.625 26.515625 
L 15.4375 20.5625 
L 15.4375 0 
z
" id="ArialMT-6b"/>
      <path d="M 40.4375 19 
L 49.078125 17.875 
Q 47.65625 8.9375 41.8125 3.875 
Q 35.984375 -1.171875 27.484375 -1.171875 
Q 16.84375 -1.171875 10.375 5.78125 
Q 3.90625 12.75 3.90625 25.734375 
Q 3.90625 34.125 6.6875 40.421875 
Q 9.46875 46.734375 15.15625 49.875 
Q 20.84375 53.03125 27.546875 53.03125 
Q 35.984375 53.03125 41.359375 48.75 
Q 46.734375 44.484375 48.25 36.625 
L 39.703125 35.296875 
Q 38.484375 40.53125 35.375 43.15625 
Q 32.28125 45.796875 27.875 45.796875 
Q 21.234375 45.796875 17.078125 41.03125 
Q 12.9375 36.28125 12.9375 25.984375 
Q 12.9375 15.53125 16.9375 10.796875 
Q 20.953125 6.0625 27.390625 6.0625 
Q 32.5625 6.0625 36.03125 9.234375 
Q 39.5 12.40625 40.4375 19 
z
" id="ArialMT-63"/>
      <path d="M 40.4375 6.390625 
Q 35.546875 2.25 31.03125 0.53125 
Q 26.515625 -1.171875 21.34375 -1.171875 
Q 12.796875 -1.171875 8.203125 3 
Q 3.609375 7.171875 3.609375 13.671875 
Q 3.609375 17.484375 5.34375 20.625 
Q 7.078125 23.78125 9.890625 25.6875 
Q 12.703125 27.59375 16.21875 28.5625 
Q 18.796875 29.25 24.03125 29.890625 
Q 34.671875 31.15625 39.703125 32.90625 
Q 39.75 34.71875 39.75 35.203125 
Q 39.75 40.578125 37.25 42.78125 
Q 33.890625 45.75 27.25 45.75 
Q 21.046875 45.75 18.09375 43.578125 
Q 15.140625 41.40625 13.71875 35.890625 
L 5.125 37.0625 
Q 6.296875 42.578125 8.984375 45.96875 
Q 11.671875 49.359375 16.75 51.1875 
Q 21.828125 53.03125 28.515625 53.03125 
Q 35.15625 53.03125 39.296875 51.46875 
Q 43.453125 49.90625 45.40625 47.53125 
Q 47.359375 45.171875 48.140625 41.546875 
Q 48.578125 39.3125 48.578125 33.453125 
L 48.578125 21.734375 
Q 48.578125 9.46875 49.140625 6.21875 
Q 49.703125 2.984375 51.375 0 
L 42.1875 0 
Q 40.828125 2.734375 40.4375 6.390625 
z
M 39.703125 26.03125 
Q 34.90625 24.078125 25.34375 22.703125 
Q 19.921875 21.921875 17.671875 20.9375 
Q 15.4375 19.96875 14.203125 18.09375 
Q 12.984375 16.21875 12.984375 13.921875 
Q 12.984375 10.40625 15.640625 8.0625 
Q 18.3125 5.71875 23.4375 5.71875 
Q 28.515625 5.71875 32.46875 7.9375 
Q 36.421875 10.15625 38.28125 14.015625 
Q 39.703125 17 39.703125 22.796875 
z
" id="ArialMT-61"/>
      <path d="M 6.390625 0 
L 6.390625 71.578125 
L 15.1875 71.578125 
L 15.1875 0 
z
" id="ArialMT-6c"/>
      <path d="M 0 -1.21875 
L 20.75 72.796875 
L 27.78125 72.796875 
L 7.078125 -1.21875 
z
" id="ArialMT-2f"/>
      <path d="M 6.59375 0 
L 6.59375 51.859375 
L 14.453125 51.859375 
L 14.453125 44.578125 
Q 16.890625 48.390625 20.9375 50.703125 
Q 25 53.03125 30.171875 53.03125 
Q 35.9375 53.03125 39.625 50.640625 
Q 43.3125 48.25 44.828125 43.953125 
Q 50.984375 53.03125 60.84375 53.03125 
Q 68.5625 53.03125 72.703125 48.75 
Q 76.859375 44.484375 76.859375 35.59375 
L 76.859375 0 
L 68.109375 0 
L 68.109375 32.671875 
Q 68.109375 37.9375 67.25 40.25 
Q 66.40625 42.578125 64.15625 43.984375 
Q 61.921875 45.40625 58.890625 45.40625 
Q 53.421875 45.40625 49.796875 41.765625 
Q 46.1875 38.140625 46.1875 30.125 
L 46.1875 0 
L 37.40625 0 
L 37.40625 33.6875 
Q 37.40625 39.546875 35.25 42.46875 
Q 33.109375 45.40625 28.21875 45.40625 
Q 24.515625 45.40625 21.359375 43.453125 
Q 18.21875 41.5 16.796875 37.734375 
Q 15.375 33.984375 15.375 26.90625 
L 15.375 0 
z
" id="ArialMT-6d"/>
      <path d="M 3.328125 25.921875 
Q 3.328125 40.328125 11.328125 47.265625 
Q 18.015625 53.03125 27.640625 53.03125 
Q 38.328125 53.03125 45.109375 46.015625 
Q 51.90625 39.015625 51.90625 26.65625 
Q 51.90625 16.65625 48.90625 10.90625 
Q 45.90625 5.171875 40.15625 2 
Q 34.421875 -1.171875 27.640625 -1.171875 
Q 16.75 -1.171875 10.03125 5.8125 
Q 3.328125 12.796875 3.328125 25.921875 
z
M 12.359375 25.921875 
Q 12.359375 15.96875 16.703125 11.015625 
Q 21.046875 6.0625 27.640625 6.0625 
Q 34.1875 6.0625 38.53125 11.03125 
Q 42.875 16.015625 42.875 26.21875 
Q 42.875 35.84375 38.5 40.796875 
Q 34.125 45.75 27.640625 45.75 
Q 21.046875 45.75 16.703125 40.8125 
Q 12.359375 35.890625 12.359375 25.921875 
z
" id="ArialMT-6f"/>
      <path d="M 21.296875 -19.875 
L 1.90625 -19.875 
L 1.90625 -12.59375 
L 12.5 -12.59375 
L 12.5 64.3125 
L 1.90625 64.3125 
L 1.90625 71.578125 
L 21.296875 71.578125 
z
" id="ArialMT-5d"/>
     </defs>
     <g style="fill:#262626;" transform="translate(64.7513 87.192863)scale(0.0616 -0.0616)">
      <use xlink:href="#ArialMT-52"/>
      <use x="72.216797" xlink:href="#ArialMT-4d"/>
      <use x="155.517578" xlink:href="#ArialMT-53"/>
      <use x="222.216797" xlink:href="#ArialMT-45"/>
      <use x="288.916016" xlink:href="#ArialMT-20"/>
      <use x="316.699219" xlink:href="#ArialMT-5b"/>
      <use x="344.482422" xlink:href="#ArialMT-6b"/>
      <use x="394.482422" xlink:href="#ArialMT-63"/>
      <use x="444.482422" xlink:href="#ArialMT-61"/>
      <use x="500.097656" xlink:href="#ArialMT-6c"/>
      <use x="522.314453" xlink:href="#ArialMT-2f"/>
      <use x="550.097656" xlink:href="#ArialMT-6d"/>
      <use x="633.398438" xlink:href="#ArialMT-6f"/>
      <use x="689.013672" xlink:href="#ArialMT-6c"/>
      <use x="711.230469" xlink:href="#ArialMT-5d"/>
     </g>
    </g>
   </g>
   <g id="matplotlib.axis_2">
    <g id="ytick_1">
     <g id="line2d_13"/>
     <g id="text_8">
      <!-- MMPBSA-GAFF -->
      <defs>
       <path d="M 7.71875 0 
L 7.71875 71.578125 
L 34.71875 71.578125 
Q 41.84375 71.578125 45.609375 70.90625 
Q 50.875 70.015625 54.4375 67.546875 
Q 58.015625 65.09375 60.1875 60.640625 
Q 62.359375 56.203125 62.359375 50.875 
Q 62.359375 41.75 56.546875 35.421875 
Q 50.734375 29.109375 35.546875 29.109375 
L 17.1875 29.109375 
L 17.1875 0 
z
M 17.1875 37.546875 
L 35.6875 37.546875 
Q 44.875 37.546875 48.734375 40.96875 
Q 52.59375 44.390625 52.59375 50.59375 
Q 52.59375 55.078125 50.3125 58.265625 
Q 48.046875 61.46875 44.34375 62.5 
Q 41.9375 63.140625 35.5 63.140625 
L 17.1875 63.140625 
z
" id="ArialMT-50"/>
       <path d="M 7.328125 0 
L 7.328125 71.578125 
L 34.1875 71.578125 
Q 42.390625 71.578125 47.34375 69.40625 
Q 52.296875 67.234375 55.09375 62.71875 
Q 57.90625 58.203125 57.90625 53.265625 
Q 57.90625 48.6875 55.421875 44.625 
Q 52.9375 40.578125 47.90625 38.09375 
Q 54.390625 36.1875 57.875 31.59375 
Q 61.375 27 61.375 20.75 
Q 61.375 15.71875 59.25 11.390625 
Q 57.125 7.078125 54 4.734375 
Q 50.875 2.390625 46.15625 1.1875 
Q 41.453125 0 34.625 0 
z
M 16.796875 41.5 
L 32.28125 41.5 
Q 38.578125 41.5 41.3125 42.328125 
Q 44.921875 43.40625 46.75 45.890625 
Q 48.578125 48.390625 48.578125 52.15625 
Q 48.578125 55.71875 46.875 58.421875 
Q 45.171875 61.140625 41.984375 62.140625 
Q 38.8125 63.140625 31.109375 63.140625 
L 16.796875 63.140625 
z
M 16.796875 8.453125 
L 34.625 8.453125 
Q 39.203125 8.453125 41.0625 8.796875 
Q 44.34375 9.375 46.53125 10.734375 
Q 48.734375 12.109375 50.140625 14.71875 
Q 51.5625 17.328125 51.5625 20.75 
Q 51.5625 24.75 49.515625 27.703125 
Q 47.46875 30.671875 43.828125 31.859375 
Q 40.1875 33.0625 33.34375 33.0625 
L 16.796875 33.0625 
z
" id="ArialMT-42"/>
       <path d="M -0.140625 0 
L 27.34375 71.578125 
L 37.546875 71.578125 
L 66.84375 0 
L 56.0625 0 
L 47.703125 21.6875 
L 17.78125 21.6875 
L 9.90625 0 
z
M 20.515625 29.390625 
L 44.78125 29.390625 
L 37.3125 49.21875 
Q 33.890625 58.25 32.234375 64.0625 
Q 30.859375 57.171875 28.375 50.390625 
z
" id="ArialMT-41"/>
       <path d="M 3.171875 21.484375 
L 3.171875 30.328125 
L 30.171875 30.328125 
L 30.171875 21.484375 
z
" id="ArialMT-2d"/>
       <path d="M 41.21875 28.078125 
L 41.21875 36.46875 
L 71.53125 36.53125 
L 71.53125 9.96875 
Q 64.546875 4.390625 57.125 1.578125 
Q 49.703125 -1.21875 41.890625 -1.21875 
Q 31.34375 -1.21875 22.71875 3.296875 
Q 14.109375 7.8125 9.71875 16.359375 
Q 5.328125 24.90625 5.328125 35.453125 
Q 5.328125 45.90625 9.6875 54.953125 
Q 14.0625 64.015625 22.265625 68.40625 
Q 30.46875 72.796875 41.15625 72.796875 
Q 48.921875 72.796875 55.1875 70.28125 
Q 61.46875 67.78125 65.03125 63.28125 
Q 68.609375 58.796875 70.453125 51.5625 
L 61.921875 49.21875 
Q 60.296875 54.6875 57.90625 57.8125 
Q 55.515625 60.9375 51.0625 62.8125 
Q 46.625 64.703125 41.21875 64.703125 
Q 34.71875 64.703125 29.984375 62.71875 
Q 25.25 60.75 22.34375 57.515625 
Q 19.4375 54.296875 17.828125 50.4375 
Q 15.09375 43.796875 15.09375 36.03125 
Q 15.09375 26.46875 18.390625 20.015625 
Q 21.6875 13.578125 27.984375 10.453125 
Q 34.28125 7.328125 41.359375 7.328125 
Q 47.515625 7.328125 53.375 9.6875 
Q 59.234375 12.0625 62.25 14.75 
L 62.25 28.078125 
z
" id="ArialMT-47"/>
       <path d="M 8.203125 0 
L 8.203125 71.578125 
L 56.5 71.578125 
L 56.5 63.140625 
L 17.671875 63.140625 
L 17.671875 40.96875 
L 51.265625 40.96875 
L 51.265625 32.515625 
L 17.671875 32.515625 
L 17.671875 0 
z
" id="ArialMT-46"/>
      </defs>
      <g style="fill:#262626;" transform="translate(6.35555 12.363788)scale(0.056 -0.056)">
       <use xlink:href="#ArialMT-4d"/>
       <use x="83.300781" xlink:href="#ArialMT-4d"/>
       <use x="166.601562" xlink:href="#ArialMT-50"/>
       <use x="233.300781" xlink:href="#ArialMT-42"/>
       <use x="300" xlink:href="#ArialMT-53"/>
       <use x="366.699219" xlink:href="#ArialMT-41"/>
       <use x="433.398438" xlink:href="#ArialMT-2d"/>
       <use x="466.699219" xlink:href="#ArialMT-47"/>
       <use x="544.482422" xlink:href="#ArialMT-41"/>
       <use x="611.181641" xlink:href="#ArialMT-46"/>
       <use x="672.265625" xlink:href="#ArialMT-46"/>
      </g>
     </g>
    </g>
    <g id="ytick_2">
     <g id="line2d_14"/>
     <g id="text_9">
      <!-- DFT(B3PW91) -->
      <defs>
       <path d="M 7.71875 0 
L 7.71875 71.578125 
L 32.375 71.578125 
Q 40.71875 71.578125 45.125 70.5625 
Q 51.265625 69.140625 55.609375 65.4375 
Q 61.28125 60.640625 64.078125 53.1875 
Q 66.890625 45.75 66.890625 36.1875 
Q 66.890625 28.03125 64.984375 21.734375 
Q 63.09375 15.4375 60.109375 11.296875 
Q 57.125 7.171875 53.578125 4.796875 
Q 50.046875 2.4375 45.046875 1.21875 
Q 40.046875 0 33.546875 0 
z
M 17.1875 8.453125 
L 32.46875 8.453125 
Q 39.546875 8.453125 43.578125 9.765625 
Q 47.609375 11.078125 50 13.484375 
Q 53.375 16.84375 55.25 22.53125 
Q 57.125 28.21875 57.125 36.328125 
Q 57.125 47.5625 53.4375 53.59375 
Q 49.75 59.625 44.484375 61.671875 
Q 40.671875 63.140625 32.234375 63.140625 
L 17.1875 63.140625 
z
" id="ArialMT-44"/>
       <path d="M 25.921875 0 
L 25.921875 63.140625 
L 2.34375 63.140625 
L 2.34375 71.578125 
L 59.078125 71.578125 
L 59.078125 63.140625 
L 35.40625 63.140625 
L 35.40625 0 
z
" id="ArialMT-54"/>
       <path d="M 23.390625 -21.046875 
Q 16.109375 -11.859375 11.078125 0.4375 
Q 6.0625 12.75 6.0625 25.921875 
Q 6.0625 37.546875 9.8125 48.1875 
Q 14.203125 60.546875 23.390625 72.796875 
L 29.6875 72.796875 
Q 23.78125 62.640625 21.875 58.296875 
Q 18.890625 51.5625 17.1875 44.234375 
Q 15.09375 35.109375 15.09375 25.875 
Q 15.09375 2.390625 29.6875 -21.046875 
z
" id="ArialMT-28"/>
       <path d="M 20.21875 0 
L 1.21875 71.578125 
L 10.9375 71.578125 
L 21.828125 24.65625 
Q 23.578125 17.28125 24.859375 10.015625 
Q 27.59375 21.484375 28.078125 23.25 
L 41.703125 71.578125 
L 53.125 71.578125 
L 63.375 35.359375 
Q 67.234375 21.875 68.953125 10.015625 
Q 70.3125 16.796875 72.515625 25.59375 
L 83.734375 71.578125 
L 93.265625 71.578125 
L 73.640625 0 
L 64.5 0 
L 49.421875 54.546875 
Q 47.515625 61.375 47.171875 62.9375 
Q 46.046875 58.015625 45.0625 54.546875 
L 29.890625 0 
z
" id="ArialMT-57"/>
       <path d="M 5.46875 16.546875 
L 13.921875 17.328125 
Q 14.984375 11.375 18.015625 8.6875 
Q 21.046875 6 25.78125 6 
Q 29.828125 6 32.875 7.859375 
Q 35.9375 9.71875 37.890625 12.8125 
Q 39.84375 15.921875 41.15625 21.1875 
Q 42.484375 26.46875 42.484375 31.9375 
Q 42.484375 32.515625 42.4375 33.6875 
Q 39.796875 29.5 35.234375 26.875 
Q 30.671875 24.265625 25.34375 24.265625 
Q 16.453125 24.265625 10.296875 30.703125 
Q 4.15625 37.15625 4.15625 47.703125 
Q 4.15625 58.59375 10.578125 65.234375 
Q 17 71.875 26.65625 71.875 
Q 33.640625 71.875 39.421875 68.109375 
Q 45.21875 64.359375 48.21875 57.390625 
Q 51.21875 50.4375 51.21875 37.25 
Q 51.21875 23.53125 48.234375 15.40625 
Q 45.265625 7.28125 39.375 3.03125 
Q 33.5 -1.21875 25.59375 -1.21875 
Q 17.1875 -1.21875 11.859375 3.4375 
Q 6.546875 8.109375 5.46875 16.546875 
z
M 41.453125 48.140625 
Q 41.453125 55.71875 37.421875 60.15625 
Q 33.40625 64.59375 27.734375 64.59375 
Q 21.875 64.59375 17.53125 59.8125 
Q 13.1875 55.03125 13.1875 47.40625 
Q 13.1875 40.578125 17.3125 36.296875 
Q 21.4375 32.03125 27.484375 32.03125 
Q 33.59375 32.03125 37.515625 36.296875 
Q 41.453125 40.578125 41.453125 48.140625 
z
" id="ArialMT-39"/>
       <path d="M 12.359375 -21.046875 
L 6.0625 -21.046875 
Q 20.65625 2.390625 20.65625 25.875 
Q 20.65625 35.0625 18.5625 44.09375 
Q 16.890625 51.421875 13.921875 58.15625 
Q 12.015625 62.546875 6.0625 72.796875 
L 12.359375 72.796875 
Q 21.53125 60.546875 25.921875 48.1875 
Q 29.6875 37.546875 29.6875 25.921875 
Q 29.6875 12.75 24.625 0.4375 
Q 19.578125 -11.859375 12.359375 -21.046875 
z
" id="ArialMT-29"/>
      </defs>
      <g style="fill:#262626;" transform="translate(10.70955 29.891513)scale(0.056 -0.056)">
       <use xlink:href="#ArialMT-44"/>
       <use x="72.216797" xlink:href="#ArialMT-46"/>
       <use x="133.300781" xlink:href="#ArialMT-54"/>
       <use x="194.384766" xlink:href="#ArialMT-28"/>
       <use x="227.685547" xlink:href="#ArialMT-42"/>
       <use x="294.384766" xlink:href="#ArialMT-33"/>
       <use x="350" xlink:href="#ArialMT-50"/>
       <use x="416.699219" xlink:href="#ArialMT-57"/>
       <use x="511.083984" xlink:href="#ArialMT-39"/>
       <use x="566.699219" xlink:href="#ArialMT-31"/>
       <use x="622.314453" xlink:href="#ArialMT-29"/>
      </g>
     </g>
    </g>
    <g id="ytick_3">
     <g id="line2d_15"/>
     <g id="text_10">
      <!-- NULL -->
      <defs>
       <path d="M 7.625 0 
L 7.625 71.578125 
L 17.328125 71.578125 
L 54.9375 15.375 
L 54.9375 71.578125 
L 64.015625 71.578125 
L 64.015625 0 
L 54.296875 0 
L 16.703125 56.25 
L 16.703125 0 
z
" id="ArialMT-4e"/>
       <path d="M 54.6875 71.578125 
L 64.15625 71.578125 
L 64.15625 30.21875 
Q 64.15625 19.4375 61.71875 13.078125 
Q 59.28125 6.734375 52.90625 2.75 
Q 46.53125 -1.21875 36.1875 -1.21875 
Q 26.125 -1.21875 19.71875 2.25 
Q 13.328125 5.71875 10.59375 12.28125 
Q 7.859375 18.84375 7.859375 30.21875 
L 7.859375 71.578125 
L 17.328125 71.578125 
L 17.328125 30.28125 
Q 17.328125 20.953125 19.0625 16.53125 
Q 20.796875 12.109375 25.015625 9.71875 
Q 29.25 7.328125 35.359375 7.328125 
Q 45.796875 7.328125 50.234375 12.0625 
Q 54.6875 16.796875 54.6875 30.28125 
z
" id="ArialMT-55"/>
       <path d="M 7.328125 0 
L 7.328125 71.578125 
L 16.796875 71.578125 
L 16.796875 8.453125 
L 52.046875 8.453125 
L 52.046875 0 
z
" id="ArialMT-4c"/>
      </defs>
      <g style="fill:#262626;" transform="translate(33.10605 47.350988)scale(0.056 -0.056)">
       <use xlink:href="#ArialMT-4e"/>
       <use x="72.216797" xlink:href="#ArialMT-55"/>
       <use x="144.433594" xlink:href="#ArialMT-4c"/>
       <use x="200.048828" xlink:href="#ArialMT-4c"/>
      </g>
     </g>
    </g>
    <g id="ytick_4">
     <g id="line2d_16"/>
     <g id="text_11">
      <!-- DFT(B3PW91)-D3 -->
      <g style="fill:#262626;" transform="translate(1.68655 64.878713)scale(0.056 -0.056)">
       <use xlink:href="#ArialMT-44"/>
       <use x="72.216797" xlink:href="#ArialMT-46"/>
       <use x="133.300781" xlink:href="#ArialMT-54"/>
       <use x="194.384766" xlink:href="#ArialMT-28"/>
       <use x="227.685547" xlink:href="#ArialMT-42"/>
       <use x="294.384766" xlink:href="#ArialMT-33"/>
       <use x="350" xlink:href="#ArialMT-50"/>
       <use x="416.699219" xlink:href="#ArialMT-57"/>
       <use x="511.083984" xlink:href="#ArialMT-39"/>
       <use x="566.699219" xlink:href="#ArialMT-31"/>
       <use x="622.314453" xlink:href="#ArialMT-29"/>
       <use x="655.615234" xlink:href="#ArialMT-2d"/>
       <use x="688.916016" xlink:href="#ArialMT-44"/>
       <use x="761.132812" xlink:href="#ArialMT-33"/>
      </g>
     </g>
    </g>
   </g>
   <g id="PolyCollection_1">
    <defs>
     <path d="M 55.376431 -79.6404 
L 55.376431 -79.642387 
L 55.471639 -79.643182 
L 55.566847 -79.644054 
L 55.662055 -79.645374 
L 55.757264 -79.647462 
L 55.852472 -79.650939 
L 55.94768 -79.656236 
L 56.042888 -79.662906 
L 56.138097 -79.670429 
L 56.233305 -79.679364 
L 56.328513 -79.691028 
L 56.423721 -79.707021 
L 56.518929 -79.727606 
L 56.614138 -79.750158 
L 56.709346 -79.771143 
L 56.804554 -79.793076 
L 56.899762 -79.827245 
L 56.99497 -79.879964 
L 57.090179 -79.943057 
L 57.185387 -80.009211 
L 57.280595 -80.082246 
L 57.375803 -80.167744 
L 57.471011 -80.262717 
L 57.56622 -80.364194 
L 57.661428 -80.486426 
L 57.756636 -80.647081 
L 57.851844 -80.842651 
L 57.947053 -81.046936 
L 58.042261 -81.234491 
L 58.137469 -81.413455 
L 58.232677 -81.61497 
L 58.327885 -81.845389 
L 58.423094 -82.088418 
L 58.518302 -82.341837 
L 58.61351 -82.604585 
L 58.708718 -82.865729 
L 58.803926 -83.1292 
L 58.899135 -83.412005 
L 58.994343 -83.712163 
L 59.089551 -84.016072 
L 59.184759 -84.322086 
L 59.279967 -84.611092 
L 59.375176 -84.84509 
L 59.470384 -85.021946 
L 59.565592 -85.174263 
L 59.6608 -85.325392 
L 59.756009 -85.472871 
L 59.851217 -85.59709 
L 59.946425 -85.684721 
L 60.041633 -85.738843 
L 60.136841 -85.76316 
L 60.23205 -85.746334 
L 60.327258 -85.666806 
L 60.422466 -85.509797 
L 60.517674 -85.297632 
L 60.612882 -85.101445 
L 60.708091 -84.942828 
L 60.803299 -84.753263 
L 60.898507 -84.515774 
L 60.993715 -84.268726 
L 61.088923 -84.014062 
L 61.184132 -83.747967 
L 61.27934 -83.480333 
L 61.374548 -83.2033 
L 61.469756 -82.904783 
L 61.564965 -82.603987 
L 61.660173 -82.327555 
L 61.755381 -82.073139 
L 61.850589 -81.832267 
L 61.945797 -81.603266 
L 62.041006 -81.376992 
L 62.136214 -81.155691 
L 62.231422 -80.957432 
L 62.32663 -80.77872 
L 62.421838 -80.605633 
L 62.517047 -80.447608 
L 62.612255 -80.322703 
L 62.707463 -80.225969 
L 62.802671 -80.134542 
L 62.897879 -80.039537 
L 62.993088 -79.956539 
L 63.088296 -79.897242 
L 63.183504 -79.851224 
L 63.278712 -79.807994 
L 63.373921 -79.771224 
L 63.469129 -79.744446 
L 63.564337 -79.724621 
L 63.659545 -79.709975 
L 63.754753 -79.699388 
L 63.849962 -79.688703 
L 63.94517 -79.676101 
L 64.040378 -79.664557 
L 64.135586 -79.656369 
L 64.230794 -79.651489 
L 64.326003 -79.648694 
L 64.421211 -79.646722 
L 64.516419 -79.644855 
L 64.611627 -79.643309 
L 64.706835 -79.642609 
L 64.802044 -79.642154 
L 64.802044 -79.6404 
L 64.802044 -79.6404 
L 64.706835 -79.6404 
L 64.611627 -79.6404 
L 64.516419 -79.6404 
L 64.421211 -79.6404 
L 64.326003 -79.6404 
L 64.230794 -79.6404 
L 64.135586 -79.6404 
L 64.040378 -79.6404 
L 63.94517 -79.6404 
L 63.849962 -79.6404 
L 63.754753 -79.6404 
L 63.659545 -79.6404 
L 63.564337 -79.6404 
L 63.469129 -79.6404 
L 63.373921 -79.6404 
L 63.278712 -79.6404 
L 63.183504 -79.6404 
L 63.088296 -79.6404 
L 62.993088 -79.6404 
L 62.897879 -79.6404 
L 62.802671 -79.6404 
L 62.707463 -79.6404 
L 62.612255 -79.6404 
L 62.517047 -79.6404 
L 62.421838 -79.6404 
L 62.32663 -79.6404 
L 62.231422 -79.6404 
L 62.136214 -79.6404 
L 62.041006 -79.6404 
L 61.945797 -79.6404 
L 61.850589 -79.6404 
L 61.755381 -79.6404 
L 61.660173 -79.6404 
L 61.564965 -79.6404 
L 61.469756 -79.6404 
L 61.374548 -79.6404 
L 61.27934 -79.6404 
L 61.184132 -79.6404 
L 61.088923 -79.6404 
L 60.993715 -79.6404 
L 60.898507 -79.6404 
L 60.803299 -79.6404 
L 60.708091 -79.6404 
L 60.612882 -79.6404 
L 60.517674 -79.6404 
L 60.422466 -79.6404 
L 60.327258 -79.6404 
L 60.23205 -79.6404 
L 60.136841 -79.6404 
L 60.041633 -79.6404 
L 59.946425 -79.6404 
L 59.851217 -79.6404 
L 59.756009 -79.6404 
L 59.6608 -79.6404 
L 59.565592 -79.6404 
L 59.470384 -79.6404 
L 59.375176 -79.6404 
L 59.279967 -79.6404 
L 59.184759 -79.6404 
L 59.089551 -79.6404 
L 58.994343 -79.6404 
L 58.899135 -79.6404 
L 58.803926 -79.6404 
L 58.708718 -79.6404 
L 58.61351 -79.6404 
L 58.518302 -79.6404 
L 58.423094 -79.6404 
L 58.327885 -79.6404 
L 58.232677 -79.6404 
L 58.137469 -79.6404 
L 58.042261 -79.6404 
L 57.947053 -79.6404 
L 57.851844 -79.6404 
L 57.756636 -79.6404 
L 57.661428 -79.6404 
L 57.56622 -79.6404 
L 57.471011 -79.6404 
L 57.375803 -79.6404 
L 57.280595 -79.6404 
L 57.185387 -79.6404 
L 57.090179 -79.6404 
L 56.99497 -79.6404 
L 56.899762 -79.6404 
L 56.804554 -79.6404 
L 56.709346 -79.6404 
L 56.614138 -79.6404 
L 56.518929 -79.6404 
L 56.423721 -79.6404 
L 56.328513 -79.6404 
L 56.233305 -79.6404 
L 56.138097 -79.6404 
L 56.042888 -79.6404 
L 55.94768 -79.6404 
L 55.852472 -79.6404 
L 55.757264 -79.6404 
L 55.662055 -79.6404 
L 55.566847 -79.6404 
L 55.471639 -79.6404 
L 55.376431 -79.6404 
z
" id="m334a0c584e" style="stroke:#3f3f3f;stroke-width:0.8;"/>
    </defs>
    <g clip-path="url(#p421045112e)">
     <use style="fill:#e1b02a;stroke:#3f3f3f;stroke-width:0.8;" x="0" xlink:href="#m334a0c584e" y="90"/>
    </g>
   </g>
   <g id="PolyCollection_2">
    <defs>
     <path d="M 64.225457 -79.639174 
L 64.225457 -79.6404 
L 64.464523 -79.6404 
L 64.703589 -79.6404 
L 64.942654 -79.6404 
L 65.18172 -79.6404 
L 65.420786 -79.6404 
L 65.659852 -79.6404 
L 65.898918 -79.6404 
L 66.137983 -79.6404 
L 66.377049 -79.6404 
L 66.616115 -79.6404 
L 66.855181 -79.6404 
L 67.094247 -79.6404 
L 67.333312 -79.6404 
L 67.572378 -79.6404 
L 67.811444 -79.6404 
L 68.05051 -79.6404 
L 68.289576 -79.6404 
L 68.528641 -79.6404 
L 68.767707 -79.6404 
L 69.006773 -79.6404 
L 69.245839 -79.6404 
L 69.484905 -79.6404 
L 69.72397 -79.6404 
L 69.963036 -79.6404 
L 70.202102 -79.6404 
L 70.441168 -79.6404 
L 70.680234 -79.6404 
L 70.919299 -79.6404 
L 71.158365 -79.6404 
L 71.397431 -79.6404 
L 71.636497 -79.6404 
L 71.875563 -79.6404 
L 72.114628 -79.6404 
L 72.353694 -79.6404 
L 72.59276 -79.6404 
L 72.831826 -79.6404 
L 73.070892 -79.6404 
L 73.309957 -79.6404 
L 73.549023 -79.6404 
L 73.788089 -79.6404 
L 74.027155 -79.6404 
L 74.266221 -79.6404 
L 74.505286 -79.6404 
L 74.744352 -79.6404 
L 74.983418 -79.6404 
L 75.222484 -79.6404 
L 75.46155 -79.6404 
L 75.700615 -79.6404 
L 75.939681 -79.6404 
L 76.178747 -79.6404 
L 76.417813 -79.6404 
L 76.656879 -79.6404 
L 76.895944 -79.6404 
L 77.13501 -79.6404 
L 77.374076 -79.6404 
L 77.613142 -79.6404 
L 77.852208 -79.6404 
L 78.091274 -79.6404 
L 78.330339 -79.6404 
L 78.569405 -79.6404 
L 78.808471 -79.6404 
L 79.047537 -79.6404 
L 79.286603 -79.6404 
L 79.525668 -79.6404 
L 79.764734 -79.6404 
L 80.0038 -79.6404 
L 80.242866 -79.6404 
L 80.481932 -79.6404 
L 80.720997 -79.6404 
L 80.960063 -79.6404 
L 81.199129 -79.6404 
L 81.438195 -79.6404 
L 81.677261 -79.6404 
L 81.916326 -79.6404 
L 82.155392 -79.6404 
L 82.394458 -79.6404 
L 82.633524 -79.6404 
L 82.87259 -79.6404 
L 83.111655 -79.6404 
L 83.350721 -79.6404 
L 83.589787 -79.6404 
L 83.828853 -79.6404 
L 84.067919 -79.6404 
L 84.306984 -79.6404 
L 84.54605 -79.6404 
L 84.785116 -79.6404 
L 85.024182 -79.6404 
L 85.263248 -79.6404 
L 85.502313 -79.6404 
L 85.741379 -79.6404 
L 85.980445 -79.6404 
L 86.219511 -79.6404 
L 86.458577 -79.6404 
L 86.697642 -79.6404 
L 86.936708 -79.6404 
L 87.175774 -79.6404 
L 87.41484 -79.6404 
L 87.653906 -79.6404 
L 87.892971 -79.6404 
L 87.892971 -79.639688 
L 87.892971 -79.639688 
L 87.653906 -79.639569 
L 87.41484 -79.639223 
L 87.175774 -79.638173 
L 86.936708 -79.636099 
L 86.697642 -79.633641 
L 86.458577 -79.631367 
L 86.219511 -79.627993 
L 85.980445 -79.623002 
L 85.741379 -79.616347 
L 85.502313 -79.606492 
L 85.263248 -79.593271 
L 85.024182 -79.576689 
L 84.785116 -79.55376 
L 84.54605 -79.521748 
L 84.306984 -79.481858 
L 84.067919 -79.435496 
L 83.828853 -79.377889 
L 83.589787 -79.307082 
L 83.350721 -79.228269 
L 83.111655 -79.14084 
L 82.87259 -79.038616 
L 82.633524 -78.912635 
L 82.394458 -78.756004 
L 82.155392 -78.578826 
L 81.916326 -78.39582 
L 81.677261 -78.2059 
L 81.438195 -77.996728 
L 81.199129 -77.750024 
L 80.960063 -77.469251 
L 80.720997 -77.181614 
L 80.481932 -76.886656 
L 80.242866 -76.572499 
L 80.0038 -76.263241 
L 79.764734 -75.983934 
L 79.525668 -75.702665 
L 79.286603 -75.397649 
L 79.047537 -75.115719 
L 78.808471 -74.863495 
L 78.569405 -74.599788 
L 78.330339 -74.332399 
L 78.091274 -74.089867 
L 77.852208 -73.887105 
L 77.613142 -73.76268 
L 77.374076 -73.708686 
L 77.13501 -73.632151 
L 76.895944 -73.530321 
L 76.656879 -73.51764 
L 76.417813 -73.606247 
L 76.178747 -73.699362 
L 75.939681 -73.789204 
L 75.700615 -73.935436 
L 75.46155 -74.12563 
L 75.222484 -74.310171 
L 74.983418 -74.516802 
L 74.744352 -74.790405 
L 74.505286 -75.078705 
L 74.266221 -75.336181 
L 74.027155 -75.599944 
L 73.788089 -75.878471 
L 73.549023 -76.151513 
L 73.309957 -76.427981 
L 73.070892 -76.72033 
L 72.831826 -77.007716 
L 72.59276 -77.261461 
L 72.353694 -77.492738 
L 72.114628 -77.718298 
L 71.875563 -77.92919 
L 71.636497 -78.123033 
L 71.397431 -78.302717 
L 71.158365 -78.463703 
L 70.919299 -78.608296 
L 70.680234 -78.740816 
L 70.441168 -78.860106 
L 70.202102 -78.969928 
L 69.963036 -79.074349 
L 69.72397 -79.164904 
L 69.484905 -79.237887 
L 69.245839 -79.30397 
L 69.006773 -79.365814 
L 68.767707 -79.416383 
L 68.528641 -79.452062 
L 68.289576 -79.478166 
L 68.05051 -79.503977 
L 67.811444 -79.52998 
L 67.572378 -79.554606 
L 67.333312 -79.577131 
L 67.094247 -79.592133 
L 66.855181 -79.600036 
L 66.616115 -79.606872 
L 66.377049 -79.614186 
L 66.137983 -79.620271 
L 65.898918 -79.624714 
L 65.659852 -79.62841 
L 65.420786 -79.631549 
L 65.18172 -79.634089 
L 64.942654 -79.636159 
L 64.703589 -79.637739 
L 64.464523 -79.638642 
L 64.225457 -79.639174 
z
" id="mcd83e2fca1" style="stroke:#3f3f3f;stroke-width:0.8;"/>
    </defs>
    <g clip-path="url(#p421045112e)">
     <use style="fill:#3274a1;stroke:#3f3f3f;stroke-width:0.8;" x="0" xlink:href="#mcd83e2fca1" y="90"/>
    </g>
   </g>
   <g id="PolyCollection_3">
    <defs>
     <path d="M 58.274238 -62.1468 
L 58.274238 -62.151946 
L 58.735758 -62.159499 
L 59.197277 -62.175192 
L 59.658797 -62.205693 
L 60.120317 -62.261938 
L 60.581836 -62.359675 
L 61.043356 -62.517151 
L 61.504875 -62.750562 
L 61.966395 -63.071121 
L 62.427915 -63.483264 
L 62.889434 -63.978017 
L 63.350954 -64.525098 
L 63.812474 -65.072097 
L 64.273993 -65.550235 
L 64.735513 -65.890587 
L 65.197032 -66.047959 
L 65.658552 -66.00684 
L 66.120072 -65.769055 
L 66.581591 -65.356063 
L 67.043111 -64.821875 
L 67.504631 -64.24383 
L 67.96615 -63.694858 
L 68.42767 -63.2235 
L 68.88919 -62.850895 
L 69.350709 -62.577964 
L 69.812229 -62.394026 
L 70.273748 -62.284561 
L 70.735268 -62.242314 
L 71.196788 -62.284628 
L 71.658307 -62.470713 
L 72.119827 -62.900298 
L 72.581347 -63.670774 
L 73.042866 -64.794373 
L 73.504386 -66.124511 
L 73.965906 -67.360495 
L 74.427425 -68.155007 
L 74.888945 -68.26956 
L 75.350464 -67.685397 
L 75.811984 -66.60634 
L 76.273504 -65.352485 
L 76.735023 -64.212045 
L 77.196543 -63.3445 
L 77.658063 -62.776509 
L 78.119582 -62.46096 
L 78.581102 -62.349124 
L 79.042622 -62.441957 
L 79.504141 -62.795746 
L 79.965661 -63.460609 
L 80.42718 -64.368349 
L 80.8887 -65.2633 
L 81.35022 -65.790228 
L 81.811739 -65.718266 
L 82.273259 -65.102998 
L 82.734779 -64.227631 
L 83.196298 -63.399207 
L 83.657818 -62.794192 
L 84.119338 -62.441348 
L 84.580857 -62.293664 
L 85.042377 -62.307636 
L 85.503896 -62.47343 
L 85.965416 -62.777236 
L 86.426936 -63.136052 
L 86.888455 -63.393226 
L 87.349975 -63.413618 
L 87.811495 -63.191006 
L 88.273014 -62.848157 
L 88.734534 -62.5328 
L 89.196053 -62.323679 
L 89.657573 -62.222605 
L 90.119093 -62.201777 
L 90.580612 -62.239339 
L 91.042132 -62.316192 
L 91.503652 -62.39691 
L 91.965171 -62.435056 
L 92.426691 -62.407583 
L 92.888211 -62.334147 
L 93.34973 -62.254934 
L 93.81125 -62.197787 
L 94.272769 -62.168782 
L 94.734289 -62.162273 
L 95.195809 -62.170663 
L 95.657328 -62.185503 
L 96.118848 -62.196311 
L 96.580368 -62.195223 
L 97.041887 -62.183191 
L 97.503407 -62.168059 
L 97.964927 -62.156677 
L 98.426446 -62.150876 
L 98.887966 -62.149312 
L 99.349485 -62.150129 
L 99.811005 -62.151693 
L 100.272525 -62.15259 
L 100.734044 -62.152102 
L 101.195564 -62.150546 
L 101.657084 -62.148831 
L 102.118603 -62.147663 
L 102.580123 -62.147188 
L 103.041643 -62.14718 
L 103.503162 -62.147324 
L 103.964682 -62.147361 
L 103.964682 -62.1468 
L 103.964682 -62.1468 
L 103.503162 -62.1468 
L 103.041643 -62.1468 
L 102.580123 -62.1468 
L 102.118603 -62.1468 
L 101.657084 -62.1468 
L 101.195564 -62.1468 
L 100.734044 -62.1468 
L 100.272525 -62.1468 
L 99.811005 -62.1468 
L 99.349485 -62.1468 
L 98.887966 -62.1468 
L 98.426446 -62.1468 
L 97.964927 -62.1468 
L 97.503407 -62.1468 
L 97.041887 -62.1468 
L 96.580368 -62.1468 
L 96.118848 -62.1468 
L 95.657328 -62.1468 
L 95.195809 -62.1468 
L 94.734289 -62.1468 
L 94.272769 -62.1468 
L 93.81125 -62.1468 
L 93.34973 -62.1468 
L 92.888211 -62.1468 
L 92.426691 -62.1468 
L 91.965171 -62.1468 
L 91.503652 -62.1468 
L 91.042132 -62.1468 
L 90.580612 -62.1468 
L 90.119093 -62.1468 
L 89.657573 -62.1468 
L 89.196053 -62.1468 
L 88.734534 -62.1468 
L 88.273014 -62.1468 
L 87.811495 -62.1468 
L 87.349975 -62.1468 
L 86.888455 -62.1468 
L 86.426936 -62.1468 
L 85.965416 -62.1468 
L 85.503896 -62.1468 
L 85.042377 -62.1468 
L 84.580857 -62.1468 
L 84.119338 -62.1468 
L 83.657818 -62.1468 
L 83.196298 -62.1468 
L 82.734779 -62.1468 
L 82.273259 -62.1468 
L 81.811739 -62.1468 
L 81.35022 -62.1468 
L 80.8887 -62.1468 
L 80.42718 -62.1468 
L 79.965661 -62.1468 
L 79.504141 -62.1468 
L 79.042622 -62.1468 
L 78.581102 -62.1468 
L 78.119582 -62.1468 
L 77.658063 -62.1468 
L 77.196543 -62.1468 
L 76.735023 -62.1468 
L 76.273504 -62.1468 
L 75.811984 -62.1468 
L 75.350464 -62.1468 
L 74.888945 -62.1468 
L 74.427425 -62.1468 
L 73.965906 -62.1468 
L 73.504386 -62.1468 
L 73.042866 -62.1468 
L 72.581347 -62.1468 
L 72.119827 -62.1468 
L 71.658307 -62.1468 
L 71.196788 -62.1468 
L 70.735268 -62.1468 
L 70.273748 -62.1468 
L 69.812229 -62.1468 
L 69.350709 -62.1468 
L 68.88919 -62.1468 
L 68.42767 -62.1468 
L 67.96615 -62.1468 
L 67.504631 -62.1468 
L 67.043111 -62.1468 
L 66.581591 -62.1468 
L 66.120072 -62.1468 
L 65.658552 -62.1468 
L 65.197032 -62.1468 
L 64.735513 -62.1468 
L 64.273993 -62.1468 
L 63.812474 -62.1468 
L 63.350954 -62.1468 
L 62.889434 -62.1468 
L 62.427915 -62.1468 
L 61.966395 -62.1468 
L 61.504875 -62.1468 
L 61.043356 -62.1468 
L 60.581836 -62.1468 
L 60.120317 -62.1468 
L 59.658797 -62.1468 
L 59.197277 -62.1468 
L 58.735758 -62.1468 
L 58.274238 -62.1468 
z
" id="m2c92780c3b" style="stroke:#3f3f3f;stroke-width:0.8;"/>
    </defs>
    <g clip-path="url(#p421045112e)">
     <use style="fill:#e1b02a;stroke:#3f3f3f;stroke-width:0.8;" x="0" xlink:href="#m2c92780c3b" y="90"/>
    </g>
   </g>
   <g id="PolyCollection_4">
    <defs>
     <path d="M 59.956013 -62.14524 
L 59.956013 -62.1468 
L 60.279677 -62.1468 
L 60.60334 -62.1468 
L 60.927004 -62.1468 
L 61.250668 -62.1468 
L 61.574331 -62.1468 
L 61.897995 -62.1468 
L 62.221658 -62.1468 
L 62.545322 -62.1468 
L 62.868985 -62.1468 
L 63.192649 -62.1468 
L 63.516313 -62.1468 
L 63.839976 -62.1468 
L 64.16364 -62.1468 
L 64.487303 -62.1468 
L 64.810967 -62.1468 
L 65.13463 -62.1468 
L 65.458294 -62.1468 
L 65.781958 -62.1468 
L 66.105621 -62.1468 
L 66.429285 -62.1468 
L 66.752948 -62.1468 
L 67.076612 -62.1468 
L 67.400275 -62.1468 
L 67.723939 -62.1468 
L 68.047603 -62.1468 
L 68.371266 -62.1468 
L 68.69493 -62.1468 
L 69.018593 -62.1468 
L 69.342257 -62.1468 
L 69.66592 -62.1468 
L 69.989584 -62.1468 
L 70.313248 -62.1468 
L 70.636911 -62.1468 
L 70.960575 -62.1468 
L 71.284238 -62.1468 
L 71.607902 -62.1468 
L 71.931565 -62.1468 
L 72.255229 -62.1468 
L 72.578893 -62.1468 
L 72.902556 -62.1468 
L 73.22622 -62.1468 
L 73.549883 -62.1468 
L 73.873547 -62.1468 
L 74.19721 -62.1468 
L 74.520874 -62.1468 
L 74.844538 -62.1468 
L 75.168201 -62.1468 
L 75.491865 -62.1468 
L 75.815528 -62.1468 
L 76.139192 -62.1468 
L 76.462855 -62.1468 
L 76.786519 -62.1468 
L 77.110183 -62.1468 
L 77.433846 -62.1468 
L 77.75751 -62.1468 
L 78.081173 -62.1468 
L 78.404837 -62.1468 
L 78.7285 -62.1468 
L 79.052164 -62.1468 
L 79.375828 -62.1468 
L 79.699491 -62.1468 
L 80.023155 -62.1468 
L 80.346818 -62.1468 
L 80.670482 -62.1468 
L 80.994146 -62.1468 
L 81.317809 -62.1468 
L 81.641473 -62.1468 
L 81.965136 -62.1468 
L 82.2888 -62.1468 
L 82.612463 -62.1468 
L 82.936127 -62.1468 
L 83.259791 -62.1468 
L 83.583454 -62.1468 
L 83.907118 -62.1468 
L 84.230781 -62.1468 
L 84.554445 -62.1468 
L 84.878108 -62.1468 
L 85.201772 -62.1468 
L 85.525436 -62.1468 
L 85.849099 -62.1468 
L 86.172763 -62.1468 
L 86.496426 -62.1468 
L 86.82009 -62.1468 
L 87.143753 -62.1468 
L 87.467417 -62.1468 
L 87.791081 -62.1468 
L 88.114744 -62.1468 
L 88.438408 -62.1468 
L 88.762071 -62.1468 
L 89.085735 -62.1468 
L 89.409398 -62.1468 
L 89.733062 -62.1468 
L 90.056726 -62.1468 
L 90.380389 -62.1468 
L 90.704053 -62.1468 
L 91.027716 -62.1468 
L 91.35138 -62.1468 
L 91.675043 -62.1468 
L 91.998707 -62.1468 
L 91.998707 -62.144749 
L 91.998707 -62.144749 
L 91.675043 -62.144213 
L 91.35138 -62.142885 
L 91.027716 -62.139474 
L 90.704053 -62.134306 
L 90.380389 -62.129183 
L 90.056726 -62.125263 
L 89.733062 -62.121493 
L 89.409398 -62.115558 
L 89.085735 -62.106851 
L 88.762071 -62.095902 
L 88.438408 -62.079845 
L 88.114744 -62.054806 
L 87.791081 -62.023612 
L 87.467417 -61.991247 
L 87.143753 -61.955623 
L 86.82009 -61.912634 
L 86.496426 -61.86264 
L 86.172763 -61.802992 
L 85.849099 -61.725816 
L 85.525436 -61.629285 
L 85.201772 -61.517446 
L 84.878108 -61.394656 
L 84.554445 -61.264997 
L 84.230781 -61.126638 
L 83.907118 -60.967865 
L 83.583454 -60.776974 
L 83.259791 -60.56033 
L 82.936127 -60.339682 
L 82.612463 -60.121383 
L 82.2888 -59.892526 
L 81.965136 -59.649133 
L 81.641473 -59.393208 
L 81.317809 -59.12086 
L 80.994146 -58.843094 
L 80.670482 -58.574705 
L 80.346818 -58.306442 
L 80.023155 -58.020865 
L 79.699491 -57.71933 
L 79.375828 -57.436192 
L 79.052164 -57.200416 
L 78.7285 -56.998869 
L 78.404837 -56.815941 
L 78.081173 -56.656913 
L 77.75751 -56.512731 
L 77.433846 -56.369796 
L 77.110183 -56.235056 
L 76.786519 -56.122532 
L 76.462855 -56.046865 
L 76.139192 -56.02404 
L 75.815528 -56.067264 
L 75.491865 -56.177794 
L 75.168201 -56.327479 
L 74.844538 -56.471988 
L 74.520874 -56.592556 
L 74.19721 -56.7123 
L 73.873547 -56.876274 
L 73.549883 -57.091913 
L 73.22622 -57.322096 
L 72.902556 -57.564202 
L 72.578893 -57.838486 
L 72.255229 -58.122498 
L 71.931565 -58.389376 
L 71.607902 -58.645446 
L 71.284238 -58.909234 
L 70.960575 -59.186675 
L 70.636911 -59.460338 
L 70.313248 -59.710096 
L 69.989584 -59.929266 
L 69.66592 -60.128902 
L 69.342257 -60.32723 
L 69.018593 -60.518802 
L 68.69493 -60.688808 
L 68.371266 -60.844187 
L 68.047603 -60.994366 
L 67.723939 -61.135042 
L 67.400275 -61.261176 
L 67.076612 -61.374758 
L 66.752948 -61.482428 
L 66.429285 -61.586821 
L 66.105621 -61.683461 
L 65.781958 -61.768607 
L 65.458294 -61.842183 
L 65.13463 -61.902511 
L 64.810967 -61.94973 
L 64.487303 -61.991449 
L 64.16364 -62.030454 
L 63.839976 -62.060349 
L 63.516313 -62.078231 
L 63.192649 -62.089409 
L 62.868985 -62.099755 
L 62.545322 -62.109825 
L 62.221658 -62.11783 
L 61.897995 -62.12434 
L 61.574331 -62.130909 
L 61.250668 -62.137088 
L 60.927004 -62.1415 
L 60.60334 -62.14379 
L 60.279677 -62.144684 
L 59.956013 -62.14524 
z
" id="m865ae79ec7" style="stroke:#3f3f3f;stroke-width:0.8;"/>
    </defs>
    <g clip-path="url(#p421045112e)">
     <use style="fill:#3274a1;stroke:#3f3f3f;stroke-width:0.8;" x="0" xlink:href="#m865ae79ec7" y="90"/>
    </g>
   </g>
   <g id="PolyCollection_5">
    <defs>
     <path d="M 80.645541 -44.6532 
L 80.645541 -44.655814 
L 80.831053 -44.656795 
L 81.016565 -44.657888 
L 81.202077 -44.660227 
L 81.387589 -44.6645 
L 81.573101 -44.669879 
L 81.758613 -44.673979 
L 81.944125 -44.6773 
L 82.129638 -44.683549 
L 82.31515 -44.69482 
L 82.500662 -44.711874 
L 82.686174 -44.733338 
L 82.871686 -44.758367 
L 83.057198 -44.789164 
L 83.24271 -44.824928 
L 83.428222 -44.86683 
L 83.613735 -44.920671 
L 83.799247 -44.987102 
L 83.984759 -45.060835 
L 84.170271 -45.137487 
L 84.355783 -45.223163 
L 84.541295 -45.332357 
L 84.726807 -45.464001 
L 84.912319 -45.610121 
L 85.097832 -45.771009 
L 85.283344 -45.940232 
L 85.468856 -46.119616 
L 85.654368 -46.330151 
L 85.83988 -46.579189 
L 86.025392 -46.847703 
L 86.210904 -47.120529 
L 86.396416 -47.413714 
L 86.581929 -47.735189 
L 86.767441 -48.054708 
L 86.952953 -48.347302 
L 87.138465 -48.623117 
L 87.323977 -48.901514 
L 87.509489 -49.181011 
L 87.695001 -49.44902 
L 87.880513 -49.702614 
L 88.066026 -49.932778 
L 88.251538 -50.137669 
L 88.43705 -50.331702 
L 88.622562 -50.517836 
L 88.808074 -50.656052 
L 88.993586 -50.721284 
L 89.179098 -50.744737 
L 89.36461 -50.763847 
L 89.550123 -50.77596 
L 89.735635 -50.7498 
L 89.921147 -50.669528 
L 90.106659 -50.523163 
L 90.292171 -50.319763 
L 90.477683 -50.114652 
L 90.663195 -49.916504 
L 90.848707 -49.684375 
L 91.03422 -49.425543 
L 91.219732 -49.160555 
L 91.405244 -48.873066 
L 91.590756 -48.554106 
L 91.776268 -48.23376 
L 91.96178 -47.931924 
L 92.147292 -47.640274 
L 92.332804 -47.362772 
L 92.518317 -47.108546 
L 92.703829 -46.867495 
L 92.889341 -46.635895 
L 93.074853 -46.419229 
L 93.260365 -46.213181 
L 93.445877 -46.017547 
L 93.631389 -45.841226 
L 93.816901 -45.678304 
L 94.002414 -45.518124 
L 94.187926 -45.378302 
L 94.373438 -45.274755 
L 94.55895 -45.189219 
L 94.744462 -45.106418 
L 94.929974 -45.032527 
L 95.115486 -44.969661 
L 95.300998 -44.914694 
L 95.486511 -44.868066 
L 95.672023 -44.827901 
L 95.857535 -44.792424 
L 96.043047 -44.761741 
L 96.228559 -44.736842 
L 96.414071 -44.7189 
L 96.599583 -44.705075 
L 96.785095 -44.692374 
L 96.970608 -44.682471 
L 97.15612 -44.67646 
L 97.341632 -44.672428 
L 97.527144 -44.668438 
L 97.712656 -44.66409 
L 97.898168 -44.660211 
L 98.08368 -44.657724 
L 98.269192 -44.656652 
L 98.454705 -44.655885 
L 98.640217 -44.654833 
L 98.825729 -44.654134 
L 99.011241 -44.653912 
L 99.011241 -44.6532 
L 99.011241 -44.6532 
L 98.825729 -44.6532 
L 98.640217 -44.6532 
L 98.454705 -44.6532 
L 98.269192 -44.6532 
L 98.08368 -44.6532 
L 97.898168 -44.6532 
L 97.712656 -44.6532 
L 97.527144 -44.6532 
L 97.341632 -44.6532 
L 97.15612 -44.6532 
L 96.970608 -44.6532 
L 96.785095 -44.6532 
L 96.599583 -44.6532 
L 96.414071 -44.6532 
L 96.228559 -44.6532 
L 96.043047 -44.6532 
L 95.857535 -44.6532 
L 95.672023 -44.6532 
L 95.486511 -44.6532 
L 95.300998 -44.6532 
L 95.115486 -44.6532 
L 94.929974 -44.6532 
L 94.744462 -44.6532 
L 94.55895 -44.6532 
L 94.373438 -44.6532 
L 94.187926 -44.6532 
L 94.002414 -44.6532 
L 93.816901 -44.6532 
L 93.631389 -44.6532 
L 93.445877 -44.6532 
L 93.260365 -44.6532 
L 93.074853 -44.6532 
L 92.889341 -44.6532 
L 92.703829 -44.6532 
L 92.518317 -44.6532 
L 92.332804 -44.6532 
L 92.147292 -44.6532 
L 91.96178 -44.6532 
L 91.776268 -44.6532 
L 91.590756 -44.6532 
L 91.405244 -44.6532 
L 91.219732 -44.6532 
L 91.03422 -44.6532 
L 90.848707 -44.6532 
L 90.663195 -44.6532 
L 90.477683 -44.6532 
L 90.292171 -44.6532 
L 90.106659 -44.6532 
L 89.921147 -44.6532 
L 89.735635 -44.6532 
L 89.550123 -44.6532 
L 89.36461 -44.6532 
L 89.179098 -44.6532 
L 88.993586 -44.6532 
L 88.808074 -44.6532 
L 88.622562 -44.6532 
L 88.43705 -44.6532 
L 88.251538 -44.6532 
L 88.066026 -44.6532 
L 87.880513 -44.6532 
L 87.695001 -44.6532 
L 87.509489 -44.6532 
L 87.323977 -44.6532 
L 87.138465 -44.6532 
L 86.952953 -44.6532 
L 86.767441 -44.6532 
L 86.581929 -44.6532 
L 86.396416 -44.6532 
L 86.210904 -44.6532 
L 86.025392 -44.6532 
L 85.83988 -44.6532 
L 85.654368 -44.6532 
L 85.468856 -44.6532 
L 85.283344 -44.6532 
L 85.097832 -44.6532 
L 84.912319 -44.6532 
L 84.726807 -44.6532 
L 84.541295 -44.6532 
L 84.355783 -44.6532 
L 84.170271 -44.6532 
L 83.984759 -44.6532 
L 83.799247 -44.6532 
L 83.613735 -44.6532 
L 83.428222 -44.6532 
L 83.24271 -44.6532 
L 83.057198 -44.6532 
L 82.871686 -44.6532 
L 82.686174 -44.6532 
L 82.500662 -44.6532 
L 82.31515 -44.6532 
L 82.129638 -44.6532 
L 81.944125 -44.6532 
L 81.758613 -44.6532 
L 81.573101 -44.6532 
L 81.387589 -44.6532 
L 81.202077 -44.6532 
L 81.016565 -44.6532 
L 80.831053 -44.6532 
L 80.645541 -44.6532 
z
" id="m948bb51a22" style="stroke:#3f3f3f;stroke-width:0.8;"/>
    </defs>
    <g clip-path="url(#p421045112e)">
     <use style="fill:#e1b02a;stroke:#3f3f3f;stroke-width:0.8;" x="0" xlink:href="#m948bb51a22" y="90"/>
    </g>
   </g>
   <g id="PolyCollection_6">
    <defs>
     <path d="M 67.303748 -44.652586 
L 67.303748 -44.6532 
L 67.512288 -44.6532 
L 67.720828 -44.6532 
L 67.929368 -44.6532 
L 68.137908 -44.6532 
L 68.346449 -44.6532 
L 68.554989 -44.6532 
L 68.763529 -44.6532 
L 68.972069 -44.6532 
L 69.180609 -44.6532 
L 69.389149 -44.6532 
L 69.597689 -44.6532 
L 69.80623 -44.6532 
L 70.01477 -44.6532 
L 70.22331 -44.6532 
L 70.43185 -44.6532 
L 70.64039 -44.6532 
L 70.84893 -44.6532 
L 71.05747 -44.6532 
L 71.266011 -44.6532 
L 71.474551 -44.6532 
L 71.683091 -44.6532 
L 71.891631 -44.6532 
L 72.100171 -44.6532 
L 72.308711 -44.6532 
L 72.517252 -44.6532 
L 72.725792 -44.6532 
L 72.934332 -44.6532 
L 73.142872 -44.6532 
L 73.351412 -44.6532 
L 73.559952 -44.6532 
L 73.768492 -44.6532 
L 73.977033 -44.6532 
L 74.185573 -44.6532 
L 74.394113 -44.6532 
L 74.602653 -44.6532 
L 74.811193 -44.6532 
L 75.019733 -44.6532 
L 75.228273 -44.6532 
L 75.436814 -44.6532 
L 75.645354 -44.6532 
L 75.853894 -44.6532 
L 76.062434 -44.6532 
L 76.270974 -44.6532 
L 76.479514 -44.6532 
L 76.688054 -44.6532 
L 76.896595 -44.6532 
L 77.105135 -44.6532 
L 77.313675 -44.6532 
L 77.522215 -44.6532 
L 77.730755 -44.6532 
L 77.939295 -44.6532 
L 78.147835 -44.6532 
L 78.356376 -44.6532 
L 78.564916 -44.6532 
L 78.773456 -44.6532 
L 78.981996 -44.6532 
L 79.190536 -44.6532 
L 79.399076 -44.6532 
L 79.607616 -44.6532 
L 79.816157 -44.6532 
L 80.024697 -44.6532 
L 80.233237 -44.6532 
L 80.441777 -44.6532 
L 80.650317 -44.6532 
L 80.858857 -44.6532 
L 81.067398 -44.6532 
L 81.275938 -44.6532 
L 81.484478 -44.6532 
L 81.693018 -44.6532 
L 81.901558 -44.6532 
L 82.110098 -44.6532 
L 82.318638 -44.6532 
L 82.527179 -44.6532 
L 82.735719 -44.6532 
L 82.944259 -44.6532 
L 83.152799 -44.6532 
L 83.361339 -44.6532 
L 83.569879 -44.6532 
L 83.778419 -44.6532 
L 83.98696 -44.6532 
L 84.1955 -44.6532 
L 84.40404 -44.6532 
L 84.61258 -44.6532 
L 84.82112 -44.6532 
L 85.02966 -44.6532 
L 85.2382 -44.6532 
L 85.446741 -44.6532 
L 85.655281 -44.6532 
L 85.863821 -44.6532 
L 86.072361 -44.6532 
L 86.280901 -44.6532 
L 86.489441 -44.6532 
L 86.697981 -44.6532 
L 86.906522 -44.6532 
L 87.115062 -44.6532 
L 87.323602 -44.6532 
L 87.532142 -44.6532 
L 87.740682 -44.6532 
L 87.949222 -44.6532 
L 87.949222 -44.651115 
L 87.949222 -44.651115 
L 87.740682 -44.650707 
L 87.532142 -44.65067 
L 87.323602 -44.650181 
L 87.115062 -44.649206 
L 86.906522 -44.64852 
L 86.697981 -44.648485 
L 86.489441 -44.648408 
L 86.280901 -44.647107 
L 86.072361 -44.644022 
L 85.863821 -44.639406 
L 85.655281 -44.633276 
L 85.446741 -44.625769 
L 85.2382 -44.617568 
L 85.02966 -44.608356 
L 84.82112 -44.597589 
L 84.61258 -44.585238 
L 84.40404 -44.568776 
L 84.1955 -44.544517 
L 83.98696 -44.513673 
L 83.778419 -44.482694 
L 83.569879 -44.455843 
L 83.361339 -44.427988 
L 83.152799 -44.388131 
L 82.944259 -44.327557 
L 82.735719 -44.242834 
L 82.527179 -44.145316 
L 82.318638 -44.057159 
L 82.110098 -43.981256 
L 81.901558 -43.901424 
L 81.693018 -43.806597 
L 81.484478 -43.689719 
L 81.275938 -43.540658 
L 81.067398 -43.350768 
L 80.858857 -43.122622 
L 80.650317 -42.882571 
L 80.441777 -42.678176 
L 80.233237 -42.539989 
L 80.024697 -42.442847 
L 79.816157 -42.335082 
L 79.607616 -42.173287 
L 79.399076 -41.918902 
L 79.190536 -41.563078 
L 78.981996 -41.152685 
L 78.773456 -40.756439 
L 78.564916 -40.432651 
L 78.356376 -40.22498 
L 78.147835 -40.145641 
L 77.939295 -40.153288 
L 77.730755 -40.161791 
L 77.522215 -40.088345 
L 77.313675 -39.876186 
L 77.105135 -39.518314 
L 76.896595 -39.105914 
L 76.688054 -38.769157 
L 76.479514 -38.568044 
L 76.270974 -38.53044 
L 76.062434 -38.681683 
L 75.853894 -38.968065 
L 75.645354 -39.281465 
L 75.436814 -39.546373 
L 75.228273 -39.708388 
L 75.019733 -39.733469 
L 74.811193 -39.653048 
L 74.602653 -39.549396 
L 74.394113 -39.51448 
L 74.185573 -39.604049 
L 73.977033 -39.802577 
L 73.768492 -40.0762 
L 73.559952 -40.432707 
L 73.351412 -40.862694 
L 73.142872 -41.304256 
L 72.934332 -41.70116 
L 72.725792 -42.029124 
L 72.517252 -42.272895 
L 72.308711 -42.44117 
L 72.100171 -42.570852 
L 71.891631 -42.685159 
L 71.683091 -42.788826 
L 71.474551 -42.896421 
L 71.266011 -43.037986 
L 71.05747 -43.224895 
L 70.84893 -43.440583 
L 70.64039 -43.664419 
L 70.43185 -43.877373 
L 70.22331 -44.06644 
L 70.01477 -44.227865 
L 69.80623 -44.359133 
L 69.597689 -44.458112 
L 69.389149 -44.527785 
L 69.180609 -44.575063 
L 68.972069 -44.606864 
L 68.763529 -44.627705 
L 68.554989 -44.640193 
L 68.346449 -44.64663 
L 68.137908 -44.649601 
L 67.929368 -44.651281 
L 67.720828 -44.65229 
L 67.512288 -44.652581 
L 67.303748 -44.652586 
z
" id="m6b80556c44" style="stroke:#3f3f3f;stroke-width:0.8;"/>
    </defs>
    <g clip-path="url(#p421045112e)">
     <use style="fill:#3274a1;stroke:#3f3f3f;stroke-width:0.8;" x="0" xlink:href="#m6b80556c44" y="90"/>
    </g>
   </g>
   <g id="PolyCollection_7">
    <defs>
     <path d="M 94.667513 -27.1596 
L 94.667513 -27.160204 
L 94.857776 -27.16 
L 95.048039 -27.159717 
L 95.238302 -27.159642 
L 95.428565 -27.15982 
L 95.618828 -27.160379 
L 95.809091 -27.160811 
L 95.999354 -27.160462 
L 96.189617 -27.160137 
L 96.37988 -27.160584 
L 96.570143 -27.161262 
L 96.760406 -27.161692 
L 96.950669 -27.162147 
L 97.140932 -27.163458 
L 97.331196 -27.165771 
L 97.521459 -27.166714 
L 97.711722 -27.166743 
L 97.901985 -27.167879 
L 98.092248 -27.169787 
L 98.282511 -27.173104 
L 98.472774 -27.178121 
L 98.663037 -27.183474 
L 98.8533 -27.185558 
L 99.043563 -27.185839 
L 99.233826 -27.191575 
L 99.424089 -27.202846 
L 99.614352 -27.214887 
L 99.804615 -27.229478 
L 99.994879 -27.249306 
L 100.185142 -27.271048 
L 100.375405 -27.290495 
L 100.565668 -27.309784 
L 100.755931 -27.333758 
L 100.946194 -27.364623 
L 101.136457 -27.406348 
L 101.32672 -27.465079 
L 101.516983 -27.519233 
L 101.707246 -27.56045 
L 101.897509 -27.623379 
L 102.087772 -27.713466 
L 102.278035 -27.80205 
L 102.468298 -27.884595 
L 102.658562 -27.984061 
L 102.848825 -28.113321 
L 103.039088 -28.276707 
L 103.229351 -28.469676 
L 103.419614 -28.658405 
L 103.609877 -28.831783 
L 103.80014 -29.018478 
L 103.990403 -29.217968 
L 104.180666 -29.433959 
L 104.370929 -29.683631 
L 104.561192 -29.964313 
L 104.751455 -30.273413 
L 104.941718 -30.586384 
L 105.131981 -30.897476 
L 105.322245 -31.213234 
L 105.512508 -31.498523 
L 105.702771 -31.762468 
L 105.893034 -32.041393 
L 106.083297 -32.326702 
L 106.27356 -32.563332 
L 106.463823 -32.761066 
L 106.654086 -32.969694 
L 106.844349 -33.149227 
L 107.034612 -33.247336 
L 107.224875 -33.280543 
L 107.415138 -33.28236 
L 107.605401 -33.231734 
L 107.795664 -33.108373 
L 107.985928 -32.946119 
L 108.176191 -32.751332 
L 108.366454 -32.516123 
L 108.556717 -32.236648 
L 108.74698 -31.917404 
L 108.937243 -31.564277 
L 109.127506 -31.170581 
L 109.317769 -30.737922 
L 109.508032 -30.325662 
L 109.698295 -29.942515 
L 109.888558 -29.551874 
L 110.078821 -29.16065 
L 110.269084 -28.809029 
L 110.459347 -28.507074 
L 110.649611 -28.231745 
L 110.839874 -27.996856 
L 111.030137 -27.812571 
L 111.2204 -27.662037 
L 111.410663 -27.536096 
L 111.600926 -27.434807 
L 111.791189 -27.35376 
L 111.981452 -27.291612 
L 112.171715 -27.250771 
L 112.361978 -27.221254 
L 112.552241 -27.198617 
L 112.742504 -27.185019 
L 112.932767 -27.175823 
L 113.12303 -27.168647 
L 113.313294 -27.163917 
L 113.503557 -27.161508 
L 113.503557 -27.1596 
L 113.503557 -27.1596 
L 113.313294 -27.1596 
L 113.12303 -27.1596 
L 112.932767 -27.1596 
L 112.742504 -27.1596 
L 112.552241 -27.1596 
L 112.361978 -27.1596 
L 112.171715 -27.1596 
L 111.981452 -27.1596 
L 111.791189 -27.1596 
L 111.600926 -27.1596 
L 111.410663 -27.1596 
L 111.2204 -27.1596 
L 111.030137 -27.1596 
L 110.839874 -27.1596 
L 110.649611 -27.1596 
L 110.459347 -27.1596 
L 110.269084 -27.1596 
L 110.078821 -27.1596 
L 109.888558 -27.1596 
L 109.698295 -27.1596 
L 109.508032 -27.1596 
L 109.317769 -27.1596 
L 109.127506 -27.1596 
L 108.937243 -27.1596 
L 108.74698 -27.1596 
L 108.556717 -27.1596 
L 108.366454 -27.1596 
L 108.176191 -27.1596 
L 107.985928 -27.1596 
L 107.795664 -27.1596 
L 107.605401 -27.1596 
L 107.415138 -27.1596 
L 107.224875 -27.1596 
L 107.034612 -27.1596 
L 106.844349 -27.1596 
L 106.654086 -27.1596 
L 106.463823 -27.1596 
L 106.27356 -27.1596 
L 106.083297 -27.1596 
L 105.893034 -27.1596 
L 105.702771 -27.1596 
L 105.512508 -27.1596 
L 105.322245 -27.1596 
L 105.131981 -27.1596 
L 104.941718 -27.1596 
L 104.751455 -27.1596 
L 104.561192 -27.1596 
L 104.370929 -27.1596 
L 104.180666 -27.1596 
L 103.990403 -27.1596 
L 103.80014 -27.1596 
L 103.609877 -27.1596 
L 103.419614 -27.1596 
L 103.229351 -27.1596 
L 103.039088 -27.1596 
L 102.848825 -27.1596 
L 102.658562 -27.1596 
L 102.468298 -27.1596 
L 102.278035 -27.1596 
L 102.087772 -27.1596 
L 101.897509 -27.1596 
L 101.707246 -27.1596 
L 101.516983 -27.1596 
L 101.32672 -27.1596 
L 101.136457 -27.1596 
L 100.946194 -27.1596 
L 100.755931 -27.1596 
L 100.565668 -27.1596 
L 100.375405 -27.1596 
L 100.185142 -27.1596 
L 99.994879 -27.1596 
L 99.804615 -27.1596 
L 99.614352 -27.1596 
L 99.424089 -27.1596 
L 99.233826 -27.1596 
L 99.043563 -27.1596 
L 98.8533 -27.1596 
L 98.663037 -27.1596 
L 98.472774 -27.1596 
L 98.282511 -27.1596 
L 98.092248 -27.1596 
L 97.901985 -27.1596 
L 97.711722 -27.1596 
L 97.521459 -27.1596 
L 97.331196 -27.1596 
L 97.140932 -27.1596 
L 96.950669 -27.1596 
L 96.760406 -27.1596 
L 96.570143 -27.1596 
L 96.37988 -27.1596 
L 96.189617 -27.1596 
L 95.999354 -27.1596 
L 95.809091 -27.1596 
L 95.618828 -27.1596 
L 95.428565 -27.1596 
L 95.238302 -27.1596 
L 95.048039 -27.1596 
L 94.857776 -27.1596 
L 94.667513 -27.1596 
z
" id="m04f8d4d0d6" style="stroke:#3f3f3f;stroke-width:0.8;"/>
    </defs>
    <g clip-path="url(#p421045112e)">
     <use style="fill:#e1b02a;stroke:#3f3f3f;stroke-width:0.8;" x="0" xlink:href="#m04f8d4d0d6" y="90"/>
    </g>
   </g>
   <g id="PolyCollection_8">
    <defs>
     <path d="M 80.414024 -27.158905 
L 80.414024 -27.1596 
L 80.897982 -27.1596 
L 81.38194 -27.1596 
L 81.865899 -27.1596 
L 82.349857 -27.1596 
L 82.833815 -27.1596 
L 83.317774 -27.1596 
L 83.801732 -27.1596 
L 84.28569 -27.1596 
L 84.769648 -27.1596 
L 85.253607 -27.1596 
L 85.737565 -27.1596 
L 86.221523 -27.1596 
L 86.705481 -27.1596 
L 87.18944 -27.1596 
L 87.673398 -27.1596 
L 88.157356 -27.1596 
L 88.641314 -27.1596 
L 89.125273 -27.1596 
L 89.609231 -27.1596 
L 90.093189 -27.1596 
L 90.577148 -27.1596 
L 91.061106 -27.1596 
L 91.545064 -27.1596 
L 92.029022 -27.1596 
L 92.512981 -27.1596 
L 92.996939 -27.1596 
L 93.480897 -27.1596 
L 93.964855 -27.1596 
L 94.448814 -27.1596 
L 94.932772 -27.1596 
L 95.41673 -27.1596 
L 95.900688 -27.1596 
L 96.384647 -27.1596 
L 96.868605 -27.1596 
L 97.352563 -27.1596 
L 97.836522 -27.1596 
L 98.32048 -27.1596 
L 98.804438 -27.1596 
L 99.288396 -27.1596 
L 99.772355 -27.1596 
L 100.256313 -27.1596 
L 100.740271 -27.1596 
L 101.224229 -27.1596 
L 101.708188 -27.1596 
L 102.192146 -27.1596 
L 102.676104 -27.1596 
L 103.160063 -27.1596 
L 103.644021 -27.1596 
L 104.127979 -27.1596 
L 104.611937 -27.1596 
L 105.095896 -27.1596 
L 105.579854 -27.1596 
L 106.063812 -27.1596 
L 106.54777 -27.1596 
L 107.031729 -27.1596 
L 107.515687 -27.1596 
L 107.999645 -27.1596 
L 108.483603 -27.1596 
L 108.967562 -27.1596 
L 109.45152 -27.1596 
L 109.935478 -27.1596 
L 110.419437 -27.1596 
L 110.903395 -27.1596 
L 111.387353 -27.1596 
L 111.871311 -27.1596 
L 112.35527 -27.1596 
L 112.839228 -27.1596 
L 113.323186 -27.1596 
L 113.807144 -27.1596 
L 114.291103 -27.1596 
L 114.775061 -27.1596 
L 115.259019 -27.1596 
L 115.742978 -27.1596 
L 116.226936 -27.1596 
L 116.710894 -27.1596 
L 117.194852 -27.1596 
L 117.678811 -27.1596 
L 118.162769 -27.1596 
L 118.646727 -27.1596 
L 119.130685 -27.1596 
L 119.614644 -27.1596 
L 120.098602 -27.1596 
L 120.58256 -27.1596 
L 121.066518 -27.1596 
L 121.550477 -27.1596 
L 122.034435 -27.1596 
L 122.518393 -27.1596 
L 123.002352 -27.1596 
L 123.48631 -27.1596 
L 123.970268 -27.1596 
L 124.454226 -27.1596 
L 124.938185 -27.1596 
L 125.422143 -27.1596 
L 125.906101 -27.1596 
L 126.390059 -27.1596 
L 126.874018 -27.1596 
L 127.357976 -27.1596 
L 127.841934 -27.1596 
L 128.325892 -27.1596 
L 128.325892 -27.157888 
L 128.325892 -27.157888 
L 127.841934 -27.157003 
L 127.357976 -27.156122 
L 126.874018 -27.154883 
L 126.390059 -27.152925 
L 125.906101 -27.149414 
L 125.422143 -27.144518 
L 124.938185 -27.139852 
L 124.454226 -27.134806 
L 123.970268 -27.126957 
L 123.48631 -27.114928 
L 123.002352 -27.098629 
L 122.518393 -27.079059 
L 122.034435 -27.056357 
L 121.550477 -27.027655 
L 121.066518 -26.989679 
L 120.58256 -26.939825 
L 120.098602 -26.877469 
L 119.614644 -26.80952 
L 119.130685 -26.742872 
L 118.646727 -26.675789 
L 118.162769 -26.600221 
L 117.678811 -26.504958 
L 117.194852 -26.38244 
L 116.710894 -26.234669 
L 116.226936 -26.071821 
L 115.742978 -25.900002 
L 115.259019 -25.72086 
L 114.775061 -25.526482 
L 114.291103 -25.294141 
L 113.807144 -25.029456 
L 113.323186 -24.767721 
L 112.839228 -24.513031 
L 112.35527 -24.243016 
L 111.871311 -23.951863 
L 111.387353 -23.666754 
L 110.903395 -23.408919 
L 110.419437 -23.149806 
L 109.935478 -22.853144 
L 109.45152 -22.53096 
L 108.967562 -22.235784 
L 108.483603 -21.997527 
L 107.999645 -21.788025 
L 107.515687 -21.586714 
L 107.031729 -21.426579 
L 106.54777 -21.312232 
L 106.063812 -21.186931 
L 105.579854 -21.063004 
L 105.095896 -21.03684 
L 104.611937 -21.120272 
L 104.127979 -21.219829 
L 103.644021 -21.295055 
L 103.160063 -21.373109 
L 102.676104 -21.466485 
L 102.192146 -21.605237 
L 101.708188 -21.798967 
L 101.224229 -22.001026 
L 100.740271 -22.209484 
L 100.256313 -22.471583 
L 99.772355 -22.781135 
L 99.288396 -23.09209 
L 98.804438 -23.380323 
L 98.32048 -23.647818 
L 97.836522 -23.911421 
L 97.352563 -24.190121 
L 96.868605 -24.478693 
L 96.384647 -24.756857 
L 95.900688 -25.025996 
L 95.41673 -25.293565 
L 94.932772 -25.542876 
L 94.448814 -25.749816 
L 93.964855 -25.922514 
L 93.480897 -26.089118 
L 92.996939 -26.249318 
L 92.512981 -26.389312 
L 92.029022 -26.512558 
L 91.545064 -26.626746 
L 91.061106 -26.726072 
L 90.577148 -26.802411 
L 90.093189 -26.863117 
L 89.609231 -26.916326 
L 89.125273 -26.963813 
L 88.641314 -27.007423 
L 88.157356 -27.044203 
L 87.673398 -27.070471 
L 87.18944 -27.088722 
L 86.705481 -27.104696 
L 86.221523 -27.120284 
L 85.737565 -27.130852 
L 85.253607 -27.13448 
L 84.769648 -27.13687 
L 84.28569 -27.14161 
L 83.801732 -27.146986 
L 83.317774 -27.15146 
L 82.833815 -27.154879 
L 82.349857 -27.157173 
L 81.865899 -27.158311 
L 81.38194 -27.158737 
L 80.897982 -27.158855 
L 80.414024 -27.158905 
z
" id="m0014243d51" style="stroke:#3f3f3f;stroke-width:0.8;"/>
    </defs>
    <g clip-path="url(#p421045112e)">
     <use style="fill:#3274a1;stroke:#3f3f3f;stroke-width:0.8;" x="0" xlink:href="#m0014243d51" y="90"/>
    </g>
   </g>
   <g id="patch_3">
    <path clip-path="url(#p421045112e)" d="M 49.4228 10.3596 
L 49.4228 10.3596 
L 49.4228 10.3596 
L 49.4228 10.3596 
z
" style="fill:#e1b02a;stroke:#3f3f3f;stroke-linejoin:miter;stroke-width:0.4;"/>
   </g>
   <g id="patch_4">
    <path clip-path="url(#p421045112e)" d="M 49.4228 10.3596 
L 49.4228 10.3596 
L 49.4228 10.3596 
L 49.4228 10.3596 
z
" style="fill:#3274a1;stroke:#3f3f3f;stroke-linejoin:miter;stroke-width:0.4;"/>
   </g>
   <g id="line2d_17">
    <path clip-path="url(#p421045112e)" d="M 55.376431 10.3596 
L 87.892971 10.3596 
" style="fill:none;stroke:#3f3f3f;stroke-linecap:round;stroke-width:0.8;"/>
   </g>
   <g id="line2d_18">
    <path clip-path="url(#p421045112e)" d="M 60.083736 10.3596 
L 76.666125 10.3596 
" style="fill:none;stroke:#3f3f3f;stroke-linecap:round;stroke-width:2.4;"/>
   </g>
   <g id="line2d_19">
    <path clip-path="url(#p421045112e)" d="M 59.893935 27.8532 
L 90.842493 27.8532 
" style="fill:none;stroke:#3f3f3f;stroke-linecap:round;stroke-width:0.8;"/>
   </g>
   <g id="line2d_20">
    <path clip-path="url(#p421045112e)" d="M 71.501258 27.8532 
L 79.240416 27.8532 
" style="fill:none;stroke:#3f3f3f;stroke-linecap:round;stroke-width:2.4;"/>
   </g>
   <g id="line2d_21">
    <path clip-path="url(#p421045112e)" d="M 67.303748 45.3468 
L 99.011241 45.3468 
" style="fill:none;stroke:#3f3f3f;stroke-linecap:round;stroke-width:0.8;"/>
   </g>
   <g id="line2d_22">
    <path clip-path="url(#p421045112e)" d="M 76.14016 45.3468 
L 89.376074 45.3468 
" style="fill:none;stroke:#3f3f3f;stroke-linecap:round;stroke-width:2.4;"/>
   </g>
   <g id="line2d_23">
    <path clip-path="url(#p421045112e)" d="M 96.50535 62.8404 
L 115.738241 62.8404 
" style="fill:none;stroke:#3f3f3f;stroke-linecap:round;stroke-width:0.8;"/>
   </g>
   <g id="line2d_24">
    <path clip-path="url(#p421045112e)" d="M 103.717593 62.8404 
L 108.526018 62.8404 
" style="fill:none;stroke:#3f3f3f;stroke-linecap:round;stroke-width:2.4;"/>
   </g>
   <g id="line2d_25">
    <path clip-path="url(#p421045112e)" d="M 60.143259 8.1729 
L 60.143259 8.128273 
L 60.143259 8.083647 
L 60.143259 8.03902 
L 60.143259 7.994394 
L 60.143259 7.949767 
L 60.143259 7.905141 
L 60.143259 7.860514 
L 60.143259 7.815888 
L 60.143259 7.771261 
L 60.143259 7.726635 
L 60.143259 7.682008 
L 60.143259 7.637382 
L 60.143259 7.592755 
L 60.143259 7.548129 
L 60.143259 7.503502 
L 60.143259 7.458876 
L 60.143259 7.414249 
L 60.143259 7.369622 
L 60.143259 7.324996 
L 60.143259 7.280369 
L 60.143259 7.235743 
L 60.143259 7.191116 
L 60.143259 7.14649 
L 60.143259 7.101863 
L 60.143259 7.057237 
L 60.143259 7.01261 
L 60.143259 6.967984 
L 60.143259 6.923357 
L 60.143259 6.878731 
L 60.143259 6.834104 
L 60.143259 6.789478 
L 60.143259 6.744851 
L 60.143259 6.700224 
L 60.143259 6.655598 
L 60.143259 6.610971 
L 60.143259 6.566345 
L 60.143259 6.521718 
L 60.143259 6.477092 
L 60.143259 6.432465 
L 60.143259 6.387839 
L 60.143259 6.343212 
L 60.143259 6.298586 
L 60.143259 6.253959 
L 60.143259 6.209333 
L 60.143259 6.164706 
L 60.143259 6.12008 
L 60.143259 6.075453 
L 60.143259 6.030827 
L 60.143259 5.9862 
" style="fill:none;stroke:#ffffff;stroke-linecap:round;stroke-width:2;"/>
   </g>
   <g id="line2d_26">
    <path clip-path="url(#p421045112e)" d="M 60.143259 8.1729 
L 60.143259 8.128273 
L 60.143259 8.083647 
L 60.143259 8.03902 
L 60.143259 7.994394 
L 60.143259 7.949767 
L 60.143259 7.905141 
L 60.143259 7.860514 
L 60.143259 7.815888 
L 60.143259 7.771261 
L 60.143259 7.726635 
L 60.143259 7.682008 
L 60.143259 7.637382 
L 60.143259 7.592755 
L 60.143259 7.548129 
L 60.143259 7.503502 
L 60.143259 7.458876 
L 60.143259 7.414249 
L 60.143259 7.369622 
L 60.143259 7.324996 
L 60.143259 7.280369 
L 60.143259 7.235743 
L 60.143259 7.191116 
L 60.143259 7.14649 
L 60.143259 7.101863 
L 60.143259 7.057237 
L 60.143259 7.01261 
L 60.143259 6.967984 
L 60.143259 6.923357 
L 60.143259 6.878731 
L 60.143259 6.834104 
L 60.143259 6.789478 
L 60.143259 6.744851 
L 60.143259 6.700224 
L 60.143259 6.655598 
L 60.143259 6.610971 
L 60.143259 6.566345 
L 60.143259 6.521718 
L 60.143259 6.477092 
L 60.143259 6.432465 
L 60.143259 6.387839 
L 60.143259 6.343212 
L 60.143259 6.298586 
L 60.143259 6.253959 
L 60.143259 6.209333 
L 60.143259 6.164706 
L 60.143259 6.12008 
L 60.143259 6.075453 
L 60.143259 6.030827 
L 60.143259 5.9862 
" style="fill:none;opacity:0.85;stroke:#000000;stroke-linecap:round;stroke-width:1.8;"/>
   </g>
   <g id="line2d_27">
    <path clip-path="url(#p421045112e)" d="M 76.751542 12.5463 
L 76.751542 12.590927 
L 76.751542 12.635553 
L 76.751542 12.68018 
L 76.751542 12.724806 
L 76.751542 12.769433 
L 76.751542 12.814059 
L 76.751542 12.858686 
L 76.751542 12.903312 
L 76.751542 12.947939 
L 76.751542 12.992565 
L 76.751542 13.037192 
L 76.751542 13.081818 
L 76.751542 13.126445 
L 76.751542 13.171071 
L 76.751542 13.215698 
L 76.751542 13.260324 
L 76.751542 13.304951 
L 76.751542 13.349578 
L 76.751542 13.394204 
L 76.751542 13.438831 
L 76.751542 13.483457 
L 76.751542 13.528084 
L 76.751542 13.57271 
L 76.751542 13.617337 
L 76.751542 13.661963 
L 76.751542 13.70659 
L 76.751542 13.751216 
L 76.751542 13.795843 
L 76.751542 13.840469 
L 76.751542 13.885096 
L 76.751542 13.929722 
L 76.751542 13.974349 
L 76.751542 14.018976 
L 76.751542 14.063602 
L 76.751542 14.108229 
L 76.751542 14.152855 
L 76.751542 14.197482 
L 76.751542 14.242108 
L 76.751542 14.286735 
L 76.751542 14.331361 
L 76.751542 14.375988 
L 76.751542 14.420614 
L 76.751542 14.465241 
L 76.751542 14.509867 
L 76.751542 14.554494 
L 76.751542 14.59912 
L 76.751542 14.643747 
L 76.751542 14.688373 
L 76.751542 14.733 
" style="fill:none;stroke:#ffffff;stroke-linecap:round;stroke-width:2;"/>
   </g>
   <g id="line2d_28">
    <path clip-path="url(#p421045112e)" d="M 76.751542 12.5463 
L 76.751542 12.590927 
L 76.751542 12.635553 
L 76.751542 12.68018 
L 76.751542 12.724806 
L 76.751542 12.769433 
L 76.751542 12.814059 
L 76.751542 12.858686 
L 76.751542 12.903312 
L 76.751542 12.947939 
L 76.751542 12.992565 
L 76.751542 13.037192 
L 76.751542 13.081818 
L 76.751542 13.126445 
L 76.751542 13.171071 
L 76.751542 13.215698 
L 76.751542 13.260324 
L 76.751542 13.304951 
L 76.751542 13.349578 
L 76.751542 13.394204 
L 76.751542 13.438831 
L 76.751542 13.483457 
L 76.751542 13.528084 
L 76.751542 13.57271 
L 76.751542 13.617337 
L 76.751542 13.661963 
L 76.751542 13.70659 
L 76.751542 13.751216 
L 76.751542 13.795843 
L 76.751542 13.840469 
L 76.751542 13.885096 
L 76.751542 13.929722 
L 76.751542 13.974349 
L 76.751542 14.018976 
L 76.751542 14.063602 
L 76.751542 14.108229 
L 76.751542 14.152855 
L 76.751542 14.197482 
L 76.751542 14.242108 
L 76.751542 14.286735 
L 76.751542 14.331361 
L 76.751542 14.375988 
L 76.751542 14.420614 
L 76.751542 14.465241 
L 76.751542 14.509867 
L 76.751542 14.554494 
L 76.751542 14.59912 
L 76.751542 14.643747 
L 76.751542 14.688373 
L 76.751542 14.733 
" style="fill:none;opacity:0.85;stroke:#000000;stroke-linecap:round;stroke-width:1.8;"/>
   </g>
   <g id="line2d_29">
    <path clip-path="url(#p421045112e)" d="M 74.820119 25.6665 
L 74.820119 25.621873 
L 74.820119 25.577247 
L 74.820119 25.53262 
L 74.820119 25.487994 
L 74.820119 25.443367 
L 74.820119 25.398741 
L 74.820119 25.354114 
L 74.820119 25.309488 
L 74.820119 25.264861 
L 74.820119 25.220235 
L 74.820119 25.175608 
L 74.820119 25.130982 
L 74.820119 25.086355 
L 74.820119 25.041729 
L 74.820119 24.997102 
L 74.820119 24.952476 
L 74.820119 24.907849 
L 74.820119 24.863222 
L 74.820119 24.818596 
L 74.820119 24.773969 
L 74.820119 24.729343 
L 74.820119 24.684716 
L 74.820119 24.64009 
L 74.820119 24.595463 
L 74.820119 24.550837 
L 74.820119 24.50621 
L 74.820119 24.461584 
L 74.820119 24.416957 
L 74.820119 24.372331 
L 74.820119 24.327704 
L 74.820119 24.283078 
L 74.820119 24.238451 
L 74.820119 24.193824 
L 74.820119 24.149198 
L 74.820119 24.104571 
L 74.820119 24.059945 
L 74.820119 24.015318 
L 74.820119 23.970692 
L 74.820119 23.926065 
L 74.820119 23.881439 
L 74.820119 23.836812 
L 74.820119 23.792186 
L 74.820119 23.747559 
L 74.820119 23.702933 
L 74.820119 23.658306 
L 74.820119 23.61368 
L 74.820119 23.569053 
L 74.820119 23.524427 
L 74.820119 23.4798 
" style="fill:none;stroke:#ffffff;stroke-linecap:round;stroke-width:2;"/>
   </g>
   <g id="line2d_30">
    <path clip-path="url(#p421045112e)" d="M 74.820119 25.6665 
L 74.820119 25.621873 
L 74.820119 25.577247 
L 74.820119 25.53262 
L 74.820119 25.487994 
L 74.820119 25.443367 
L 74.820119 25.398741 
L 74.820119 25.354114 
L 74.820119 25.309488 
L 74.820119 25.264861 
L 74.820119 25.220235 
L 74.820119 25.175608 
L 74.820119 25.130982 
L 74.820119 25.086355 
L 74.820119 25.041729 
L 74.820119 24.997102 
L 74.820119 24.952476 
L 74.820119 24.907849 
L 74.820119 24.863222 
L 74.820119 24.818596 
L 74.820119 24.773969 
L 74.820119 24.729343 
L 74.820119 24.684716 
L 74.820119 24.64009 
L 74.820119 24.595463 
L 74.820119 24.550837 
L 74.820119 24.50621 
L 74.820119 24.461584 
L 74.820119 24.416957 
L 74.820119 24.372331 
L 74.820119 24.327704 
L 74.820119 24.283078 
L 74.820119 24.238451 
L 74.820119 24.193824 
L 74.820119 24.149198 
L 74.820119 24.104571 
L 74.820119 24.059945 
L 74.820119 24.015318 
L 74.820119 23.970692 
L 74.820119 23.926065 
L 74.820119 23.881439 
L 74.820119 23.836812 
L 74.820119 23.792186 
L 74.820119 23.747559 
L 74.820119 23.702933 
L 74.820119 23.658306 
L 74.820119 23.61368 
L 74.820119 23.569053 
L 74.820119 23.524427 
L 74.820119 23.4798 
" style="fill:none;opacity:0.85;stroke:#000000;stroke-linecap:round;stroke-width:1.8;"/>
   </g>
   <g id="line2d_31">
    <path clip-path="url(#p421045112e)" d="M 76.427752 30.0399 
L 76.427752 30.084527 
L 76.427752 30.129153 
L 76.427752 30.17378 
L 76.427752 30.218406 
L 76.427752 30.263033 
L 76.427752 30.307659 
L 76.427752 30.352286 
L 76.427752 30.396912 
L 76.427752 30.441539 
L 76.427752 30.486165 
L 76.427752 30.530792 
L 76.427752 30.575418 
L 76.427752 30.620045 
L 76.427752 30.664671 
L 76.427752 30.709298 
L 76.427752 30.753924 
L 76.427752 30.798551 
L 76.427752 30.843178 
L 76.427752 30.887804 
L 76.427752 30.932431 
L 76.427752 30.977057 
L 76.427752 31.021684 
L 76.427752 31.06631 
L 76.427752 31.110937 
L 76.427752 31.155563 
L 76.427752 31.20019 
L 76.427752 31.244816 
L 76.427752 31.289443 
L 76.427752 31.334069 
L 76.427752 31.378696 
L 76.427752 31.423322 
L 76.427752 31.467949 
L 76.427752 31.512576 
L 76.427752 31.557202 
L 76.427752 31.601829 
L 76.427752 31.646455 
L 76.427752 31.691082 
L 76.427752 31.735708 
L 76.427752 31.780335 
L 76.427752 31.824961 
L 76.427752 31.869588 
L 76.427752 31.914214 
L 76.427752 31.958841 
L 76.427752 32.003467 
L 76.427752 32.048094 
L 76.427752 32.09272 
L 76.427752 32.137347 
L 76.427752 32.181973 
L 76.427752 32.2266 
" style="fill:none;stroke:#ffffff;stroke-linecap:round;stroke-width:2;"/>
   </g>
   <g id="line2d_32">
    <path clip-path="url(#p421045112e)" d="M 76.427752 30.0399 
L 76.427752 30.084527 
L 76.427752 30.129153 
L 76.427752 30.17378 
L 76.427752 30.218406 
L 76.427752 30.263033 
L 76.427752 30.307659 
L 76.427752 30.352286 
L 76.427752 30.396912 
L 76.427752 30.441539 
L 76.427752 30.486165 
L 76.427752 30.530792 
L 76.427752 30.575418 
L 76.427752 30.620045 
L 76.427752 30.664671 
L 76.427752 30.709298 
L 76.427752 30.753924 
L 76.427752 30.798551 
L 76.427752 30.843178 
L 76.427752 30.887804 
L 76.427752 30.932431 
L 76.427752 30.977057 
L 76.427752 31.021684 
L 76.427752 31.06631 
L 76.427752 31.110937 
L 76.427752 31.155563 
L 76.427752 31.20019 
L 76.427752 31.244816 
L 76.427752 31.289443 
L 76.427752 31.334069 
L 76.427752 31.378696 
L 76.427752 31.423322 
L 76.427752 31.467949 
L 76.427752 31.512576 
L 76.427752 31.557202 
L 76.427752 31.601829 
L 76.427752 31.646455 
L 76.427752 31.691082 
L 76.427752 31.735708 
L 76.427752 31.780335 
L 76.427752 31.824961 
L 76.427752 31.869588 
L 76.427752 31.914214 
L 76.427752 31.958841 
L 76.427752 32.003467 
L 76.427752 32.048094 
L 76.427752 32.09272 
L 76.427752 32.137347 
L 76.427752 32.181973 
L 76.427752 32.2266 
" style="fill:none;opacity:0.85;stroke:#000000;stroke-linecap:round;stroke-width:1.8;"/>
   </g>
   <g id="line2d_33">
    <path clip-path="url(#p421045112e)" d="M 89.461635 43.1601 
L 89.461635 43.115473 
L 89.461635 43.070847 
L 89.461635 43.02622 
L 89.461635 42.981594 
L 89.461635 42.936967 
L 89.461635 42.892341 
L 89.461635 42.847714 
L 89.461635 42.803088 
L 89.461635 42.758461 
L 89.461635 42.713835 
L 89.461635 42.669208 
L 89.461635 42.624582 
L 89.461635 42.579955 
L 89.461635 42.535329 
L 89.461635 42.490702 
L 89.461635 42.446076 
L 89.461635 42.401449 
L 89.461635 42.356822 
L 89.461635 42.312196 
L 89.461635 42.267569 
L 89.461635 42.222943 
L 89.461635 42.178316 
L 89.461635 42.13369 
L 89.461635 42.089063 
L 89.461635 42.044437 
L 89.461635 41.99981 
L 89.461635 41.955184 
L 89.461635 41.910557 
L 89.461635 41.865931 
L 89.461635 41.821304 
L 89.461635 41.776678 
L 89.461635 41.732051 
L 89.461635 41.687424 
L 89.461635 41.642798 
L 89.461635 41.598171 
L 89.461635 41.553545 
L 89.461635 41.508918 
L 89.461635 41.464292 
L 89.461635 41.419665 
L 89.461635 41.375039 
L 89.461635 41.330412 
L 89.461635 41.285786 
L 89.461635 41.241159 
L 89.461635 41.196533 
L 89.461635 41.151906 
L 89.461635 41.10728 
L 89.461635 41.062653 
L 89.461635 41.018027 
L 89.461635 40.9734 
" style="fill:none;stroke:#ffffff;stroke-linecap:round;stroke-width:2;"/>
   </g>
   <g id="line2d_34">
    <path clip-path="url(#p421045112e)" d="M 89.461635 43.1601 
L 89.461635 43.115473 
L 89.461635 43.070847 
L 89.461635 43.02622 
L 89.461635 42.981594 
L 89.461635 42.936967 
L 89.461635 42.892341 
L 89.461635 42.847714 
L 89.461635 42.803088 
L 89.461635 42.758461 
L 89.461635 42.713835 
L 89.461635 42.669208 
L 89.461635 42.624582 
L 89.461635 42.579955 
L 89.461635 42.535329 
L 89.461635 42.490702 
L 89.461635 42.446076 
L 89.461635 42.401449 
L 89.461635 42.356822 
L 89.461635 42.312196 
L 89.461635 42.267569 
L 89.461635 42.222943 
L 89.461635 42.178316 
L 89.461635 42.13369 
L 89.461635 42.089063 
L 89.461635 42.044437 
L 89.461635 41.99981 
L 89.461635 41.955184 
L 89.461635 41.910557 
L 89.461635 41.865931 
L 89.461635 41.821304 
L 89.461635 41.776678 
L 89.461635 41.732051 
L 89.461635 41.687424 
L 89.461635 41.642798 
L 89.461635 41.598171 
L 89.461635 41.553545 
L 89.461635 41.508918 
L 89.461635 41.464292 
L 89.461635 41.419665 
L 89.461635 41.375039 
L 89.461635 41.330412 
L 89.461635 41.285786 
L 89.461635 41.241159 
L 89.461635 41.196533 
L 89.461635 41.151906 
L 89.461635 41.10728 
L 89.461635 41.062653 
L 89.461635 41.018027 
L 89.461635 40.9734 
" style="fill:none;opacity:0.85;stroke:#000000;stroke-linecap:round;stroke-width:1.8;"/>
   </g>
   <g id="line2d_35">
    <path clip-path="url(#p421045112e)" d="M 76.31101 47.5335 
L 76.31101 47.578127 
L 76.31101 47.622753 
L 76.31101 47.66738 
L 76.31101 47.712006 
L 76.31101 47.756633 
L 76.31101 47.801259 
L 76.31101 47.845886 
L 76.31101 47.890512 
L 76.31101 47.935139 
L 76.31101 47.979765 
L 76.31101 48.024392 
L 76.31101 48.069018 
L 76.31101 48.113645 
L 76.31101 48.158271 
L 76.31101 48.202898 
L 76.31101 48.247524 
L 76.31101 48.292151 
L 76.31101 48.336778 
L 76.31101 48.381404 
L 76.31101 48.426031 
L 76.31101 48.470657 
L 76.31101 48.515284 
L 76.31101 48.55991 
L 76.31101 48.604537 
L 76.31101 48.649163 
L 76.31101 48.69379 
L 76.31101 48.738416 
L 76.31101 48.783043 
L 76.31101 48.827669 
L 76.31101 48.872296 
L 76.31101 48.916922 
L 76.31101 48.961549 
L 76.31101 49.006176 
L 76.31101 49.050802 
L 76.31101 49.095429 
L 76.31101 49.140055 
L 76.31101 49.184682 
L 76.31101 49.229308 
L 76.31101 49.273935 
L 76.31101 49.318561 
L 76.31101 49.363188 
L 76.31101 49.407814 
L 76.31101 49.452441 
L 76.31101 49.497067 
L 76.31101 49.541694 
L 76.31101 49.58632 
L 76.31101 49.630947 
L 76.31101 49.675573 
L 76.31101 49.7202 
" style="fill:none;stroke:#ffffff;stroke-linecap:round;stroke-width:2;"/>
   </g>
   <g id="line2d_36">
    <path clip-path="url(#p421045112e)" d="M 76.31101 47.5335 
L 76.31101 47.578127 
L 76.31101 47.622753 
L 76.31101 47.66738 
L 76.31101 47.712006 
L 76.31101 47.756633 
L 76.31101 47.801259 
L 76.31101 47.845886 
L 76.31101 47.890512 
L 76.31101 47.935139 
L 76.31101 47.979765 
L 76.31101 48.024392 
L 76.31101 48.069018 
L 76.31101 48.113645 
L 76.31101 48.158271 
L 76.31101 48.202898 
L 76.31101 48.247524 
L 76.31101 48.292151 
L 76.31101 48.336778 
L 76.31101 48.381404 
L 76.31101 48.426031 
L 76.31101 48.470657 
L 76.31101 48.515284 
L 76.31101 48.55991 
L 76.31101 48.604537 
L 76.31101 48.649163 
L 76.31101 48.69379 
L 76.31101 48.738416 
L 76.31101 48.783043 
L 76.31101 48.827669 
L 76.31101 48.872296 
L 76.31101 48.916922 
L 76.31101 48.961549 
L 76.31101 49.006176 
L 76.31101 49.050802 
L 76.31101 49.095429 
L 76.31101 49.140055 
L 76.31101 49.184682 
L 76.31101 49.229308 
L 76.31101 49.273935 
L 76.31101 49.318561 
L 76.31101 49.363188 
L 76.31101 49.407814 
L 76.31101 49.452441 
L 76.31101 49.497067 
L 76.31101 49.541694 
L 76.31101 49.58632 
L 76.31101 49.630947 
L 76.31101 49.675573 
L 76.31101 49.7202 
" style="fill:none;opacity:0.85;stroke:#000000;stroke-linecap:round;stroke-width:1.8;"/>
   </g>
   <g id="line2d_37">
    <path clip-path="url(#p421045112e)" d="M 106.930411 60.6537 
L 106.930411 60.609073 
L 106.930411 60.564447 
L 106.930411 60.51982 
L 106.930411 60.475194 
L 106.930411 60.430567 
L 106.930411 60.385941 
L 106.930411 60.341314 
L 106.930411 60.296688 
L 106.930411 60.252061 
L 106.930411 60.207435 
L 106.930411 60.162808 
L 106.930411 60.118182 
L 106.930411 60.073555 
L 106.930411 60.028929 
L 106.930411 59.984302 
L 106.930411 59.939676 
L 106.930411 59.895049 
L 106.930411 59.850422 
L 106.930411 59.805796 
L 106.930411 59.761169 
L 106.930411 59.716543 
L 106.930411 59.671916 
L 106.930411 59.62729 
L 106.930411 59.582663 
L 106.930411 59.538037 
L 106.930411 59.49341 
L 106.930411 59.448784 
L 106.930411 59.404157 
L 106.930411 59.359531 
L 106.930411 59.314904 
L 106.930411 59.270278 
L 106.930411 59.225651 
L 106.930411 59.181024 
L 106.930411 59.136398 
L 106.930411 59.091771 
L 106.930411 59.047145 
L 106.930411 59.002518 
L 106.930411 58.957892 
L 106.930411 58.913265 
L 106.930411 58.868639 
L 106.930411 58.824012 
L 106.930411 58.779386 
L 106.930411 58.734759 
L 106.930411 58.690133 
L 106.930411 58.645506 
L 106.930411 58.60088 
L 106.930411 58.556253 
L 106.930411 58.511627 
L 106.930411 58.467 
" style="fill:none;stroke:#ffffff;stroke-linecap:round;stroke-width:2;"/>
   </g>
   <g id="line2d_38">
    <path clip-path="url(#p421045112e)" d="M 106.930411 60.6537 
L 106.930411 60.609073 
L 106.930411 60.564447 
L 106.930411 60.51982 
L 106.930411 60.475194 
L 106.930411 60.430567 
L 106.930411 60.385941 
L 106.930411 60.341314 
L 106.930411 60.296688 
L 106.930411 60.252061 
L 106.930411 60.207435 
L 106.930411 60.162808 
L 106.930411 60.118182 
L 106.930411 60.073555 
L 106.930411 60.028929 
L 106.930411 59.984302 
L 106.930411 59.939676 
L 106.930411 59.895049 
L 106.930411 59.850422 
L 106.930411 59.805796 
L 106.930411 59.761169 
L 106.930411 59.716543 
L 106.930411 59.671916 
L 106.930411 59.62729 
L 106.930411 59.582663 
L 106.930411 59.538037 
L 106.930411 59.49341 
L 106.930411 59.448784 
L 106.930411 59.404157 
L 106.930411 59.359531 
L 106.930411 59.314904 
L 106.930411 59.270278 
L 106.930411 59.225651 
L 106.930411 59.181024 
L 106.930411 59.136398 
L 106.930411 59.091771 
L 106.930411 59.047145 
L 106.930411 59.002518 
L 106.930411 58.957892 
L 106.930411 58.913265 
L 106.930411 58.868639 
L 106.930411 58.824012 
L 106.930411 58.779386 
L 106.930411 58.734759 
L 106.930411 58.690133 
L 106.930411 58.645506 
L 106.930411 58.60088 
L 106.930411 58.556253 
L 106.930411 58.511627 
L 106.930411 58.467 
" style="fill:none;opacity:0.85;stroke:#000000;stroke-linecap:round;stroke-width:1.8;"/>
   </g>
   <g id="line2d_39">
    <path clip-path="url(#p421045112e)" d="M 105.196953 65.0271 
L 105.196953 65.071727 
L 105.196953 65.116353 
L 105.196953 65.16098 
L 105.196953 65.205606 
L 105.196953 65.250233 
L 105.196953 65.294859 
L 105.196953 65.339486 
L 105.196953 65.384112 
L 105.196953 65.428739 
L 105.196953 65.473365 
L 105.196953 65.517992 
L 105.196953 65.562618 
L 105.196953 65.607245 
L 105.196953 65.651871 
L 105.196953 65.696498 
L 105.196953 65.741124 
L 105.196953 65.785751 
L 105.196953 65.830378 
L 105.196953 65.875004 
L 105.196953 65.919631 
L 105.196953 65.964257 
L 105.196953 66.008884 
L 105.196953 66.05351 
L 105.196953 66.098137 
L 105.196953 66.142763 
L 105.196953 66.18739 
L 105.196953 66.232016 
L 105.196953 66.276643 
L 105.196953 66.321269 
L 105.196953 66.365896 
L 105.196953 66.410522 
L 105.196953 66.455149 
L 105.196953 66.499776 
L 105.196953 66.544402 
L 105.196953 66.589029 
L 105.196953 66.633655 
L 105.196953 66.678282 
L 105.196953 66.722908 
L 105.196953 66.767535 
L 105.196953 66.812161 
L 105.196953 66.856788 
L 105.196953 66.901414 
L 105.196953 66.946041 
L 105.196953 66.990667 
L 105.196953 67.035294 
L 105.196953 67.07992 
L 105.196953 67.124547 
L 105.196953 67.169173 
L 105.196953 67.2138 
" style="fill:none;stroke:#ffffff;stroke-linecap:round;stroke-width:2;"/>
   </g>
   <g id="line2d_40">
    <path clip-path="url(#p421045112e)" d="M 105.196953 65.0271 
L 105.196953 65.071727 
L 105.196953 65.116353 
L 105.196953 65.16098 
L 105.196953 65.205606 
L 105.196953 65.250233 
L 105.196953 65.294859 
L 105.196953 65.339486 
L 105.196953 65.384112 
L 105.196953 65.428739 
L 105.196953 65.473365 
L 105.196953 65.517992 
L 105.196953 65.562618 
L 105.196953 65.607245 
L 105.196953 65.651871 
L 105.196953 65.696498 
L 105.196953 65.741124 
L 105.196953 65.785751 
L 105.196953 65.830378 
L 105.196953 65.875004 
L 105.196953 65.919631 
L 105.196953 65.964257 
L 105.196953 66.008884 
L 105.196953 66.05351 
L 105.196953 66.098137 
L 105.196953 66.142763 
L 105.196953 66.18739 
L 105.196953 66.232016 
L 105.196953 66.276643 
L 105.196953 66.321269 
L 105.196953 66.365896 
L 105.196953 66.410522 
L 105.196953 66.455149 
L 105.196953 66.499776 
L 105.196953 66.544402 
L 105.196953 66.589029 
L 105.196953 66.633655 
L 105.196953 66.678282 
L 105.196953 66.722908 
L 105.196953 66.767535 
L 105.196953 66.812161 
L 105.196953 66.856788 
L 105.196953 66.901414 
L 105.196953 66.946041 
L 105.196953 66.990667 
L 105.196953 67.035294 
L 105.196953 67.07992 
L 105.196953 67.124547 
L 105.196953 67.169173 
L 105.196953 67.2138 
" style="fill:none;opacity:0.85;stroke:#000000;stroke-linecap:round;stroke-width:1.8;"/>
   </g>
   <g id="patch_5">
    <path d="M 49.4228 71.5872 
L 49.4228 1.6128 
" style="fill:none;stroke:#cccccc;stroke-linecap:square;stroke-linejoin:miter;"/>
   </g>
   <g id="patch_6">
    <path d="M 125.6022 71.5872 
L 125.6022 1.6128 
" style="fill:none;stroke:#cccccc;stroke-linecap:square;stroke-linejoin:miter;"/>
   </g>
   <g id="patch_7">
    <path d="M 49.4228 71.5872 
L 125.6022 71.5872 
" style="fill:none;stroke:#cccccc;stroke-linecap:square;stroke-linejoin:miter;"/>
   </g>
   <g id="patch_8">
    <path d="M 49.4228 1.6128 
L 125.6022 1.6128 
" style="fill:none;stroke:#cccccc;stroke-linecap:square;stroke-linejoin:miter;"/>
   </g>
   <g id="PathCollection_1">
    <defs>
     <path d="M 0 0.8 
C 0.212162 0.8 0.415664 0.715707 0.565685 0.565685 
C 0.715707 0.415664 0.8 0.212162 0.8 0 
C 0.8 -0.212162 0.715707 -0.415664 0.565685 -0.565685 
C 0.415664 -0.715707 0.212162 -0.8 0 -0.8 
C -0.212162 -0.8 -0.415664 -0.715707 -0.565685 -0.565685 
C -0.715707 -0.415664 -0.8 -0.212162 -0.8 0 
C -0.8 0.212162 -0.715707 0.415664 -0.565685 0.565685 
C -0.415664 0.715707 -0.212162 0.8 0 0.8 
z
" id="m42c19481ef" style="stroke:#3f3f3f;stroke-width:0.24;"/>
    </defs>
    <g clip-path="url(#p421045112e)">
     <use style="fill:#ffffff;stroke:#3f3f3f;stroke-width:0.24;" x="64.73575" xlink:href="#m42c19481ef" y="10.3596"/>
    </g>
   </g>
   <g id="PathCollection_2">
    <g clip-path="url(#p421045112e)">
     <use style="fill:#ffffff;stroke:#3f3f3f;stroke-width:0.24;" x="75.120238" xlink:href="#m42c19481ef" y="27.8532"/>
    </g>
   </g>
   <g id="PathCollection_3">
    <g clip-path="url(#p421045112e)">
     <use style="fill:#ffffff;stroke:#3f3f3f;stroke-width:0.24;" x="83.533454" xlink:href="#m42c19481ef" y="45.3468"/>
    </g>
   </g>
   <g id="PathCollection_4">
    <g clip-path="url(#p421045112e)">
     <use style="fill:#ffffff;stroke:#3f3f3f;stroke-width:0.24;" x="106.48925" xlink:href="#m42c19481ef" y="62.8404"/>
    </g>
   </g>
  </g>
 </g>
 <defs>
  <clipPath id="p421045112e">
   <rect height="69.9744" width="76.1794" x="49.4228" y="1.6128"/>
  </clipPath>
 </defs>
</svg>
